<?xml version="1.0" encoding="UTF-8" standalone="no"?>
<!-- Created with Inkscape (http://www.inkscape.org/) -->

<svg
   xmlns:dc="http://purl.org/dc/elements/1.1/"
   xmlns:cc="http://creativecommons.org/ns#"
   xmlns:rdf="http://www.w3.org/1999/02/22-rdf-syntax-ns#"
   xmlns:svg="http://www.w3.org/2000/svg"
   xmlns="http://www.w3.org/2000/svg"
   xmlns:sodipodi="http://sodipodi.sourceforge.net/DTD/sodipodi-0.dtd"
   xmlns:inkscape="http://www.inkscape.org/namespaces/inkscape"
   width="95.553314"
   height="124.19833"
   id="svg2"
   version="1.1"
   inkscape:version="0.92.3 (2405546, 2018-03-11)"
   sodipodi:docname="OrcHeadOpenMouth.svg">
  <defs
     id="defs4">
    <clipPath
       id="clipPath3687"
       clipPathUnits="userSpaceOnUse">
      <path
         id="path3689"
         d="m 228.4458,269.4206 c 2.8602,7.4673 6.3266,9.4564 14.4703,8.0946 7.6362,-1.2716 13.2466,-8.5796 12.9379,-16.3587 -0.14,-3.3438 -2.905,-8.3994 -8.9331,-13.4164 -0.2917,-7.1427 -5.4573,-11.9838 -8.7367,-11.2989 -4.9232,-1.1007 -9.4073,1.7082 -12.3451,4.8124 -2.9348,3.1008 -0.1727,20.8732 2.6067,28.167"
         inkscape:connector-curvature="0" />
    </clipPath>
    <clipPath
       id="clipPath3673"
       clipPathUnits="userSpaceOnUse">
      <path
         id="path3675"
         d="m 192.7446,602.3965 c -0.764,-5.5919 0.4878,-10.7186 2.88,-15.7952 -0.1474,-1.5426 0.4252,-4.7611 1.9967,-5.8561 l -1.7039,-3.649 c -0.152,-3.7928 0.2707,-7.3925 0.9442,-11.1232 l 2.3941,-1.2798 0.8008,-1.9151 4.0661,-0.2906 1.6721,-1.334 5.8793,1.334 -1.8972,4.1536 1.2064,3.9201 1.7371,2.1682 1.0585,-3.5232 c 1.4471,1.1047 3.3295,4.9207 3.0055,6.7947 -0.3316,1.8915 -3.9724,4.4971 -5.4632,5.6701 1.0191,0.8206 1.4772,3.3772 1.0888,5.0476 -1.8612,7.4081 2.6269,11.943 1.6297,17.248 -0.997,5.3051 -3.1309,11.5654 -9.7583,10.9656 -6.6274,-0.5999 -12.0402,-6.74 -11.5367,-12.5357"
         inkscape:connector-curvature="0" />
    </clipPath>
    <clipPath
       id="clipPath3659"
       clipPathUnits="userSpaceOnUse">
      <path
         id="path3661"
         d="m 221.5942,234.9323 c -0.6852,-5.6024 0.6386,-10.711 3.1016,-15.7535 -0.1255,-1.5443 0.4921,-4.7546 2.079,-5.8272 l -1.6526,-3.6726 c -0.0987,-3.7944 0.3744,-7.3882 1.1004,-11.109 l 2.412,-1.2461 0.8274,-1.9034 4.0697,-0.2333 1.6909,-1.3108 5.86,1.4168 -1.9556,4.1264 1.1515,3.9365 1.7064,2.1926 1.1078,-3.5082 c 1.4315,1.1248 3.2601,4.9672 2.9098,6.8363 -0.3583,1.8868 -4.0354,4.4408 -5.5426,5.5931 1.0077,0.8345 1.4301,3.3973 1.0182,5.0621 -1.9653,7.3811 2.4588,11.9786 1.3873,17.2692 -1.0715,5.2906 -3.2933,11.5203 -9.9117,10.8275 -6.6183,-0.6928 -11.944,-6.9083 -11.3595,-12.6964"
         inkscape:connector-curvature="0" />
    </clipPath>
    <clipPath
       id="clipPath3617"
       clipPathUnits="userSpaceOnUse">
      <path
         id="path3619"
         d="m 324.8087,323.1113 -0.6327,-6.7118 c -0.4062,-1.9647 -1.1729,-3.7398 -2.1713,-5.0358 -1.116,-1.4468 -2.5529,-2.3116 -3.9818,-2.1294 -1.4514,0.1866 -2.7936,1.7371 -4.1349,2.6388 l -0.021,1.9193 z"
         inkscape:connector-curvature="0" />
    </clipPath>
    <linearGradient
       id="linearGradient3605"
       spreadMethod="pad"
       gradientTransform="matrix(-13.71235,-13.99658,13.95669,-13.67327,319.6981,329.0635)"
       gradientUnits="userSpaceOnUse"
       y2="0"
       x2="0.75"
       y1="0"
       x1="0.25">
      <stop
         id="stop3607"
         offset="0"
         style="stop-opacity:1;stop-color:#ff0000" />
      <stop
         id="stop3609"
         offset="1"
         style="stop-opacity:1;stop-color:#ff8f00" />
    </linearGradient>
    <clipPath
       id="clipPath3587"
       clipPathUnits="userSpaceOnUse">
      <path
         id="path3589"
         d="m 284.8391,322.6544 1.0207,-6.7119 c 0.6554,-1.9647 1.8927,-3.7397 3.5037,-5.0357 1.8002,-1.4468 4.1187,-2.3117 6.4238,-2.1294 2.3417,0.1865 4.5071,1.7371 6.6717,2.6388 l 0.0337,1.9193 z"
         inkscape:connector-curvature="0" />
    </clipPath>
    <linearGradient
       id="linearGradient3575"
       spreadMethod="pad"
       gradientTransform="matrix(20.84252,-13.18608,12.61428,19.9387,276.1591,311.3952)"
       gradientUnits="userSpaceOnUse"
       y2="0"
       x2="0.75999999"
       y1="0"
       x1="0.23999999">
      <stop
         id="stop3577"
         offset="0"
         style="stop-opacity:1;stop-color:#ff0000" />
      <stop
         id="stop3579"
         offset="1"
         style="stop-opacity:1;stop-color:#ff8f00" />
    </linearGradient>
    <clipPath
       id="clipPath3387"
       clipPathUnits="userSpaceOnUse">
      <path
         id="path3389"
         d="m 440.9045,749.7147 -0.6327,-6.849 c -0.4062,-2.0523 -1.173,-3.9938 -2.1714,-5.506 -1.116,-1.6886 -2.5528,-2.8645 -3.9818,-2.9914 -1.4513,-0.1282 -2.7935,1.1315 -4.1349,1.743 l -0.021,1.9148 z"
         inkscape:connector-curvature="0" />
    </clipPath>
    <linearGradient
       id="linearGradient3375"
       spreadMethod="pad"
       gradientTransform="matrix(-13.46866,-16.66479,15.96636,-12.90419,434.6671,755.5354)"
       gradientUnits="userSpaceOnUse"
       y2="0"
       x2="0.75"
       y1="0"
       x1="0.25">
      <stop
         id="stop3377"
         offset="0"
         style="stop-opacity:1;stop-color:#ff0000" />
      <stop
         id="stop3379"
         offset="1"
         style="stop-opacity:1;stop-color:#ff8f00" />
    </linearGradient>
    <clipPath
       id="clipPath3357"
       clipPathUnits="userSpaceOnUse">
      <path
         id="path3359"
         d="m 400.9348,749.0265 1.0208,-6.8375 c 0.6554,-2.0452 1.8927,-3.9727 3.5036,-5.4671 1.8003,-1.6685 4.1188,-2.8188 6.4239,-2.9203 2.3417,-0.102 4.5071,1.1821 6.6716,1.8173 l 0.0337,1.9151 z"
         inkscape:connector-curvature="0" />
    </clipPath>
    <linearGradient
       id="linearGradient3345"
       spreadMethod="pad"
       gradientTransform="matrix(20.76404,-15.69337,15.5216,20.53677,390.8401,737.7304)"
       gradientUnits="userSpaceOnUse"
       y2="0"
       x2="0.75999999"
       y1="0"
       x1="0.23999999">
      <stop
         id="stop3347"
         offset="0"
         style="stop-opacity:1;stop-color:#ff0000" />
      <stop
         id="stop3349"
         offset="1"
         style="stop-opacity:1;stop-color:#ff8f00" />
    </linearGradient>
    <clipPath
       id="clipPath3269"
       clipPathUnits="userSpaceOnUse">
      <path
         id="path3271"
         d="m 304.7734,749.1118 -0.6326,-6.7119 c -0.4062,-1.9647 -1.173,-3.7397 -2.1714,-5.0357 -1.116,-1.4468 -2.5529,-2.3117 -3.9818,-2.1294 -1.4513,0.1865 -2.7936,1.7371 -4.1349,2.6388 l -0.021,1.9193 z"
         inkscape:connector-curvature="0" />
    </clipPath>
    <linearGradient
       id="linearGradient3257"
       spreadMethod="pad"
       gradientTransform="matrix(-13.71275,-13.99698,13.95689,-13.67347,299.6631,755.064)"
       gradientUnits="userSpaceOnUse"
       y2="0"
       x2="0.75"
       y1="0"
       x1="0.25">
      <stop
         id="stop3259"
         offset="0"
         style="stop-opacity:1;stop-color:#ff0000" />
      <stop
         id="stop3261"
         offset="1"
         style="stop-opacity:1;stop-color:#ff8f00" />
    </linearGradient>
    <clipPath
       id="clipPath3239"
       clipPathUnits="userSpaceOnUse">
      <path
         id="path3241"
         d="m 264.8038,748.6549 1.0208,-6.7119 c 0.6553,-1.9647 1.8927,-3.7398 3.5036,-5.0358 1.8003,-1.4468 4.1187,-2.3116 6.4239,-2.1293 2.3417,0.1865 4.507,1.737 6.6716,2.6387 l 0.0337,1.9194 z"
         inkscape:connector-curvature="0" />
    </clipPath>
    <linearGradient
       id="linearGradient3227"
       spreadMethod="pad"
       gradientTransform="matrix(20.84252,-13.18608,12.61458,19.93918,256.1236,737.3951)"
       gradientUnits="userSpaceOnUse"
       y2="0"
       x2="0.75999999"
       y1="0"
       x1="0.23999999">
      <stop
         id="stop3229"
         offset="0"
         style="stop-opacity:1;stop-color:#ff0000" />
      <stop
         id="stop3231"
         offset="1"
         style="stop-opacity:1;stop-color:#ff8f00" />
    </linearGradient>
    <clipPath
       id="clipPath3181"
       clipPathUnits="userSpaceOnUse">
      <path
         id="path3183"
         d="m 243.6919,230.9295 c 2.1147,7.7119 5.3697,10.031 13.6078,9.474 7.7241,-0.5171 14.0235,-7.24 14.4788,-15.012 0.1882,-3.3415 -2.0676,-8.6434 -7.5754,-14.2274 0.4099,-7.1368 -4.2562,-12.4608 -7.5872,-12.1008 -4.7914,-1.5778 -9.5292,0.7778 -12.7573,3.5796 -3.2244,2.798 -2.2175,20.7555 -0.1667,28.2866"
         inkscape:connector-curvature="0" />
    </clipPath>
    <clipPath
       id="clipPath3169"
       clipPathUnits="userSpaceOnUse">
      <path
         id="path3171"
         d="m 236.8942,571.898 c 0.4504,7.9838 3.1467,10.9338 11.3184,12.1164 7.6609,1.1143 15.23,-4.1386 17.3047,-11.6425 0.8847,-3.2275 -0.2095,-8.8846 -4.4238,-15.4992 1.8973,-6.8925 -1.5488,-13.0763 -4.8812,-13.4227 -4.354,-2.5472 -9.4805,-1.2376 -13.2242,0.8249 -3.7398,2.06 -6.5203,19.8295 -6.0939,27.6231"
         inkscape:connector-curvature="0" />
    </clipPath>
    <clipPath
       id="clipPath3153"
       clipPathUnits="userSpaceOnUse">
      <path
         id="path3155"
         d="m 190.6464,649.6197 c 0.4507,7.9838 3.147,10.9338 11.3187,12.1167 7.6606,1.114 15.2297,-4.1389 17.3047,-11.6424 0.8847,-3.2279 -0.2095,-8.885 -4.4238,-15.4996 1.897,-6.8922 -1.5491,-13.0762 -4.8812,-13.4226 -4.3543,-2.5472 -9.4808,-1.2376 -13.2245,0.8249 -3.7395,2.0599 -6.5203,19.8294 -6.0939,27.623"
         inkscape:connector-curvature="0" />
    </clipPath>
    <clipPath
       id="clipPath3141"
       clipPathUnits="userSpaceOnUse">
      <path
         id="path3143"
         d="m 291.7111,229.5108 c -4.0822,6.876 -7.8355,8.2496 -15.6314,5.5298 -7.3114,-2.5452 -11.6039,-10.6974 -9.9833,-18.3121 0.7036,-3.2717 4.284,-7.7865 11.0744,-11.7113 1.4958,-6.9906 7.4058,-10.8876 10.5225,-9.6577 5.038,-0.2517 8.9824,3.2749 11.3525,6.8315 2.3677,3.5527 -3.3616,20.6017 -7.3347,27.3198"
         inkscape:connector-curvature="0" />
    </clipPath>
    <clipPath
       id="clipPath3129"
       clipPathUnits="userSpaceOnUse">
      <path
         id="path3131"
         d="m 305.3682,571.898 c -0.4505,7.9838 -3.1468,10.9338 -11.3185,12.1164 -7.6609,1.1143 -15.23,-4.1386 -17.3047,-11.6425 -0.8847,-3.2275 0.2092,-8.8846 4.4238,-15.4992 -1.8972,-6.8925 1.5488,-13.0763 4.8812,-13.4227 4.3541,-2.5472 9.4805,-1.2376 13.2242,0.8249 3.7395,2.06 6.5203,19.8295 6.094,27.6231"
         inkscape:connector-curvature="0" />
    </clipPath>
    <clipPath
       id="clipPath3113"
       clipPathUnits="userSpaceOnUse">
      <path
         id="path3115"
         d="m 283.7477,264.7199 c 0.4808,7.9821 3.1887,10.9216 11.365,12.0728 7.6652,1.0848 15.2135,-4.1976 17.2593,-11.7091 0.8725,-3.2312 -0.2441,-8.8838 -4.4836,-15.4826 1.8703,-6.8992 -1.5993,-13.0702 -4.9334,-13.4033 -4.3636,-2.5308 -9.4847,-1.201 -13.2208,0.8756 -3.7315,2.075 -6.4434,19.8547 -5.9865,27.6466"
         inkscape:connector-curvature="0" />
    </clipPath>
    <clipPath
       id="clipPath3097"
       clipPathUnits="userSpaceOnUse">
      <path
         id="path3099"
         d="m 317.6121,649.6197 c 0.4505,7.9838 3.1468,10.9338 11.3185,12.1167 7.6609,1.114 15.23,-4.1389 17.3046,-11.6424 0.8847,-3.2279 -0.2094,-8.885 -4.4237,-15.4996 1.8972,-6.8922 -1.5489,-13.0762 -4.8813,-13.4226 -4.354,-2.5472 -9.4804,-1.2376 -13.2242,0.8249 -3.7397,2.0599 -6.5202,19.8294 -6.0939,27.623"
         inkscape:connector-curvature="0" />
    </clipPath>
    <clipPath
       id="clipPath3037"
       clipPathUnits="userSpaceOnUse">
      <path
         id="path3039"
         d="m 307.3893,243.688 c 2.7215,-4.9445 3.395,-10.179 2.9865,-15.7757 0.6917,-1.3867 1.3133,-4.5961 0.2401,-6.1823 l 2.901,-2.7933 c 1.5044,-3.4852 2.4029,-6.9965 3.1147,-10.7201 l -1.7747,-2.0545 -0.0593,-2.0747 -3.6904,-1.732 -1.0812,-1.8456 -5.9663,-0.8671 0.2783,4.5581 -2.5338,3.225 -2.4001,1.3994 0.2778,-3.6683 c -1.7473,0.5108 -4.8751,3.3959 -5.2458,5.2614 -0.37,1.8845 2.0919,5.6239 3.0619,7.2544 -1.2458,0.3994 -2.592,2.6209 -2.8295,4.3195 -0.9241,7.5821 -6.7416,10.2018 -7.717,15.5111 -0.9752,5.309 -1.2323,11.918 5.1684,13.7393 6.4003,1.8207 13.6573,-1.965 15.2694,-7.5546"
         inkscape:connector-curvature="0" />
    </clipPath>
    <linearGradient
       id="linearGradient3025"
       spreadMethod="pad"
       gradientTransform="matrix(-252.21448,-101.11512,59.65879,-148.8087,279.7554,357.5852)"
       gradientUnits="userSpaceOnUse"
       y2="0"
       x2="0.50999999"
       y1="0"
       x1="0.49000001">
      <stop
         id="stop3027"
         offset="0"
         style="stop-opacity:1;stop-color:#4a6012" />
      <stop
         id="stop3029"
         offset="1"
         style="stop-opacity:1;stop-color:#ffffff" />
    </linearGradient>
    <clipPath
       id="clipPath3009"
       clipPathUnits="userSpaceOnUse">
      <path
         id="path3011"
         d="m 345.1062,602.2213 c 0.6854,-5.6021 -0.6386,-10.7104 -3.1014,-15.7532 0.1256,-1.5444 -0.4921,-4.7546 -2.0789,-5.8272 l 1.6526,-3.6726 c 0.0984,-3.7944 -0.3745,-7.3882 -1.1004,-11.109 l -2.412,-1.2461 -0.8277,-1.9034 -4.0695,-0.2336 -1.6908,-1.3102 -5.8601,1.4165 1.9554,4.1267 -1.1512,3.9362 -1.7067,2.1926 -1.1075,-3.5079 c -1.4315,1.1248 -3.2604,4.9668 -2.9101,6.836 0.3583,1.8868 4.0354,4.4408 5.5426,5.593 -1.0074,0.8346 -1.4298,3.3974 -1.0179,5.0622 1.965,7.3811 -2.4591,11.9789 -1.3873,17.2692 1.0715,5.2906 3.2933,11.5203 9.9116,10.8275 6.6181,-0.6928 11.9441,-6.9083 11.3593,-12.6967"
         inkscape:connector-curvature="0" />
    </clipPath>
  </defs>
  <sodipodi:namedview
     id="base"
     pagecolor="#ffffff"
     bordercolor="#666666"
     borderopacity="1.0"
     inkscape:pageopacity="0.0"
     inkscape:pageshadow="2"
     inkscape:zoom="2.86"
     inkscape:cx="44.786034"
     inkscape:cy="56.532612"
     inkscape:document-units="px"
     inkscape:current-layer="g2993"
     showgrid="false"
     inkscape:window-width="1280"
     inkscape:window-height="737"
     inkscape:window-x="-8"
     inkscape:window-y="-8"
     inkscape:window-maximized="1"
     inkscape:pagecheckerboard="true"
     fit-margin-top="0"
     fit-margin-left="0"
     fit-margin-right="0"
     fit-margin-bottom="0" />
  <metadata
     id="metadata7">
    <rdf:RDF>
      <cc:Work
         rdf:about="">
        <dc:format>image/svg+xml</dc:format>
        <dc:type
           rdf:resource="http://purl.org/dc/dcmitype/StillImage" />
        <dc:title></dc:title>
      </cc:Work>
    </rdf:RDF>
  </metadata>
  <g
     inkscape:label="Layer 1"
     inkscape:groupmode="layer"
     id="layer1"
     transform="translate(-417.84456,-142.86611)">
    <g
       transform="matrix(1.25,0,0,-1.25,-15.975944,1119.6963)"
       inkscape:label="Orc_1"
       id="g2993">
      <path
         id="path3305"
         style="fill:#73941c;fill-opacity:1;fill-rule:nonzero;stroke:none;stroke-width:0.86525762"
         d="m 363.97336,746.9493 c -0.85011,2.9106 -1.89256,5.4912 -3.08864,7.6637 -0.58785,1.0624 -1.20962,2.0262 -1.85333,2.9239 -0.54077,0.7577 -1.09823,1.4715 -1.63135,2.2525 -0.69312,1.0116 -1.34799,2.1395 -1.9741,3.3338 -0.52542,1.0023 -1.03219,2.0503 -1.60163,2.9285 -0.24317,0.3707 -0.49532,0.71 -0.77203,0.9688 -0.37501,0.3546 -0.78161,0.5536 -1.20057,0.6679 -0.76185,0.2007 -1.55746,0.1128 -2.34648,-0.2685 -0.84256,-0.4076 -1.67725,-1.1508 -2.44883,-2.1826 0.28075,-0.9786 0.57887,-1.9279 0.89998,-2.8338 0.40151,-1.1407 0.83911,-2.2456 1.06513,-3.6437 0.30688,-1.9032 0.19548,-4.1459 0.0639,-6.3028 -0.15647,-2.6 -0.3366,-5.3051 -6.8e-4,-7.6434 0.33533,-2.2963 1.12353,-3.9554 1.74403,-5.8535 0.42914,-1.3181 0.78483,-2.7737 1.25148,-4.0229 0.46987,-1.2495 1.07277,-2.3049 1.82661,-2.5713 0.81388,-0.2878 1.69881,0.3699 2.535,1.0513 1.04791,0.8541 2.1114,1.7671 3.17122,1.8987 0.4495,0.0552 0.89241,-0.0309 1.3083,-0.2546 z"
         inkscape:connector-curvature="0" />
      <path
         id="path3307"
         style="fill:#4a6112;fill-opacity:1;fill-rule:nonzero;stroke:none;stroke-width:0.86525762"
         d="m 349.1389,762.2442 c 0.61227,-0.1849 1.17489,-0.7713 1.60231,-1.6745 0.50295,-1.0553 0.81193,-2.5024 1.23298,-3.7326 1.15281,-3.3888 3.04724,-4.9825 4.67605,-7.2048 0.83514,-1.145 1.63098,-2.5198 2.1129,-4.4485 0.18911,-0.7565 0.32552,-1.5933 0.40623,-2.476 -0.50812,-0.0539 -1.01378,-0.1128 -1.52355,-0.1797 -0.86651,-0.1134 -1.75406,-0.2586 -2.59654,-1.0673 -0.7453,-0.7174 -1.42681,-1.9488 -1.91083,-3.4602 -0.25874,1.451 -0.63861,2.7595 -1.11739,3.8443 -0.32088,0.7203 -0.68421,1.3434 -1.01123,2.0551 -0.32447,0.7107 -0.6169,1.5254 -0.76125,2.5308 -0.16463,1.1469 -0.12473,2.4642 -0.0286,3.7471 0.0951,1.2821 0.24721,2.5676 0.30172,3.8489 0.13753,3.2187 -0.3828,6.3077 -1.3828,8.2174"
         inkscape:connector-curvature="0" />
      <path
         id="path3309"
         style="fill:#73941c;fill-opacity:1;fill-rule:nonzero;stroke:none;stroke-width:0.86525762"
         d="m 384.64042,780.5849 c 2.96856,-0.8989 6.26413,-2.4381 8.93771,-4.375 2.70494,-1.969 5.71677,-4.5899 8.06251,-7.2581 2.56487,-2.922 4.57355,-6.738 6.24676,-10.645 1.94729,-4.5428 3.59968,-14.7648 3.59968,-14.7648 0,0 0.57932,-9.7381 -0.0465,-14.5 -0.57872,-4.434 -3.39515,-12.7151 -3.39515,-12.7151 0,0 -5.46297,0.7149 -8.1126,-0.0119 -4.06827,-1.1132 -7.91644,-3.636 -11.45548,-6.535 -2.75803,-2.2621 -5.24062,-19.3292 -7.44561,-22.4932 -0.96795,-1.391 -2.49741,-4.625 -2.49741,-4.625 0,0 -11.59324,-1.637 -16.8421,1.0468 -2.78139,1.4221 -5.24085,4.261 -6.91929,7.547 -0.98892,1.9332 -1.48297,4.3511 -1.61181,6.6832 -0.13709,2.524 0.92468,21.6612 0.92468,21.6612 l -0.58853,6.9608 -2.43011,2.3712 0.2079,9.5238 c 0,0 0.37733,7.9302 1.11418,11.7542 0.85124,4.4098 1.97409,8.8319 3.78161,12.6949 1.50018,3.219 2.9535,6.2031 5.05338,8.754 1.96226,2.391 4.5475,4.9099 6.87519,6.6251 2.03264,1.4958 4.38107,2.3009 6.67649,2.742 3.51584,0.6718 6.40189,0.606 9.86449,-0.4411"
         inkscape:connector-curvature="0" />
      <path
         id="path3311"
         style="fill:#4a6112;fill-opacity:1;fill-rule:nonzero;stroke:none;stroke-width:0.86525762"
         d="m 358.33086,686.2405 c 0.74066,-0.5159 6.5761,-4.1669 16.1057,1.5228 4.5651,2.7255 8.83567,22.5927 13.91435,26.6629 8.79658,7.0495 17.71153,6.1464 18.15594,14.3269 0.47945,1.7844 0.81111,3.6519 1.011,5.5511 0.40496,-0.2466 0.80587,-0.5066 1.20589,-0.762 0.9401,-0.5984 1.93074,-1.1868 2.95814,-1.2676 -0.0437,-1.1934 -0.11971,-2.3071 -0.24129,-3.2326 -0.57872,-4.434 -3.75668,-16.09538 -3.75668,-16.09538 0,0 -2.45021,-8.13822 -4.6178,-12.88917 -2.26061,-4.81541 -4.82741,-8.78852 -4.82741,-8.78852 -2.03497,-3.06693 -3.91501,-6.6129 -7.32509,-8.16724 -2.77562,-1.06907 -9.44228,-0.58 -9.44228,-0.58 0,0 -14.53023,-1.49689 -19.77909,1.18691 -1.19166,0.6092 -2.32402,1.4788 -3.36138,2.5319"
         inkscape:connector-curvature="0"
         sodipodi:nodetypes="ccccccccccccccc" />
      <path
         id="path3313"
         style="fill:#000000;fill-opacity:1;fill-rule:nonzero;stroke:none;stroke-width:0.86525762"
         d="m 377.32658,700.8256 c -1.17317,1.2971 -2.5356,2.2581 -3.93943,3.047 -1.39477,0.7852 -2.8457,1.4181 -4.33997,1.7501 -2.52369,0.5621 -5.10601,0.269 -7.66504,0.265 -0.80475,0 -1.61473,0.0281 -2.41589,-0.074 -0.80414,-0.1012 -1.60799,-0.3401 -2.31938,-0.8441 -1.00554,-0.707 -1.77502,-1.906 -2.35075,-3.2139 -0.52631,-1.2 -0.90963,-2.5081 -1.13498,-3.864 -0.77525,5.5747 0.8716,9.8099 1.3941,14.3765 0.46095,4.0295 -0.98518,9.8518 0.96114,8.5975 3.05637,-1.9704 7.29789,1.4655 9.98375,1.2606 2.9437,-0.2248 6.75526,-4.106 10.94407,-1.7567 3.4352,1.927 1.93711,-12.4356 0.88238,-19.544"
         inkscape:connector-curvature="0" />
      <path
         id="path3315"
         style="fill:#ccff66;fill-opacity:0.353;fill-rule:nonzero;stroke:none;stroke-width:0.86525762"
         d="m 383.45198,739.8136 c 0,-1.1287 0.61563,-1.946 1.37216,-1.8215 0.75938,0.1247 1.37441,1.1443 1.37441,2.2731 0,1.1321 -0.61503,1.9494 -1.37441,1.8246 -0.74298,-0.1221 -1.35247,-1.1106 -1.37216,-2.2243 z"
         inkscape:connector-curvature="0" />
      <path
         id="path3317"
         style="fill:#ccff66;fill-opacity:0.353;fill-rule:nonzero;stroke:none;stroke-width:0.86525762"
         d="m 383.72697,754.3755 -12.13843,-8.2199 -1.96982,0.5521 -0.25807,3.6417 2.23403,-1.4159 12.02283,6.3975 z"
         inkscape:connector-curvature="0" />
      <path
         id="path3319"
         style="fill:#ccff66;fill-opacity:0.353;fill-rule:nonzero;stroke:none;stroke-width:0.86525762"
         d="m 352.88735,755.0719 7.52346,-8.4002 1.22094,0.523 0.15999,3.638 -1.38474,-1.3827 -7.45175,6.5758 z"
         inkscape:connector-curvature="0" />
      <path
         id="path3321"
         style="fill:#ccff66;fill-opacity:0.353;fill-rule:nonzero;stroke:none;stroke-width:0.86525762"
         d="m 407.32073,754.2584 c -8.34139,10.9185 -20.29856,21.8256 -32.31922,20.0554 -7.90971,-1.1667 -13.31227,-6.2836 -18.59975,-13.9054 6.5031,10.6586 10.95807,19.2459 22.74739,18.9837 11.76962,-0.2617 24.05494,-10.1129 28.17158,-25.1337"
         inkscape:connector-curvature="0" />
      <path
         id="path3323"
         style="fill:#73941c;fill-opacity:1;fill-rule:nonzero;stroke:none;stroke-width:0.86525762"
         d="m 399.98256,741.7556 c 1.12413,3.3299 2.5326,6.3493 4.17436,8.9649 0.80175,1.2778 1.65958,2.4596 2.5469,3.573 0.74867,0.9409 1.52055,1.8383 2.25717,2.801 0.95456,1.2483 1.85184,2.6132 2.71154,4.0444 0.71625,1.1999 1.40622,2.4446 2.19248,3.5218 0.33211,0.4541 0.68481,0.8799 1.06663,1.2212 0.52227,0.4663 1.09673,0.7744 1.68885,0.9932 1.073,0.3895 2.20454,0.4765 3.3372,0.2472 1.20776,-0.2463 2.41319,-0.858 3.54136,-1.7909 -0.36991,-1.1194 -0.77128,-2.2125 -1.20139,-3.2613 -0.53627,-1.3207 -1.1263,-2.611 -1.40832,-4.1681 -0.38474,-2.1228 -0.16172,-4.5138 0.0836,-6.8085 0.2967,-2.7652 0.62499,-5.6398 0.21135,-8.2372 -0.40727,-2.5483 -1.48259,-4.5181 -2.30942,-6.7051 -0.577,-1.5199 -1.04073,-3.1691 -1.66826,-4.6224 -0.63009,-1.4531 -1.45901,-2.7289 -2.52078,-3.1879 -1.14764,-0.4943 -2.4212,0.0111 -3.63195,0.5531 -1.51164,0.6806 -3.04514,1.4221 -4.55551,1.3215 -0.64139,-0.0434 -1.26488,-0.2367 -1.85184,-0.5735 z"
         inkscape:connector-curvature="0" />
      <path
         id="path3325"
         style="fill:#4a6112;fill-opacity:1;fill-rule:nonzero;stroke:none;stroke-width:0.86525762"
         d="m 420.62318,761.6296 c -0.86538,-0.341 -1.64572,-1.1007 -2.22826,-2.1719 -0.68616,-1.2529 -1.0849,-2.8831 -1.64581,-4.3041 -1.54159,-3.915 -4.18844,-6.0656 -6.44006,-8.8328 -1.15745,-1.4255 -2.24661,-3.0883 -2.8752,-5.2761 -0.25043,-0.8592 -0.42128,-1.7924 -0.51104,-2.7624 0.72239,0.0581 1.44546,0.1126 2.1704,0.1554 1.23276,0.0759 2.49741,0.1219 3.7143,-0.5573 1.08063,-0.6024 2.08235,-1.7725 2.81403,-3.2913 0.32455,1.6237 0.82706,3.1189 1.476,4.3974 0.43805,0.8498 0.9342,1.6038 1.3801,2.4457 0.44187,0.8405 0.83619,1.7872 1.01228,2.9018 0.20162,1.2736 0.11036,2.6844 -0.0628,4.0451 -0.17317,1.3592 -0.42592,2.7093 -0.53755,4.0782 -0.28479,3.437 0.36842,6.885 1.73362,9.1723"
         inkscape:connector-curvature="0" />
      <path
         id="path3327"
         style="fill:#4a6112;fill-opacity:1;fill-rule:nonzero;stroke:none;stroke-width:0.86525762"
         d="m 383.16187,749.0265 -0.76424,-9.7583 c -0.49068,-2.7938 -1.41701,-5.2055 -2.62305,-6.8428 -1.34783,-1.8275 -3.08362,-2.7028 -4.80938,-2.0299 -1.75316,0.6848 -4.20626,3.2216 -5.82676,4.9348 l -0.0252,2.8471 z"
         inkscape:connector-curvature="0" />
      <path
         id="path3329"
         style="fill:#4a6112;fill-opacity:1;fill-rule:nonzero;stroke:none;stroke-width:0.86525762"
         d="m 400.69132,729.0669 -2.42569,3.2264 c -0.91637,0.7126 -2.11732,0.9374 -3.40338,0.6415 -1.4367,-0.3311 -3.01415,-1.3366 -4.29745,-2.9401 -1.30351,-1.6294 -10.48932,-30.0847 -11.49456,-32.0139 l 14.17233,30.2649 3.66722,1.5009 z"
         inkscape:connector-curvature="0" />
      <path
         id="path3331"
         style="fill:#4a6112;fill-opacity:1;fill-rule:nonzero;stroke:none;stroke-width:0.86525762"
         d="m 351.36403,740.0653 c 0.0539,0.0167 0.10631,0.0216 0.15729,0.01 0.62859,-0.1451 -0.0828,-10.1219 0.563,-10.5185 0.83043,-0.5099 1.91892,-0.4907 2.64064,-1.3926 -0.21367,-1.6424 0.74193,-26.3336 -1.39769,-31.976 -0.0795,0.5831 -0.13409,1.1696 -0.16613,1.7507 -0.13709,2.524 0.92468,21.6612 0.92468,21.6612 l -0.58853,6.9608 -2.43011,2.3712 0.2079,9.5238 c 0,0 0.0297,0.6253 0.089,1.6095"
         inkscape:connector-curvature="0" />
      <path
         id="path3333"
         style="fill:#4a6112;fill-opacity:1;fill-rule:nonzero;stroke:none;stroke-width:0.86525762"
         d="m 353.23773,749.7147 0.47368,-9.7698 c 0.30411,-2.801 0.87819,-5.2266 1.62581,-6.8817 0.83537,-1.8474 1.91106,-2.7485 2.98069,-2.1013 1.08677,0.6587 2.60717,3.1595 3.61158,4.8486 l 0.0157,2.8469 z"
         inkscape:connector-curvature="0" />
      <g
         id="g3335"
         transform="matrix(-0.74867076,0,0,1,683.33003,0)">
        <g
           id="g3337">
          <g
             id="g3343">
            <path
               id="path3351"
               style="fill:url(#linearGradient3345);stroke:none"
               d="m 400.9348,749.0265 1.0208,-6.8375 c 0.6554,-2.0452 1.8927,-3.9727 3.5036,-5.4671 1.8003,-1.6685 4.1188,-2.8188 6.4239,-2.9203 2.3417,-0.102 4.5071,1.1821 6.6716,1.8173 l 0.0337,1.9151 z"
               inkscape:connector-curvature="0" />
          </g>
        </g>
      </g>
      <g
         id="g3353"
         transform="matrix(-0.74867076,0,0,1,683.33003,0)">
        <g
           clip-path="url(#clipPath3357)"
           id="g3355">
          <g
             transform="scale(0.79,1)"
             id="g3361">
            <path
               id="path3363"
               style="fill:#000000;fill-opacity:1;fill-rule:nonzero;stroke:none"
               d="m 526.4529,738.5221 c 0,-2.3184 -2.1384,-3.9962 -4.7656,-3.7408 -2.637,0.2565 -4.7732,2.3502 -4.7732,4.6686 0,2.3258 2.1362,4.0045 4.7732,3.748 2.5801,-0.2509 4.697,-2.281 4.7656,-4.5686 z"
               inkscape:connector-curvature="0" />
          </g>
        </g>
      </g>
      <g
         id="g3365"
         transform="matrix(-0.74867076,0,0,1,683.33003,0)">
        <g
           id="g3367">
          <g
             id="g3373">
            <path
               id="path3381"
               style="fill:url(#linearGradient3375);stroke:none"
               d="m 440.9045,749.7147 -0.6327,-6.849 c -0.4062,-2.0523 -1.173,-3.9938 -2.1714,-5.506 -1.116,-1.6886 -2.5528,-2.8645 -3.9818,-2.9914 -1.4513,-0.1282 -2.7935,1.1315 -4.1349,1.743 l -0.021,1.9148 z"
               inkscape:connector-curvature="0" />
          </g>
        </g>
      </g>
      <g
         id="g3383"
         transform="matrix(-0.74867076,0,0,1,683.33003,0)">
        <g
           clip-path="url(#clipPath3387)"
           id="g3385">
          <g
             transform="scale(0.79,1)"
             id="g3391">
            <path
               id="path3393"
               style="fill:#000000;fill-opacity:1;fill-rule:nonzero;stroke:none"
               d="m 546.3675,739.044 c 0,-2.3185 1.326,-3.9776 2.9539,-3.6989 1.6348,0.2795 2.9583,2.3921 2.9583,4.7106 0,2.3255 -1.3235,3.9855 -2.9583,3.706 -1.5993,-0.2735 -2.9111,-2.3224 -2.9539,-4.6106 z"
               inkscape:connector-curvature="0" />
          </g>
        </g>
      </g>
      <path
         id="path3395"
         style="fill:#4a6112;fill-opacity:1;fill-rule:nonzero;stroke:none;stroke-width:0.86525762"
         d="m 367.01372,730.8224 0.78857,-6.2272 -1.462,-0.233 -0.0634,6.4659 0.73685,-0.006 z"
         inkscape:connector-curvature="0" />
      <path
         id="path3397"
         style="fill:#4a6112;fill-opacity:1;fill-rule:nonzero;stroke:none;stroke-width:0.86525762"
         d="m 362.85455,730.84 -0.78902,-6.2286 1.462,-0.2336 0.0645,6.4681 -0.73752,-0.006 z"
         inkscape:connector-curvature="0" />
      <path
         id="path3399"
         style="fill:#000000;fill-opacity:0.5;fill-rule:nonzero;stroke:none;stroke-width:0.86525762"
         d="m 353.15986,749.5954 0.26616,-3.4387 8.00224,-9.7262 0.46724,1.7776 z"
         inkscape:connector-curvature="0" />
      <path
         id="path3401"
         style="fill:#000000;fill-opacity:0.5;fill-rule:nonzero;stroke:none;stroke-width:0.86525762"
         d="m 382.74628,745.3086 -12.7804,-9.3563 -0.0207,1.5817 13.21673,11.4925 z"
         inkscape:connector-curvature="0" />
      <path
         id="path3403"
         style="fill:#4a6112;fill-opacity:1;fill-rule:nonzero;stroke:none;stroke-width:0.86525762"
         d="m 362.89423,747.04 -1.04687,-3.5915 -1.37688,-1.0973 -6.99969,8.1725 -1.39073,2.7494 1.25597,-4.0859 8.09223,-11.1943 0.73721,0.4978 z"
         inkscape:connector-curvature="0" />
      <g
         transform="matrix(-0.5914499,0,0,1,683.33003,0)"
         id="g3405">
        <path
           id="path3407"
           style="fill:#ffffff;fill-opacity:1;fill-rule:nonzero;stroke:none"
           d="m 525.5983,739.1494 c 0,-0.7395 -0.6823,-1.2747 -1.5205,-1.1933 -0.841,0.0819 -1.5225,0.7497 -1.5225,1.4893 0,0.7418 0.6815,1.2773 1.5225,1.1956 0.8232,-0.0802 1.4984,-0.7276 1.5205,-1.4575 z"
           inkscape:connector-curvature="0" />
      </g>
      <g
         transform="matrix(-0.5914499,0,0,1,683.33003,0)"
         id="g3409">
        <path
           id="path3411"
           style="fill:#ffffff;fill-opacity:1;fill-rule:nonzero;stroke:none"
           d="m 549.7894,741.0875 c 0,-0.7396 0.423,-1.2688 0.942,-1.1801 0.5219,0.0893 0.9437,0.7631 0.9437,1.5027 0,0.7418 -0.4218,1.2713 -0.9437,1.1823 -0.51,-0.0873 -0.9286,-0.7407 -0.942,-1.4709 z"
           inkscape:connector-curvature="0" />
      </g>
      <path
         id="path3413"
         style="fill:#4a6112;fill-opacity:1;fill-rule:nonzero;stroke:none;stroke-width:0.86525762"
         d="m 367.58181,746.583 1.68907,-3.6164 2.22153,-1.1305 11.2934,8.0051 2.24377,2.7161 -2.02628,-4.0558 -13.41618,-10.9397 -0.64962,1.2053 z"
         inkscape:connector-curvature="0" />
      <path
         id="path3519"
         style="fill:#ffffff;fill-opacity:1;fill-rule:nonzero;stroke:none;stroke-width:0.86525762"
         d="m 374.45483,713.0166 c 1.08782,-1.6832 1.83043,-3.761 2.12832,-5.9491 0.23134,-1.7189 0.19016,-3.4999 -0.11964,-5.199 -0.32432,-0.7421 -0.84233,-1.332 -1.44209,-1.6521 -0.59886,-0.3169 -1.27775,-0.356 -1.89765,-0.1139 -0.49128,0.1919 -0.94183,0.5629 -1.29543,1.059 -0.35097,0.4961 -0.60245,1.1169 -0.71939,1.785 l 1.38878,4.195 z"
         inkscape:connector-curvature="0" />
      <path
         id="path3521"
         style="fill:#ffffff;fill-opacity:1;fill-rule:nonzero;stroke:none;stroke-width:0.86525762"
         d="m 354.24604,707.0134 c -0.29206,-1.6288 -0.40668,-3.3169 -0.33915,-4.989 0.25739,-0.5899 0.66699,-1.0579 1.14681,-1.304 0.47623,-0.2469 1.01445,-0.2658 1.50258,-0.0589 0.45961,0.191 0.87161,0.5899 1.15236,1.1089 0.28374,0.5241 0.43864,1.1682 0.43333,1.813 -0.39216,1.2889 -0.7194,2.6209 -0.97088,3.9731 -0.3661,1.9409 -0.57962,3.9291 -0.64393,5.9289 -1.0819,-1.9179 -1.86262,-4.1369 -2.28112,-6.472"
         inkscape:connector-curvature="0" />
      <path
         id="path3523"
         style="fill:#ffffff;fill-opacity:1;fill-rule:nonzero;stroke:none;stroke-width:0.86525762"
         d="m 356.78627,719.4243 c -0.0583,0.3175 -0.10945,0.6369 -0.15362,0.9584 1.09276,-0.2753 2.2803,-0.0729 3.46305,0.2781 -0.14285,-0.5837 -0.27124,-1.173 -0.38437,-1.7663 -0.36602,-1.8941 -0.57954,-3.8344 -0.64386,-5.7861 -1.0819,1.8717 -1.86269,4.0371 -2.2812,6.3159 z m 13.05525,1.1268 c 1.5225,-0.6446 3.16104,-1.1674 4.87856,-0.8266 -0.0246,-0.3711 -0.0621,-0.7404 -0.11267,-1.107 -0.29797,-2.1353 -1.0405,-4.1629 -2.1284,-5.8056 l -1.9571,5.7334 z"
         inkscape:connector-curvature="0" />
      <path
         id="path3525"
         style="fill:#73941c;fill-opacity:1;fill-rule:nonzero;stroke:none;stroke-width:0.86525762"
         d="m 378.46471,694.1166 c -0.65808,2.461 0.3676,5.0411 -1.13813,6.709 -1.17317,1.2971 -2.5356,2.2581 -3.93943,3.047 -1.39477,0.7852 -2.8457,1.4181 -4.33997,1.7501 -2.52369,0.5621 -5.10601,0.269 -7.66504,0.265 -0.80475,0 -1.61473,0.0281 -2.41589,-0.074 -0.80414,-0.1012 -1.60799,-0.3401 -2.31938,-0.8441 -1.00554,-0.707 -1.77502,-1.906 -2.35075,-3.2139 -0.52631,-1.2 -0.90963,-2.5081 -1.13498,-3.864 z"
         inkscape:connector-curvature="0" />
      <path
         id="path3527"
         style="fill:#ccff66;fill-opacity:0.353;fill-rule:nonzero;stroke:none;stroke-width:0.86525762"
         d="m 357.88645,701.0028 c 0,-1.1288 2.80519,1.0165 6.75967,1.0165 3.96878,0 7.59586,-2.1453 7.59586,-1.0165 0,1.1321 -3.4206,3.3636 -7.38953,3.3636 -3.88328,0 -6.86261,-2.2011 -6.966,-3.3118 z"
         inkscape:connector-curvature="0" />
      <path
         id="path3529"
         style="fill:#4a6112;fill-opacity:1;fill-rule:nonzero;stroke:none;stroke-width:0.86525762"
         d="m 370.58181,695.0177 -10.03137,1.546 1.54331,-11.1657 3.08655,-1.3742 -1.9291,9.6197 5.7873,-0.5154 v -4.9816 z"
         inkscape:connector-curvature="0" />
      <path
         id="path3531"
         style="fill:#4a6112;fill-opacity:1;fill-rule:nonzero;stroke:none;stroke-width:0.86525762"
         d="m 367.76029,682.2788 c -1.83656,-0.0431 -3.67912,0.3589 -5.40697,1.1798 -1.62095,0.769 -3.1415,1.906 -4.47788,3.3471 -1.16725,1.2541 -2.19353,2.7389 -3.03586,4.3909 -0.54054,1.0551 -1.00846,2.1872 -1.30703,3.4061 -0.30119,1.2149 -0.42981,2.52 -0.29205,3.7848 0.19225,1.7932 0.90956,3.4263 1.81028,4.7821 0.53223,0.8042 1.14023,1.5392 1.86561,2.0029 0.58464,0.3793 1.2279,0.5712 1.86562,0.7351 2.61435,0.6721 5.30216,0.9181 7.94579,0.5122 3.04177,-0.4692 6.00419,-1.8012 8.65995,-3.8401 0.52931,-0.4071 1.04941,-0.8481 1.49719,-1.4032 0.65816,-0.8078 1.14622,-1.8629 1.39477,-3.0109 l 0.20754,-2.1799 c -3.94752,4.3373 -6.72232,8.1825 -12.23583,9.3478 -3.60717,0.7552 -7.40997,-0.1267 -9.97274,-4.4688 -0.52632,-0.8952 -0.90687,-1.961 -1.00846,-3.09 -0.0856,-0.957 0.026,-1.9301 0.26271,-2.8361 0.23425,-0.9099 0.58763,-1.758 0.983,-2.558 1.44419,-2.9148 3.50296,-5.2778 5.87766,-6.7391 4.77884,-1.5389 9.79726,-1.7299 14.63442,-0.5538 1.05263,0.2571 2.09995,0.5779 3.12945,0.96 l -1.62904,-3.3349 z"
         inkscape:connector-curvature="0" />
      <path
         id="path3533"
         style="fill:#990000;fill-opacity:1;fill-rule:evenodd;stroke:#000000;stroke-width:0.18689565;stroke-linecap:butt;stroke-linejoin:miter;stroke-miterlimit:2.61312604;stroke-dasharray:none;stroke-opacity:1"
         d="m 365.16203,715.3795 c -3.53605,0 -6.58419,-5.7146 -6.58419,-7.7102 0,-1.9956 2.86779,-0.241 6.40383,-0.241 3.53605,0 6.40376,-1.7546 6.40376,0.241 0,1.9956 -2.68735,7.7102 -6.2234,7.7102 z"
         inkscape:connector-curvature="0" />
    </g>
  </g>
</svg>
