<?xml version="1.0" encoding="UTF-8" standalone="no"?>
<!-- Created with Inkscape (http://www.inkscape.org/) -->

<svg
   xmlns:dc="http://purl.org/dc/elements/1.1/"
   xmlns:cc="http://creativecommons.org/ns#"
   xmlns:rdf="http://www.w3.org/1999/02/22-rdf-syntax-ns#"
   xmlns:svg="http://www.w3.org/2000/svg"
   xmlns="http://www.w3.org/2000/svg"
   xmlns:sodipodi="http://sodipodi.sourceforge.net/DTD/sodipodi-0.dtd"
   xmlns:inkscape="http://www.inkscape.org/namespaces/inkscape"
   width="39.415215mm"
   height="43.024967mm"
   viewBox="0 0 39.415215 43.024968"
   version="1.1"
   id="svg29317"
   inkscape:version="0.92.3 (2405546, 2018-03-11)"
   sodipodi:docname="robotHead.svg">
  <defs
     id="defs29311" />
  <sodipodi:namedview
     id="base"
     pagecolor="#ffffff"
     bordercolor="#666666"
     borderopacity="1.0"
     inkscape:pageopacity="0.0"
     inkscape:pageshadow="2"
     inkscape:zoom="2.32"
     inkscape:cx="123.98856"
     inkscape:cy="102.87102"
     inkscape:document-units="mm"
     inkscape:current-layer="layer1"
     showgrid="false"
     inkscape:pagecheckerboard="true"
     inkscape:snap-global="false"
     fit-margin-top="0"
     fit-margin-left="0"
     fit-margin-right="0"
     fit-margin-bottom="0"
     inkscape:window-width="1280"
     inkscape:window-height="737"
     inkscape:window-x="-8"
     inkscape:window-y="-8"
     inkscape:window-maximized="1" />
  <metadata
     id="metadata29314">
    <rdf:RDF>
      <cc:Work
         rdf:about="">
        <dc:format>image/svg+xml</dc:format>
        <dc:type
           rdf:resource="http://purl.org/dc/dcmitype/StillImage" />
        <dc:title></dc:title>
      </cc:Work>
    </rdf:RDF>
  </metadata>
  <g
     inkscape:label="Layer 1"
     inkscape:groupmode="layer"
     id="layer1"
     transform="translate(-121.53647,-113.8928)">
    <g
       id="g3626"
       transform="matrix(-0.20855593,0,0,-0.35277777,212.31514,251.11711)">
      <path
         d="m 395.909,351.4581 c 14.3564,-1.891 17.8951,0.8115 26.6434,9.286 6.662,5.7314 17.0799,2.3479 10.762,-10.1327 -8.7936,-17.3719 -22.4889,-30.4946 -37.4054,-30.4946 0,8.7061 0,22.6352 0,31.3413"
         style="fill:#333300;fill-opacity:1;fill-rule:evenodd;stroke:none"
         id="path3628"
         inkscape:connector-curvature="0" />
      <path
         d="m 395.909,348.1764 c 9.9116,-0.9275 15.6827,1.4431 21.7227,5.5987 5.1534,7.5132 11.791,4.8084 7.4299,-1.3107 -6.0706,-8.5176 -18.854,-19.656 -29.1526,-19.656 0,4.269 0,11.099 0,15.368"
         style="fill:#795e21;fill-opacity:1;fill-rule:evenodd;stroke:none"
         id="path3630"
         inkscape:connector-curvature="0" />
      <path
         d="m 339.0058,388.9823 v 0 c 33.0757,0 60.1373,-23.5956 60.1373,-52.4345 l -0.32328,-69.20276 -120.2746,-0.32328 0.32328,69.52604 c 0.13409,28.83909 27.0612,52.4345 60.1373,52.4345"
         style="fill:#333300;fill-opacity:1;fill-rule:evenodd;stroke:none"
         id="path3632"
         inkscape:connector-curvature="0"
         sodipodi:nodetypes="ccsccsc" />
      <path
         d="m 342.2659,388.9823 v 0 c 28.0162,0 50.9377,-22.3509 50.9377,-49.6687 v -66.93221 l -103.1688,-0.64656 1.2931,67.57877 c 0.52263,27.3131 22.9218,49.6687 50.938,49.6687"
         style="fill:#c08a44;fill-opacity:1;fill-rule:evenodd;stroke:none"
         id="path3634"
         inkscape:connector-curvature="0"
         sodipodi:nodetypes="ccsccsc" />
      <g
         id="g3636">
        <path
           d="m 344.9203,386.7514 v 0 c 23.3778,0 42.504,-21.7582 42.504,-48.3511 v -50.9956 h -20.2144 v 50.9956 c 0,25.9064 -2.7468,47.2212 -24.0908,48.3046 0.5978,0.0286 1.1977,0.0465 1.8012,0.0465"
           style="fill:#ffff99;fill-opacity:0.5;fill-rule:evenodd;stroke:none"
           id="path3638"
           inkscape:connector-curvature="0" />
      </g>
      <g
         id="g3640">
        <path
           d="m 341.318,386.7514 v 0 c -23.3779,0 -42.5041,-21.7582 -42.5041,-48.3511 l -0.64655,-65.86629 5.7795,-0.32328 0.64655,66.18957 c 0.25305,25.90516 17.1817,47.2212 38.5257,48.3046 -0.5978,0.0286 -1.1976,0.0465 -1.8011,0.0465"
           style="fill:#ffff99;fill-opacity:0.25;fill-rule:evenodd;stroke:none"
           id="path3642"
           inkscape:connector-curvature="0"
           sodipodi:nodetypes="ccsccscc" />
      </g>
      <path
         d="m 367.0376,305.1434 h 20.6042 l 0.32839,-17.8124 -21.29657,-1e-5 z"
         style="fill:#c08a44;fill-opacity:1;fill-rule:evenodd;stroke:none"
         id="path3648"
         inkscape:connector-curvature="0"
         sodipodi:nodetypes="ccccc" />
      <path
         d="m 316.7501,290.7269 h 18.5085 l 0.45272,-3.69771 -18.74815,0.45271 z"
         style="fill:#c08a44;fill-opacity:1;fill-rule:evenodd;stroke:none"
         id="path3650"
         inkscape:connector-curvature="0"
         sodipodi:nodetypes="ccccc" />
      <path
         d="m 285.6447,351.4581 c -14.3561,-1.891 -17.8948,0.8115 -26.6434,9.286 -6.6617,5.7314 -17.0796,2.3479 -10.7617,-10.1327 8.7936,-17.3719 22.4889,-30.4946 37.4051,-30.4946 0,8.7061 0,22.6352 0,31.3413"
         style="fill:#333300;fill-opacity:1;fill-rule:evenodd;stroke:none"
         id="path3652"
         inkscape:connector-curvature="0" />
      <path
         d="m 285.5526,347.0519 c -11.0081,-1.0301 -17.4175,1.6024 -24.1263,6.2181 -5.7237,8.3446 -13.0955,5.3405 -8.2519,-1.4556 6.7425,-9.4601 20.9401,-21.8313 32.3782,-21.8313 0,4.7415 0,12.3276 0,17.0688"
         style="fill:#c08a44;fill-opacity:1;fill-rule:evenodd;stroke:none"
         id="path3654"
         inkscape:connector-curvature="0" />
    </g>
    <g
       id="g3670"
       transform="matrix(-0.20855593,0,0,-0.35277777,247.13112,250.06404)">
      <path
         d="m 540.1154,349.4061 c -11.655,0 -21.1034,-12.6811 -21.1034,-28.3232 0,-15.6425 9.4484,-28.3235 21.1034,-28.3235 11.6546,0 21.1031,12.681 21.1031,28.3235 0,15.6421 -9.4485,28.3232 -21.1031,28.3232"
         style="fill:#333300;fill-opacity:1;fill-rule:evenodd;stroke:none"
         id="path3672"
         inkscape:connector-curvature="0" />
      <path
         d="m 538.3857,341.2032 c -9.8873,0 -17.9025,-8.5924 -17.9025,-19.1911 0,-10.5991 8.0152,-19.1914 17.9025,-19.1914 9.8872,0 17.9027,8.5923 17.9027,19.1914 0,10.5987 -8.0155,19.1911 -17.9027,19.1911"
         style="fill:#b3b3b3;fill-opacity:1;fill-rule:evenodd;stroke:none"
         id="path3674"
         inkscape:connector-curvature="0" />
      <path
         d="m 521.4804,325.3187 c -0.0762,-0.6713 -0.1168,-1.3547 -0.1168,-2.0481 0,-9.2089 6.9639,-16.6742 15.5546,-16.6742 8.5907,0 15.5548,7.4653 15.5548,16.6742 0,3.788 -1.1792,7.2803 -3.164,10.0798 z"
         style="fill:#ffffff;fill-opacity:1;fill-rule:evenodd;stroke:none"
         id="path3676"
         inkscape:connector-curvature="0" />
    </g>
    <g
       id="g3678"
       transform="matrix(-0.20855593,0,0,-0.35277777,247.13112,250.06404)">
      <path
         d="m 479.9937,349.4061 c 16.6019,0 30.0608,-12.6811 30.0608,-28.3232 0,-15.6425 -13.4589,-28.3235 -30.0608,-28.3235 -16.6017,0 -30.0606,12.681 -30.0606,28.3235 0,15.6421 13.4589,28.3232 30.0606,28.3232"
         style="fill:#333300;fill-opacity:1;fill-rule:evenodd;stroke:none"
         id="path3680"
         inkscape:connector-curvature="0" />
      <path
         d="m 482.4575,341.2032 c 14.084,0 25.5016,-8.5924 25.5016,-19.1911 0,-10.5991 -11.4176,-19.1914 -25.5016,-19.1914 -14.0839,0 -25.5016,8.5923 -25.5016,19.1914 0,10.5987 11.4177,19.1911 25.5016,19.1911"
         style="fill:#b3b3b3;fill-opacity:1;fill-rule:evenodd;stroke:none"
         id="path3682"
         inkscape:connector-curvature="0" />
      <path
         d="m 506.5064,325.5055 c 0.1304,-0.7314 0.1984,-1.4766 0.1984,-2.2349 0,-9.2089 -9.9201,-16.6742 -22.157,-16.6742 -12.2372,0 -22.157,7.4653 -22.157,16.6742 0,4.3575 2.2221,8.324 5.8592,11.2947 z"
         style="fill:#ffffff;fill-opacity:1;fill-rule:evenodd;stroke:none"
         id="path3684"
         inkscape:connector-curvature="0" />
    </g>
    <g
       id="g3686"
       transform="matrix(-0.20855593,0,0,-0.35277777,247.13112,233.22692)">
      <path
         d="m 529.7494,280.1208 c -2.1836,0 -3.9535,-2.3757 -3.9535,-5.3064 0,-2.9305 1.7699,-5.3062 3.9535,-5.3062 2.1835,0 3.9537,2.3757 3.9537,5.3062 0,2.9307 -1.7702,5.3064 -3.9537,5.3064"
         style="fill:#333300;fill-opacity:1;fill-rule:evenodd;stroke:none"
         id="path3688"
         inkscape:connector-curvature="0" />
      <path
         d="m 531.5275,280.489 c -1.1826,0 -2.1415,-1.2869 -2.1415,-2.8743 0,-1.5874 0.9589,-2.8743 2.1415,-2.8743 1.1829,0 2.1416,1.2869 2.1416,2.8743 0,1.5874 -0.9587,2.8743 -2.1416,2.8743"
         style="fill:#ffffff;fill-opacity:1;fill-rule:evenodd;stroke:none"
         id="path3690"
         inkscape:connector-curvature="0" />
    </g>
    <g
       id="g3692"
       transform="matrix(-0.20855593,0,0,-0.35277777,247.13112,233.22692)">
      <path
         d="m 493.7593,280.8034 c 3.5249,0 6.3822,-2.6923 6.3822,-6.0134 0,-3.3211 -2.8573,-6.0134 -6.3822,-6.0134 -3.5246,0 -6.3822,2.6923 -6.3822,6.0134 0,3.3211 2.8576,6.0134 6.3822,6.0134"
         style="fill:#333300;fill-opacity:1;fill-rule:evenodd;stroke:none"
         id="path3694"
         inkscape:connector-curvature="0" />
      <path
         d="m 496.7152,280.444 c 1.6818,0 3.045,-1.2844 3.045,-2.869 0,-1.5845 -1.3632,-2.8689 -3.045,-2.8689 -1.6818,0 -3.0449,1.2844 -3.0449,2.8689 0,1.5846 1.3631,2.869 3.0449,2.869"
         style="fill:#ffffff;fill-opacity:1;fill-rule:evenodd;stroke:none"
         id="path3696"
         inkscape:connector-curvature="0" />
    </g>
    <path
       d="m 130.13452,129.431 9.05083,4.41889 0.5777,-8.59969 -8.85817,-0.55221 z"
       style="fill:#333300;fill-opacity:1;fill-rule:evenodd;stroke:none;stroke-width:0.21699609"
       id="path3698"
       inkscape:connector-curvature="0" />
    <path
       d="m 152.23895,129.42331 -10.30154,4.12669 -0.65753,-8.0312 10.08222,-0.51569 z"
       style="fill:#333300;fill-opacity:1;fill-rule:evenodd;stroke:none;stroke-width:0.21699609"
       id="path3700"
       inkscape:connector-curvature="0" />
    <path
       d="m 144.81671,154.02746 -8.74627,-0.17694 c 0.16625,-1.81902 0.39962,-6.33413 1.60874,-8.02625 l 5.54969,-0.1386 c 1.43273,1.84524 1.81118,4.78199 1.58784,8.34177 z"
       style="fill:#333300;fill-opacity:1;fill-rule:evenodd;stroke:none;stroke-width:0.31760013"
       id="path3700-0"
       inkscape:connector-curvature="0"
       sodipodi:nodetypes="ccccc" />
  </g>
</svg>
