<?xml version="1.0" encoding="UTF-8" standalone="no"?>
<!-- Created with Inkscape (http://www.inkscape.org/) -->

<svg
   xmlns:dc="http://purl.org/dc/elements/1.1/"
   xmlns:cc="http://creativecommons.org/ns#"
   xmlns:rdf="http://www.w3.org/1999/02/22-rdf-syntax-ns#"
   xmlns:svg="http://www.w3.org/2000/svg"
   xmlns="http://www.w3.org/2000/svg"
   xmlns:sodipodi="http://sodipodi.sourceforge.net/DTD/sodipodi-0.dtd"
   xmlns:inkscape="http://www.inkscape.org/namespaces/inkscape"
   width="30.206385mm"
   height="28.460629mm"
   viewBox="0 0 30.206385 28.460629"
   version="1.1"
   id="svg29317"
   sodipodi:docname="robotBody.svg"
   inkscape:version="0.92.3 (2405546, 2018-03-11)">
  <defs
     id="defs29311" />
  <sodipodi:namedview
     id="base"
     pagecolor="#ffffff"
     bordercolor="#666666"
     borderopacity="1.0"
     inkscape:pageopacity="0.0"
     inkscape:pageshadow="2"
     inkscape:zoom="0.35"
     inkscape:cx="-1356.1646"
     inkscape:cy="-239.79059"
     inkscape:document-units="mm"
     inkscape:current-layer="layer1"
     showgrid="false"
     inkscape:pagecheckerboard="true"
     inkscape:snap-global="false"
     inkscape:window-width="1280"
     inkscape:window-height="737"
     inkscape:window-x="-8"
     inkscape:window-y="-8"
     inkscape:window-maximized="1"
     fit-margin-top="0"
     fit-margin-left="0"
     fit-margin-right="0"
     fit-margin-bottom="0" />
  <metadata
     id="metadata29314">
    <rdf:RDF>
      <cc:Work
         rdf:about="">
        <dc:format>image/svg+xml</dc:format>
        <dc:type
           rdf:resource="http://purl.org/dc/dcmitype/StillImage" />
        <dc:title></dc:title>
      </cc:Work>
    </rdf:RDF>
  </metadata>
  <g
     inkscape:label="Layer 1"
     inkscape:groupmode="layer"
     id="layer1"
     transform="translate(-128.42424,-175.5313)">
    <g
       id="g3602"
       transform="matrix(-0.35277777,0,0,-0.35277777,262.22484,265.69851)">
      <path
         d="m 336.4651,255.5921 c 23.6449,0 42.8122,-18.0598 42.8122,-40.3379 0,-22.278 -19.1673,-40.3379 -42.8122,-40.3379 -23.6447,0 -42.8122,18.0599 -42.8122,40.3379 0,22.2781 19.1675,40.3379 42.8122,40.3379"
         style="fill:#333300;fill-opacity:1;fill-rule:evenodd;stroke:none"
         id="path3604"
         inkscape:connector-curvature="0" />
      <path
         d="m 339.5449,250.3684 c 20.2425,0 36.6523,-15.461 36.6523,-34.5339 0,-19.0727 -16.4098,-34.5337 -36.6523,-34.5337 -20.2428,0 -36.6522,15.461 -36.6522,34.5337 0,19.0729 16.4094,34.5339 36.6522,34.5339"
         style="fill:#c08a44;fill-opacity:1;fill-rule:evenodd;stroke:none"
         id="path3606"
         inkscape:connector-curvature="0" />
      <g
         id="g3608">
        <path
           d="m 336.4651,255.5921 c 23.6449,0 42.8122,-18.0598 42.8122,-40.3379 -50.512,21.3656 -85.6244,-15.1265 -85.6244,0 0,22.2781 19.1675,40.3379 42.8122,40.3379"
           style="fill:#333300;fill-opacity:0.5;fill-rule:evenodd;stroke:none"
           id="path3610"
           inkscape:connector-curvature="0" />
      </g>
      <g
         id="g3612">
        <path
           d="m 337.7849,184.5054 v 0 c 17.2423,0 31.1043,5.8813 35.905,25.4917 1.7895,7.6702 -13.6956,9.2987 -14.9085,4.3438 -4.6772,-19.1064 -6.3788,-29.0024 -22.316,-29.8009 0.4356,-0.0213 0.8747,-0.0346 1.3195,-0.0346"
           style="fill:#ffff99;fill-opacity:0.5;fill-rule:evenodd;stroke:none"
           id="path3614"
           inkscape:connector-curvature="0" />
      </g>
    </g>
  </g>
</svg>
