<?xml version="1.0" encoding="UTF-8" standalone="no"?>
<!-- Creator: CorelDRAW X7 -->

<svg
   xmlns:dc="http://purl.org/dc/elements/1.1/"
   xmlns:cc="http://creativecommons.org/ns#"
   xmlns:rdf="http://www.w3.org/1999/02/22-rdf-syntax-ns#"
   xmlns:svg="http://www.w3.org/2000/svg"
   xmlns="http://www.w3.org/2000/svg"
   xmlns:xlink="http://www.w3.org/1999/xlink"
   xmlns:sodipodi="http://sodipodi.sourceforge.net/DTD/sodipodi-0.dtd"
   xmlns:inkscape="http://www.inkscape.org/namespaces/inkscape"
   xml:space="preserve"
   width="151.72mm"
   height="86.690002mm"
   version="1.1"
   style="clip-rule:evenodd;fill-rule:evenodd;image-rendering:optimizeQuality;shape-rendering:geometricPrecision;text-rendering:geometricPrecision"
   viewBox="0 0 15172 8669.0002"
   id="svg24384"
   sodipodi:docname="BackGround.svg"
   inkscape:version="0.92.3 (2405546, 2018-03-11)"><metadata
   id="metadata24388"><rdf:RDF><cc:Work
       rdf:about=""><dc:format>image/svg+xml</dc:format><dc:type
         rdf:resource="http://purl.org/dc/dcmitype/StillImage" /><dc:title></dc:title></cc:Work></rdf:RDF></metadata><sodipodi:namedview
   pagecolor="#ffffff"
   bordercolor="#666666"
   borderopacity="1"
   objecttolerance="10"
   gridtolerance="10"
   guidetolerance="10"
   inkscape:pageopacity="0"
   inkscape:pageshadow="2"
   inkscape:window-width="1280"
   inkscape:window-height="737"
   id="namedview24386"
   showgrid="false"
   inkscape:pagecheckerboard="true"
   fit-margin-top="0"
   fit-margin-left="0"
   fit-margin-right="0"
   fit-margin-bottom="0"
   inkscape:zoom="0.51"
   inkscape:cx="537.30894"
   inkscape:cy="6.0756957"
   inkscape:window-x="-8"
   inkscape:window-y="-8"
   inkscape:window-maximized="1"
   inkscape:current-layer="Layer_x0020_1" />
 <defs
   id="defs22479">
  <style
   type="text/css"
   id="style22442">
   <![CDATA[
    .str1 {stroke:#74402D;stroke-width:20}
    .str0 {stroke:#43241A;stroke-width:47.44}
    .fil10 {fill:none}
    .fil16 {fill:black}
    .fil41 {fill:black}
    .fil27 {fill:#070605}
    .fil68 {fill:#0D1516}
    .fil18 {fill:#130A06}
    .fil66 {fill:#193439}
    .fil9 {fill:#1E1108}
    .fil5 {fill:#1E383D}
    .fil25 {fill:#1E383D}
    .fil3 {fill:#23140A}
    .fil8 {fill:#29170B}
    .fil6 {fill:#2B5158}
    .fil7 {fill:#326169}
    .fil21 {fill:#336068}
    .fil24 {fill:#396C75}
    .fil0 {fill:#3B2110}
    .fil26 {fill:#3B3125}
    .fil29 {fill:#3B3329}
    .fil20 {fill:#407983}
    .fil15 {fill:#43241A}
    .fil22 {fill:#478590}
    .fil45 {fill:#4D4D4D}
    .fil2 {fill:#50301D}
    .fil19 {fill:#508A94}
    .fil28 {fill:#564D42}
    .fil30 {fill:#564F48}
    .fil23 {fill:#5796A1}
    .fil13 {fill:#5A3124}
    .fil42 {fill:#666666}
    .fil1 {fill:#6C432D}
    .fil14 {fill:#74402D}
    .fil44 {fill:gray}
    .fil11 {fill:#8E4E35}
    .fil17 {fill:#A05B42}
    .fil46 {fill:#B3B3B3}
    .fil40 {fill:#C4A141}
    .fil39 {fill:#C4A141}
    .fil58 {fill:#D5EAFF}
    .fil32 {fill:#EFD484}
    .fil31 {fill:#F2E4BA}
    .fil33 {fill:#F2EAD2}
    .fil35 {fill:#FCE18B}
    .fil38 {fill:#FCE18B}
    .fil53 {fill:#FFE27D}
    .fil50 {fill:#FFE697}
    .fil34 {fill:#FFF2C4}
    .fil49 {fill:#FFF2CB}
    .fil36 {fill:#FFF7DD}
    .fil37 {fill:#FFFBEF}
    .fil52 {fill:white}
    .fil57 {fill:white}
    .fil48 {fill:black;fill-rule:nonzero}
    .fil12 {fill:#43241A;fill-rule:nonzero}
    .fil51 {fill:#FFD83F;fill-rule:nonzero}
    .fil55 {fill:white;fill-opacity:0.050980}
    .fil4 {fill:black;fill-opacity:0.200000}
    .fil61 {fill:url(#id1)}
    .fil65 {fill:url(#id2)}
    .fil64 {fill:url(#id3)}
    .fil62 {fill:url(#id4)}
    .fil60 {fill:url(#id5)}
    .fil63 {fill:url(#id6)}
    .fil43 {fill:url(#id7)}
    .fil67 {fill:url(#id8)}
    .fil54 {fill:url(#id9)}
    .fil59 {fill:url(#id10)}
    .fil47 {fill:url(#id11)}
    .fil56 {fill:url(#id12)}
   ]]>
  </style>
    <clipPath
   id="id0">
     <path
   d="m 7442,793 h 613 v 613 h -613 z"
   id="path22444"
   inkscape:connector-curvature="0" />
    </clipPath>
  <linearGradient
   id="id1"
   gradientUnits="userSpaceOnUse"
   x1="7510.4102"
   y1="10062.9"
   x2="7512.5698"
   y2="10339">
   <stop
   offset="0"
   style="stop-opacity:1; stop-color:#ABD7FF"
   id="stop22447" />
   <stop
   offset="1"
   style="stop-opacity:1; stop-color:#D5EAFF"
   id="stop22449" />
  </linearGradient>
  <linearGradient
   id="id2"
   gradientUnits="userSpaceOnUse"
   xlink:href="#id1"
   x1="6849.6602"
   y1="9078.2803"
   x2="6851.3501"
   y2="9295.1904">
  </linearGradient>
  <linearGradient
   id="id3"
   gradientUnits="userSpaceOnUse"
   xlink:href="#id1"
   x1="6525.9502"
   y1="10380.6"
   x2="6527.0298"
   y2="10518.7">
  </linearGradient>
  <linearGradient
   id="id4"
   gradientUnits="userSpaceOnUse"
   xlink:href="#id1"
   x1="8083.1499"
   y1="8603.5498"
   x2="8084.3101"
   y2="8751.4404">
  </linearGradient>
  <linearGradient
   id="id5"
   gradientUnits="userSpaceOnUse"
   xlink:href="#id1"
   x1="8293.2695"
   y1="11186.3"
   x2="8299.1504"
   y2="11935.7">
  </linearGradient>
  <linearGradient
   id="id6"
   gradientUnits="userSpaceOnUse"
   xlink:href="#id1"
   x1="9519.0703"
   y1="10686.6"
   x2="9520.46"
   y2="10864">
  </linearGradient>
  <linearGradient
   id="id7"
   gradientUnits="userSpaceOnUse"
   x1="8817.7002"
   y1="4060.9399"
   x2="8779.0098"
   y2="3628.3899">
   <stop
   offset="0"
   style="stop-opacity:1; stop-color:#666666"
   id="stop22457" />
   <stop
   offset="1"
   style="stop-opacity:1; stop-color:#999999"
   id="stop22459" />
  </linearGradient>
  <linearGradient
   id="id8"
   gradientUnits="userSpaceOnUse"
   x1="9562.2803"
   y1="12575"
   x2="9562.29"
   y2="15291.7">
   <stop
   offset="0"
   style="stop-opacity:1; stop-color:#162A2D"
   id="stop22462" />
   <stop
   offset="1"
   style="stop-opacity:1; stop-color:#0D1516"
   id="stop22464" />
  </linearGradient>
  <linearGradient
   id="id9"
   gradientUnits="userSpaceOnUse"
   x1="9357.2305"
   y1="6192.1001"
   x2="9357.2305"
   y2="13608.9">
   <stop
   offset="0"
   style="stop-opacity:1; stop-color:#1A1A1A"
   id="stop22467" />
   <stop
   offset="1"
   style="stop-opacity:1; stop-color:#1B393E"
   id="stop22469" />
  </linearGradient>
  <linearGradient
   id="id10"
   gradientUnits="userSpaceOnUse"
   xlink:href="#id1"
   x1="9692.5898"
   y1="9053.4297"
   x2="9695.8604"
   y2="9470.8096">
  </linearGradient>
  <linearGradient
   id="id11"
   gradientUnits="userSpaceOnUse"
   xlink:href="#id7"
   x1="9576.0303"
   y1="4060.9299"
   x2="9664.3799"
   y2="3477.49">
  </linearGradient>
  <radialGradient
   id="id12"
   gradientUnits="userSpaceOnUse"
   gradientTransform="matrix(1.51755,1.07187,-1.07185,1.51739,6004,-12875)"
   cx="7548.3701"
   cy="9246.1104"
   r="1563.34"
   fx="7548.3701"
   fy="9246.1104">
   <stop
   offset="0"
   style="stop-opacity:1; stop-color:#F1F8FF"
   id="stop22474" />
   <stop
   offset="1"
   style="stop-opacity:1; stop-color:#D5EAFF"
   id="stop22476" />
  </radialGradient>
 <linearGradient
   inkscape:collect="always"
   xlink:href="#id1"
   id="linearGradient24390"
   gradientUnits="userSpaceOnUse"
   x1="7510.4102"
   y1="10062.9"
   x2="7512.5698"
   y2="10339" /></defs>
 <g
   id="Layer_x0020_1"
   transform="translate(-625,-6930)">
  <metadata
   id="CorelCorpID_0Corel-Layer" />
  
  
  
  
  
  
  
  
  
  
  
  
  
  
  
  
  
  
  
  
  
  
  
  
  
  
  
  
  
  
  <g
   id="g24381">
   <polygon
   class="fil54"
   points="15797,15599 625,15599 625,6930 15797,6930 "
   id="polygon24334"
   style="fill:url(#id9)" />
   <g
   id="_1255857792">
    <path
   class="fil55"
   d="m 8211,7180 c 2477,0 4485,1367 4485,3053 0,1687 -2008,3054 -4485,3054 -2477,0 -4485,-1367 -4485,-3054 0,-1686 2008,-3053 4485,-3053 z"
   id="path24336"
   inkscape:connector-curvature="0"
   style="fill:#ffffff;fill-opacity:0.05098003" />
    <path
   class="fil55"
   d="m 8211,7457 c 2023,0 3662,1243 3662,2776 0,1534 -1639,2777 -3662,2777 -2022,0 -3661,-1243 -3661,-2777 0,-1533 1639,-2776 3661,-2776 z"
   id="path24338"
   inkscape:connector-curvature="0"
   style="fill:#ffffff;fill-opacity:0.05098003" />
    <path
   class="fil55"
   d="m 8211,7746 c 1650,0 2987,1114 2987,2487 0,1374 -1337,2488 -2987,2488 -1649,0 -2986,-1114 -2986,-2488 0,-1373 1337,-2487 2986,-2487 z"
   id="path24340"
   inkscape:connector-curvature="0"
   style="fill:#ffffff;fill-opacity:0.05098003" />
    <path
   class="fil56"
   d="m 8183,7933 c 1251,0 2265,1014 2265,2264 0,1251 -1014,2265 -2265,2265 -1251,0 -2265,-1014 -2265,-2265 0,-1250 1014,-2264 2265,-2264 z"
   id="path24342"
   inkscape:connector-curvature="0"
   style="fill:url(#id12)" />
    <path
   class="fil57"
   d="m 7520,9997 c 109,0 198,89 198,199 0,109 -89,198 -198,198 -110,0 -199,-89 -199,-198 0,-110 89,-199 199,-199 z"
   id="path24344"
   inkscape:connector-curvature="0"
   style="fill:#ffffff" />
    <path
   class="fil58"
   d="m 9549,10176 c -259,967 -1141,1679 -2189,1679 -319,0 -622,-66 -898,-185 416,485 1032,792 1721,792 1191,0 2168,-920 2258,-2089 4,-58 7,-117 7,-176 0,-248 -41,-488 -115,-712 -201,-607 -651,-1100 -1230,-1358 -7,-2 -14,-4 -20,-7 284,333 474,749 527,1206 10,87 15,175 15,265 0,202 -26,399 -76,585 z"
   id="path24346"
   inkscape:connector-curvature="0"
   style="fill:#d5eaff" />
    <path
   class="fil57"
   d="m 9698,8963 c 157,0 285,128 285,285 0,158 -128,286 -285,286 -158,0 -286,-128 -286,-286 0,-157 128,-285 286,-285 z"
   id="path24348"
   inkscape:connector-curvature="0"
   style="fill:#ffffff" />
    <path
   class="fil57"
   d="m 8089,8577 c 56,0 101,46 101,101 0,56 -45,101 -101,101 -56,0 -101,-45 -101,-101 0,-55 45,-101 101,-101 z"
   id="path24350"
   inkscape:connector-curvature="0"
   style="fill:#ffffff" />
    <path
   class="fil57"
   d="m 9525,10653 c 67,0 121,55 121,122 0,67 -54,121 -121,121 -67,0 -122,-54 -122,-121 0,-67 55,-122 122,-122 z"
   id="path24352"
   inkscape:connector-curvature="0"
   style="fill:#ffffff" />
    <path
   class="fil57"
   d="m 6532,10357 c 52,0 94,42 94,94 0,52 -42,94 -94,94 -53,0 -95,-42 -95,-94 0,-52 42,-94 95,-94 z"
   id="path24354"
   inkscape:connector-curvature="0"
   style="fill:#ffffff" />
    <path
   class="fil57"
   d="m 6855,9036 c 82,0 148,66 148,148 0,82 -66,148 -148,148 -82,0 -148,-66 -148,-148 0,-82 66,-148 148,-148 z"
   id="path24356"
   inkscape:connector-curvature="0"
   style="fill:#ffffff" />
    <path
   class="fil57"
   d="m 8299,11008 c 287,0 520,238 520,532 0,293 -233,531 -520,531 -287,0 -519,-238 -519,-531 0,-294 232,-532 519,-532 z"
   id="path24358"
   inkscape:connector-curvature="0"
   style="fill:#ffffff" />
    <path
   class="fil59"
   d="m 9692,8954 c 157,0 285,128 285,286 0,157 -128,285 -285,285 -158,0 -286,-128 -286,-285 0,-158 128,-286 286,-286 z"
   id="path24360"
   inkscape:connector-curvature="0"
   style="fill:url(#id10)" />
    <path
   class="fil60"
   d="m 8292,11008 c 283,0 512,230 512,513 0,283 -229,512 -512,512 -283,0 -512,-229 -512,-512 0,-283 229,-513 512,-513 z"
   id="path24362"
   inkscape:connector-curvature="0"
   style="fill:url(#id5)" />
    <path
   class="fil61"
   d="m 7510,9997 c 104,0 189,85 189,189 0,104 -85,189 -189,189 -104,0 -189,-85 -189,-189 0,-104 85,-189 189,-189 z"
   id="path24364"
   inkscape:connector-curvature="0"
   style="fill:url(#linearGradient24390)" />
    <path
   class="fil62"
   d="m 8083,8568 c 56,0 101,46 101,102 0,55 -45,101 -101,101 -56,0 -101,-46 -101,-101 0,-56 45,-102 101,-102 z"
   id="path24366"
   inkscape:connector-curvature="0"
   style="fill:url(#id4)" />
    <path
   class="fil63"
   d="m 9519,10644 c 67,0 121,55 121,122 0,67 -54,121 -121,121 -67,0 -122,-54 -122,-121 0,-67 55,-122 122,-122 z"
   id="path24368"
   inkscape:connector-curvature="0"
   style="fill:url(#id6)" />
    <path
   class="fil64"
   d="m 6526,10348 c 52,0 94,42 94,94 0,52 -42,95 -94,95 -52,0 -95,-43 -95,-95 0,-52 43,-94 95,-94 z"
   id="path24370"
   inkscape:connector-curvature="0"
   style="fill:url(#id3)" />
    <path
   class="fil65"
   d="m 6849,9027 c 82,0 149,66 149,148 0,82 -67,148 -149,148 -82,0 -148,-66 -148,-148 0,-82 66,-148 148,-148 z"
   id="path24372"
   inkscape:connector-curvature="0"
   style="fill:url(#id2)" />
   </g>
   <path
   class="fil66"
   d="m 15532,11606 -31,-9 c -5,19 -7,24 -12,45 -17,-4 -30,-8 -50,-13 -5,18 -5,17 -9,32 l 50,14 -28,103 c -122,4 -240,9 -354,15 h -15 l 1,-32 -9,-5 h 9 l 1,-61 v -25 l -6,-9 6,-11 v -3 c 1,-58 -46,-107 -104,-108 v 0 c -59,-1 -107,46 -108,105 v 17 l -1,30 -1,99 -22,-1 v 19 c -166,11 -324,25 -474,40 l -29,-108 68,-18 c -6,-21 -6,-20 -12,-45 -28,8 -45,12 -68,18 -8,-29 -9,-35 -16,-61 l -44,12 17,61 -57,15 v 3 l -7,6 10,38 66,-18 27,101 c -411,42 -769,96 -1105,153 l -1,-15 -2,-1 -5,-10 -21,2 -3,-25 -7,-3 7,-1 -5,-48 -2,-19 -6,-7 4,-9 v -3 c -5,-45 -46,-79 -92,-74 v 0 c -46,5 -80,46 -75,92 l 2,13 2,24 8,78 -17,1 5,41 c -219,38 -431,77 -644,114 -98,16 -193,30 -285,42 l 13,-136 70,7 c 2,-21 2,-21 4,-46 -29,-2 -46,-4 -70,-6 3,-31 4,-37 6,-64 l -44,-4 -6,63 -59,-5 -1,2 -9,4 -3,39 67,6 -13,145 c -278,32 -530,40 -767,31 l 1,-23 -3,-2 -4,-14 h -27 v -32 l -8,-5 h 9 v -62 l 1,-24 -6,-9 6,-11 v -3 c 1,-58 -46,-107 -104,-108 v 0 c -59,-1 -107,46 -108,105 l -1,17 v 30 l -1,99 -22,-1 v 27 c -145,-13 -284,-32 -421,-54 l 4,-31 -2,-1 -3,-11 -21,-3 3,-25 -6,-4 h 7 l 5,-48 2,-19 -4,-8 6,-8 v -2 c 5,-46 -28,-88 -74,-93 v 0 c -46,-5 -87,28 -92,74 l -2,13 -3,24 -8,77 -17,-2 -4,30 c -254,-48 -504,-106 -769,-161 l -21,-121 69,-12 c -4,-21 -3,-20 -8,-45 -28,5 -46,8 -69,12 -5,-30 -6,-36 -11,-63 l -44,8 11,63 -58,10 -1,2 -7,6 7,39 67,-12 17,103 c -211,-44 -432,-85 -671,-119 l 2,-22 -2,-2 -2,-11 -21,-2 3,-26 -7,-4 h 7 l 6,-48 2,-19 -5,-8 6,-8 1,-2 c 5,-46 -28,-87 -74,-93 v 0 c -46,-5 -88,28 -93,74 l -1,14 -3,23 -9,78 -17,-2 -3,31 c -149,-17 -305,-30 -470,-38 -106,1 -210,3 -311,6 l 26,-94 48,13 7,-27 -5,-5 v -2 l -42,-11 12,-45 -31,-9 c -6,19 -7,24 -12,45 -17,-4 -30,-8 -50,-13 -5,18 -5,17 -9,32 l 50,14 -28,103 c -122,4 -240,9 -354,15 h -15 l 1,-32 -9,-5 h 9 l 1,-61 v -25 l -6,-9 6,-11 v -3 c 1,-58 -46,-107 -104,-108 v 0 c -59,-1 -107,46 -108,105 v 17 l -1,30 -1,99 -22,-1 v 19 c -166,11 -324,25 -474,40 l -29,-108 68,-18 c -6,-21 -6,-20 -12,-45 -28,8 -45,12 -68,18 -8,-29 -9,-35 -16,-61 l -44,12 17,61 -57,15 v 3 l -7,6 10,38 66,-18 26,101 c -410,42 -768,96 -1104,153 l -1,-15 -2,-1 -5,-10 -21,2 -3,-25 -7,-3 7,-1 -5,-48 -2,-19 -6,-7 4,-9 v -3 c -5,-45 -47,-79 -92,-74 v 0 c -46,5 -80,46 -75,92 l 1,13 3,24 8,78 -17,1 4,41 c -218,38 -430,77 -643,114 -98,16 -193,30 -285,42 l 13,-136 70,7 c 2,-21 2,-21 4,-46 -29,-2 -46,-4 -70,-6 3,-31 4,-37 6,-64 l -45,-4 -6,63 -58,-5 -1,2 -9,4 -3,39 67,6 -14,145 c -277,32 -529,40 -766,31 l 1,-23 -3,-2 -4,-14 h -27 v -32 l -8,-5 h 8 l 1,-62 1,-24 -6,-9 6,-11 v -3 c 1,-58 -46,-107 -104,-108 v 0 c -59,-1 -107,46 -108,105 l -1,17 v 30 l -2,99 -21,-1 -1,27 c -144,-13 -283,-32 -420,-54 l 3,-31 -1,-1 -3,-11 -21,-3 3,-25 -6,-4 h 6 l 6,-48 2,-19 -4,-8 6,-8 v -2 c 5,-46 -28,-88 -74,-93 v 0 c -46,-5 -87,28 -93,74 l -1,13 -3,24 -8,77 -17,-2 -4,30 c -254,-48 -505,-106 -769,-161 l -21,-121 69,-12 c -4,-21 -4,-20 -8,-45 -29,5 -46,8 -69,12 -5,-30 -6,-36 -11,-63 l -44,8 11,63 -59,10 v 2 l -7,6 7,39 67,-12 17,103 c -211,-44 -433,-85 -672,-119 l 3,-22 -2,-2 -2,-11 -21,-2 3,-26 -7,-4 h 7 l 5,-48 3,-19 -5,-8 6,-8 1,-2 c 5,-46 -28,-87 -74,-93 v 0 c -46,-5 -88,28 -93,74 l -2,14 -2,23 -9,78 -17,-2 -3,31 c -149,-17 -305,-30 -470,-38 v 3795 c 2543,0 5033,0 7586,0 2543,0 5033,0 7586,0 v -2918 -877 c -106,1 -210,3 -310,6 l 25,-94 48,13 7,-27 -5,-5 v -2 l -42,-11 z"
   id="path24375"
   inkscape:connector-curvature="0"
   style="fill:#193439" />
   <path
   class="fil67"
   d="m 8948,12910 c 370,-63 738,-130 1114,-197 l 1,-58 31,1 3,-143 v -44 l 1,-24 c 1,-85 71,-153 156,-152 v 0 c 84,2 152,72 151,156 v 5 l -10,15 10,14 -1,35 -1,89 h -13 l 12,7 v 40 c 312,-55 633,-108 969,-159 l 31,-116 -72,-19 c 6,-22 5,-22 12,-47 30,8 48,12 72,19 9,-31 10,-37 18,-65 l 46,12 -18,65 61,16 v 3 l 7,7 -11,40 -69,-19 -26,96 c 219,-32 445,-64 678,-94 l 1,-55 h 31 l 3,-142 v -44 l 1,-25 c 1,-84 71,-152 156,-151 v 0 c 84,1 152,72 151,156 v 4 l -10,16 9,14 v 35 l -1,88 -13,1 12,7 v 46 l 39,1 1,3 c 330,-38 677,-73 1045,-102 l -48,-179 -95,25 -14,-54 9,-9 v -4 l 83,-22 -24,-89 63,-17 c 10,38 12,46 24,89 33,-9 57,-15 98,-26 9,35 9,34 17,64 l -98,26 51,191 c 282,-22 576,-41 885,-57 v -12 l 23,1 1,-103 1,-32 v -18 c 1,-61 52,-111 113,-110 v 0 c 61,1 111,52 110,113 v 3 l -7,12 6,10 v 25 l -1,64 -9,1 9,4 -1,31 c 178,-8 360,-14 547,-19 l 58,-195 -94,-28 16,-54 13,-3 2,-3 82,24 26,-89 62,19 c -11,38 -13,46 -26,88 33,10 57,17 98,29 -11,35 -10,34 -19,64 l -98,-29 -51,175 c 150,-4 303,-7 460,-9 v 2622 835 c -5105,0 -10087,0 -15172,0 v -3457 c 96,5 190,10 282,17 l 6,-52 25,3 12,-112 4,-35 2,-19 c 8,-66 68,-114 134,-107 v 0 c 67,8 115,68 107,134 v 4 l -9,11 6,12 -3,27 -8,70 -10,-1 10,6 -4,37 30,3 4,17 2,2 -3,24 c 338,31 656,71 961,117 l -15,-86 -97,17 -9,-55 10,-9 v -4 l 85,-15 -16,-90 64,-11 c 6,38 8,47 15,90 34,-6 59,-10 101,-17 6,36 6,35 11,66 l -100,17 18,108 c 382,59 741,128 1088,200 l 3,-27 25,3 12,-112 4,-34 2,-20 c 8,-66 68,-114 134,-107 v 0 c 67,8 115,68 107,135 v 3 l -9,11 6,12 -3,27 -7,70 h -10 l 9,6 -4,36 30,4 4,16 2,2 -4,38 c 219,47 434,94 647,139 l 1,-9 h 31 l 2,-142 1,-44 v -25 c 1,-85 72,-153 156,-151 v 0 c 85,1 153,71 151,156 v 4 l -9,15 9,14 -1,35 -1,89 -13,1 13,6 -1,47 h 39 l 7,21 3,2 -1,62 c 294,60 589,114 889,159 l 17,-176 -98,-10 6,-56 12,-5 1,-4 85,8 9,-91 65,6 c -4,39 -5,48 -9,91 34,4 59,6 101,10 -3,36 -3,35 -6,66 l -101,-9 -17,180 c 446,64 908,106 1407,110 l -2,-21 24,-3 -11,-112 -4,-34 -2,-20 c -7,-66 41,-126 108,-133 v 0 c 66,-7 126,42 133,108 l 1,3 -6,13 8,10 3,28 7,69 -10,2 11,4 4,37 30,-4 7,16 3,1 4,34 c 416,-9 860,-46 1342,-117 l -28,-108 -95,25 -15,-54 10,-10 v -3 l 83,-22 -24,-89 62,-17 c 11,38 13,46 24,89 33,-9 58,-16 98,-26 10,35 10,34 18,64 l -99,26 31,115 c 69,-11 138,-22 209,-34 z"
   id="path24377"
   inkscape:connector-curvature="0"
   style="fill:url(#id8)" />
   <path
   class="fil68"
   d="m 1155,12678 64,-17 c 10,39 12,47 24,90 33,-9 58,-15 99,-26 10,35 9,35 17,65 l -99,26 55,208 c 245,8 480,18 708,29 h 31 l -1,-64 17,-9 -18,-1 -1,-123 -1,-48 12,-20 -13,-21 v -6 c -2,-117 92,-214 209,-215 v 0 c 117,-2 214,92 216,209 l 1,34 v 60 l 3,197 h 44 v 37 c 332,23 647,49 948,79 l 58,-215 -136,-37 c 11,-41 11,-40 24,-89 56,15 90,24 136,37 15,-59 18,-71 33,-123 l 86,23 -33,123 115,30 v 6 l 13,13 -20,75 -131,-35 -54,201 c 821,84 1537,192 2208,306 l 3,-29 4,-3 10,-21 42,5 5,-51 15,-5 -14,-3 10,-96 4,-38 12,-14 -8,-18 v -4 c 10,-92 93,-159 184,-149 v 0 c 92,9 159,92 150,184 l -3,27 -5,47 -17,155 34,3 -8,82 c 438,77 861,154 1287,227 196,34 386,61 570,84 l -26,-270 -140,13 c -4,-42 -4,-42 -9,-92 58,-5 93,-8 140,-13 -5,-60 -6,-72 -12,-127 l 90,-8 12,127 117,-11 2,5 17,7 7,78 -135,12 28,290 c 555,64 1059,80 1532,63 v -47 l 4,-4 9,-28 h 54 l -1,-65 17,-9 -17,-1 -2,-122 -1,-49 13,-19 -13,-21 -1,-6 c -1,-117 93,-214 210,-216 v 0 c 116,-2 214,92 215,209 l 1,34 1,61 3,197 43,-1 1,53 c 288,-26 567,-63 841,-107 l -7,-61 3,-3 5,-23 42,-5 -5,-50 12,-9 -13,1 -11,-96 -4,-38 8,-16 -12,-16 -1,-5 c -10,-91 57,-175 148,-185 v 0 c 92,-10 175,56 186,148 l 3,27 5,47 18,155 33,-4 7,59 c 508,-96 1010,-212 1539,-323 l 42,-241 -138,-23 c 7,-43 7,-42 15,-91 58,10 92,16 139,24 10,-60 12,-72 22,-126 l 88,16 -22,125 117,20 v 6 l 15,11 -14,77 -133,-23 -36,206 c 423,-88 866,-171 1344,-238 l -5,-45 3,-3 5,-22 42,-5 -5,-51 12,-8 -13,1 -11,-97 -4,-38 8,-16 -12,-15 -1,-5 c -10,-92 57,-175 148,-185 v 0 c 92,-11 175,56 186,147 l 3,27 5,48 17,154 34,-4 7,64 c 298,-34 609,-61 939,-78 v 2591 c -5085,0 -10066,0 -15172,0 v -835 -1756 c 214,3 421,8 622,14 l -50,-189 -97,26 -14,-55 9,-10 1,-4 83,-22 z"
   id="path24379"
   inkscape:connector-curvature="0"
   style="fill:#0d1516" />
  </g>
 </g>
</svg>