<?xml version="1.0" encoding="UTF-8" standalone="no"?>
<!-- Created with Inkscape (http://www.inkscape.org/) -->

<svg
   xmlns:dc="http://purl.org/dc/elements/1.1/"
   xmlns:cc="http://creativecommons.org/ns#"
   xmlns:rdf="http://www.w3.org/1999/02/22-rdf-syntax-ns#"
   xmlns:svg="http://www.w3.org/2000/svg"
   xmlns="http://www.w3.org/2000/svg"
   xmlns:xlink="http://www.w3.org/1999/xlink"
   xmlns:sodipodi="http://sodipodi.sourceforge.net/DTD/sodipodi-0.dtd"
   xmlns:inkscape="http://www.inkscape.org/namespaces/inkscape"
   width="63.637592"
   height="91.490883"
   id="svg2"
   sodipodi:version="0.32"
   inkscape:version="0.92.3 (2405546, 2018-03-11)"
   sodipodi:docname="head_pirate.svg"
   inkscape:output_extension="org.inkscape.output.svg.inkscape"
   version="1.0"
   inkscape:export-filename="/home/nicu/Desktop/pacman/pacman.png"
   inkscape:export-xdpi="90"
   inkscape:export-ydpi="90">
  <defs
     id="defs4">
    <inkscape:perspective
       sodipodi:type="inkscape:persp3d"
       inkscape:vp_x="-50 : 600 : 1"
       inkscape:vp_y="0 : 1000 : 0"
       inkscape:vp_z="700 : 600 : 1"
       inkscape:persp3d-origin="300 : 400 : 1"
       id="perspective52" />
    <linearGradient
       id="linearGradient4072">
      <stop
         style="stop-color:#000000;stop-opacity:1;"
         offset="0"
         id="stop4074" />
      <stop
         style="stop-color:#000000;stop-opacity:0;"
         offset="1"
         id="stop4076" />
    </linearGradient>
    <linearGradient
       id="linearGradient2315">
      <stop
         style="stop-color:#000000;stop-opacity:0;"
         offset="0"
         id="stop2317" />
      <stop
         style="stop-color:#000000;stop-opacity:0.57195574;"
         offset="1"
         id="stop2319" />
    </linearGradient>
    <filter
       inkscape:collect="always"
       id="filter3730"
       x="-0.34801543"
       width="1.6960309"
       y="-0.34084839"
       height="1.6816968">
      <feGaussianBlur
         inkscape:collect="always"
         stdDeviation="5.4650567"
         id="feGaussianBlur3732" />
    </filter>
    <radialGradient
       inkscape:collect="always"
       xlink:href="#linearGradient2315"
       id="radialGradient5010"
       gradientUnits="userSpaceOnUse"
       gradientTransform="matrix(-0.47846606,1.4128374,0.90495356,0.6859177,-171.18101,-240.77224)"
       cx="216.99271"
       cy="497.9592"
       fx="216.99271"
       fy="497.9592"
       r="65" />
    <radialGradient
       inkscape:collect="always"
       xlink:href="#linearGradient2315"
       id="radialGradient5012"
       gradientUnits="userSpaceOnUse"
       gradientTransform="matrix(0.387095,1.5161279,-1.4234088,0.3634221,726.51481,-93.106615)"
       cx="233.49998"
       cy="409.86218"
       fx="233.49998"
       fy="409.86218"
       r="15.5" />
    <filter
       inkscape:collect="always"
       id="filter5107"
       x="-0.39482161"
       width="1.7896432"
       y="-0.58613706"
       height="2.1722741">
      <feGaussianBlur
         inkscape:collect="always"
         stdDeviation="0.8673902"
         id="feGaussianBlur5109" />
    </filter>
    <radialGradient
       inkscape:collect="always"
       xlink:href="#linearGradient2315"
       id="radialGradient2939"
       gradientUnits="userSpaceOnUse"
       gradientTransform="matrix(-1.1778144,-0.4903787,-0.22114863,1.1888198,450.4014,177.85689)"
       cx="176.375"
       cy="251.84892"
       fx="176.375"
       fy="251.84892"
       r="36.625" />
  </defs>
  <sodipodi:namedview
     id="base"
     pagecolor="#ffffff"
     bordercolor="#666666"
     borderopacity="1.0"
     gridtolerance="10000"
     guidetolerance="10"
     objecttolerance="10"
     inkscape:pageopacity="0.0"
     inkscape:pageshadow="2"
     inkscape:zoom="4.34"
     inkscape:cx="39.92501"
     inkscape:cy="42.868248"
     inkscape:document-units="px"
     inkscape:current-layer="g2945"
     showgrid="false"
     inkscape:window-width="1280"
     inkscape:window-height="737"
     inkscape:window-x="-8"
     inkscape:window-y="-8"
     showguides="true"
     inkscape:guide-bbox="true"
     height="640px"
     width="128px"
     inkscape:pagecheckerboard="true"
     fit-margin-top="0"
     fit-margin-left="0"
     fit-margin-right="0"
     fit-margin-bottom="0"
     inkscape:window-maximized="1">
    <inkscape:grid
       type="xygrid"
       id="grid3194"
       originx="-8.5174703"
       originy="-15.777317"
       spacingx="1"
       spacingy="1" />
  </sodipodi:namedview>
  <metadata
     id="metadata7">
    <rdf:RDF>
      <cc:Work
         rdf:about="">
        <dc:format>image/svg+xml</dc:format>
        <dc:type
           rdf:resource="http://purl.org/dc/dcmitype/StillImage" />
        <dc:title></dc:title>
        <dc:date />
        <dc:creator>
          <cc:Agent>
            <dc:title />
          </cc:Agent>
        </dc:creator>
        <dc:rights>
          <cc:Agent>
            <dc:title />
          </cc:Agent>
        </dc:rights>
        <dc:publisher>
          <cc:Agent>
            <dc:title />
          </cc:Agent>
        </dc:publisher>
        <dc:identifier />
        <dc:source />
        <dc:relation />
        <dc:language />
        <dc:subject>
          <rdf:Bag />
        </dc:subject>
        <dc:coverage />
        <dc:description />
        <dc:contributor>
          <cc:Agent>
            <dc:title />
          </cc:Agent>
        </dc:contributor>
        <cc:license
           rdf:resource="" />
      </cc:Work>
    </rdf:RDF>
  </metadata>
  <g
     inkscape:label="Layer 1"
     inkscape:groupmode="layer"
     id="layer1"
     transform="translate(-241.9377,-32.466314)">
    <g
       transform="matrix(0.7128664,0,0,0.7128664,158.67254,-234.50134)"
       id="g4980">
      <g
         id="g2945">
        <path
           sodipodi:nodetypes="cccsssccssc"
           id="path4984"
           d="m 116.80331,446.36218 c 0,4.84287 2.99592,29.65956 3.66839,34.20114 3.0464,8.63974 5.71521,12.79353 12.59415,15.87097 3.73662,1.04284 7.93113,3.36729 12.48651,4.45962 4.51171,1.08186 9.77529,1.94721 14.96184,1.94721 5.21086,0 10.51572,-0.97994 15.05487,-2.35662 5.13616,-1.55775 8.88189,-2.94585 12.72739,-4.17824 8.47822,-1.65145 11.08959,-6.1692 14.28514,-12.8611 1.24889,-5.95384 1.11775,-32.38562 1.11775,-37.08298 0,-35.88 -19.46471,-65 -43.44802,-65 -23.98331,0 -43.44802,29.12 -43.44802,65 z"
           style="fill:#ffb380;fill-opacity:1;stroke:none;stroke-width:3.2703054;stroke-linecap:round;stroke-miterlimit:4;stroke-opacity:1"
           inkscape:connector-curvature="0" />
        <path
           style="fill:url(#radialGradient5010);fill-opacity:1;stroke:none;stroke-width:3.2703054;stroke-linecap:round;stroke-miterlimit:4;stroke-opacity:1"
           d="m 116.80331,446.36218 c 0,4.84287 2.99592,29.65956 3.66839,34.20114 1.84249,6.24969 5.30939,11.72949 9.76416,14.74197 3.73663,1.04284 10.09329,4.64676 14.67495,5.45652 4.41068,0.77954 10.3158,2.07839 15.50235,2.07839 5.21086,0 10.74046,-1.40259 15.37142,-2.3557 4.58826,-0.94432 7.06943,-2.53248 10.81389,-3.61374 9.42155,-2.38719 12.72251,-5.41843 16.51089,-14.74154 0.6337,-4.41546 0.58999,-31.06968 0.58999,-35.76704 0,-35.88 -19.46471,-65 -43.44802,-65 -23.98331,0 -43.44802,29.12 -43.44802,65 z"
           id="path4986"
           sodipodi:nodetypes="cccsssccssc"
           inkscape:connector-curvature="0" />
        <g
           transform="matrix(-0.6684311,0,0,1,296.61128,10)"
           id="g4988">
          <circle
             style="opacity:1;fill:#ffffff;fill-opacity:1;stroke:none;stroke-width:4;stroke-linecap:round;stroke-miterlimit:4;stroke-dasharray:none;stroke-opacity:1"
             id="path4990"
             transform="translate(4,7)"
             cx="239.5"
             cy="417.86218"
             r="15.5" />
          <circle
             transform="translate(4,7)"
             id="path4992"
             style="opacity:1;fill:url(#radialGradient5012);fill-opacity:1;stroke:none;stroke-width:4;stroke-linecap:round;stroke-miterlimit:4;stroke-dasharray:none;stroke-opacity:1"
             cx="239.5"
             cy="417.86218"
             r="15.5" />
          <circle
             style="opacity:1;fill:#000000;fill-opacity:1;stroke:none;stroke-width:4;stroke-linecap:round;stroke-miterlimit:4;stroke-dasharray:none;stroke-opacity:1"
             id="path4994"
             transform="matrix(0.6129032,0,0,0.6129032,101.70968,169.7531)"
             cx="239.5"
             cy="417.86218"
             r="15.5" />
        </g>
        <path
           style="fill:#000000;fill-rule:evenodd;stroke:none;stroke-width:0.81757635px;stroke-linecap:butt;stroke-linejoin:miter;stroke-opacity:1"
           d="m 203.99625,470.79586 c -34.44096,-19.07784 -53.54802,-47.59375 -72.93336,-74.39404 -1.26093,0.84138 -2.42797,1.82322 -2.81788,3.96768 16.29685,24.87526 31.76056,49.67261 75.58548,77.12182 0.82596,-2.23182 1.10202,-4.46364 0.16576,-6.69546 z"
           id="path5016"
           sodipodi:nodetypes="ccccc"
           inkscape:connector-curvature="0" />
        <ellipse
           style="fill:#000000;fill-opacity:1;stroke:none;stroke-width:3.2703054;stroke-linecap:round;stroke-miterlimit:4;stroke-dasharray:none;stroke-opacity:1"
           id="path4998"
           transform="scale(-1,1)"
           cx="-160.58554"
           cy="434.86218"
           rx="10.360682"
           ry="15.5" />
        <path
           transform="matrix(-0.81793501,1.170281,1.3264278,2.0749084,-50.214287,-400.05861)"
           style="fill:#ffffff;fill-opacity:0.58407078;stroke:none;stroke-width:4;stroke-linecap:round;stroke-miterlimit:4;stroke-opacity:1;filter:url(#filter5107)"
           d="m 203.46997,285.80054 c 0,1.12218 -0.91075,2.03293 -2.03293,2.03293 -1.12218,0 -2.03293,-0.91075 -2.03293,-2.03293 0,-1.12218 0.91075,-2.03293 2.03293,-2.03293 1.12218,0 2.03293,0.91075 2.03293,2.03293 z"
           id="path5020"
           inkscape:connector-curvature="0" />
        <path
           style="fill:#ff0000;fill-rule:evenodd;stroke:none;stroke-width:0.81757635px;stroke-linecap:butt;stroke-linejoin:miter;stroke-opacity:1"
           d="m 206.07332,437.10904 c -20.8393,1.77467 -43.271,-22.75774 -68.6841,-49.44825 34.41583,-34.67207 67.36569,5.22371 68.6841,49.44825 z"
           id="path5113"
           sodipodi:nodetypes="ccc"
           inkscape:connector-curvature="0" />
        <path
           id="path2901"
           d="m 159.10511,378.43612 c 0.82232,0.73549 0.35673,2.19813 -0.66382,3.21365 -0.20696,0.0159 -0.40145,-0.0828 -0.58092,-0.17743 0.11363,0.72841 0.023,0.92209 0.11804,1.88631 -0.64735,-0.39294 -0.96895,-0.53791 -1.55538,-0.62704 0.0227,-0.61802 -0.07,-0.58397 -0.0276,-1.09217 -0.15996,0.10291 -0.3211,0.14056 -0.50923,0.15505 -1.8745,-0.36368 -1.68999,-2.72182 -0.10307,-3.51725 0.49255,-0.038 0.89337,0.25022 1.15062,0.74461 0.39586,-0.46036 0.91189,-0.66654 1.37457,-0.96126 0.33535,0.0784 0.60707,0.20582 0.79682,0.37553 z m 5.76406,8.04479 c 0.35069,0.2993 0.65397,0.92423 0.83974,1.79286 -0.0171,0.73741 -0.24595,1.3335 -0.59733,1.67443 0.27572,0.6452 0.3856,1.39629 0.5248,2.1262 -0.40093,2.72959 -1.99216,2.27768 -2.39278,-0.10635 0.008,-0.30988 0.0618,-0.58989 0.14019,-0.84927 -0.25297,0.0546 -0.24374,0.0412 -0.53919,0.0831 0.0101,-0.82551 0.0108,-1.41821 -0.37568,-2.34497 0.55078,0.11197 0.5441,-0.0446 0.97242,0.0922 -0.0548,-0.24732 -0.11849,-0.53229 -0.11198,-0.81395 0.27049,-1.74644 0.95535,-2.15301 1.53981,-1.65421 z m -5.40737,-1.45 c 2.36876,2.17348 3.63923,5.54548 2.82665,7.52759 -0.58982,1.43868 -2.12434,1.75194 -3.82033,0.98411 -0.0685,0.19237 -0.12532,0.37814 -0.20352,0.56891 -1.18196,2.88306 -3.0259,4.4245 -4.10992,3.42986 -1.08401,-0.99462 -1.0015,-4.1523 0.18047,-7.03536 0.0955,-0.23301 0.19631,-0.44376 0.29966,-0.65849 -1.0643,-1.82096 -1.49244,-3.82443 -0.93934,-5.17358 0.81259,-1.98211 3.39758,-1.81652 5.76633,0.35696 z m -2.36455,1.56421 c -0.34562,-0.31713 -0.79223,-0.16934 -0.99689,0.32989 -0.20468,0.49923 -0.0903,1.16179 0.25534,1.47891 0.34561,0.31712 0.79222,0.16933 0.9969,-0.3299 0.20466,-0.49923 0.0903,-1.16178 -0.25535,-1.4789 z m 2.21603,2.56674 c -0.34561,-0.31712 -0.79222,-0.16933 -0.99689,0.3299 -0.20467,0.49923 -0.0903,1.16178 0.25534,1.47891 0.34562,0.31712 0.79223,0.16933 0.9969,-0.3299 0.20468,-0.49923 0.0903,-1.16178 -0.25535,-1.47891 z m -7.74056,-3.3686 c 0.35067,0.29931 0.67555,0.94406 0.86132,1.81267 -0.008,0.33509 -0.0632,0.60685 -0.15344,0.88158 0.44421,-0.11565 0.56994,-0.18445 1.17451,-0.25583 0.19408,0.55177 0.34662,0.95562 0.66356,1.49785 -0.19469,0.32303 -0.21812,0.67697 -0.36732,1.04092 -0.9287,-0.19219 -1.29808,-0.26544 -1.86887,-0.51462 0.17448,0.3681 0.30694,0.86937 0.29508,1.38201 -0.41516,2.69605 -1.99883,2.30986 -2.39279,-0.10636 0.0241,-1.04163 0.48893,-1.8924 1.08153,-1.98582 -0.53787,-0.49045 -0.6176,-1.20156 -0.81181,-2.07838 0.2705,-1.74642 0.93375,-2.17282 1.51823,-1.67402 z m 7.12022,8.57795 c 0.27966,1.34004 -0.23434,2.75369 -0.38889,4.3549 0.23013,-0.29169 0.55142,-0.48698 0.89384,-0.51337 1.85377,0.37938 1.64373,2.75085 0.0898,3.54955 -0.69576,0.0536 -1.2672,-0.61356 -1.38034,-1.4888 -0.29713,0.84602 -0.75828,1.07603 -1.33429,1.44275 -1.87449,-0.36371 -1.69831,-2.77393 -0.11142,-3.56936 0.22383,-0.0172 0.43829,0.0217 0.629,0.13264 -0.0863,-0.48871 0.0146,-0.67298 -0.061,-1.30062 0.51456,-0.62747 0.6823,-1.012 1.09476,-2.01811 0.0782,-0.19075 0.5,-0.39721 0.56854,-0.58958 z m -1.6161,0.0284 -2.33177,-2.13953 -0.3178,0.7752 2.33176,2.13952 z"
           style="opacity:1;fill:#ffffff;fill-opacity:1;stroke:none;stroke-width:3.2703054;stroke-linecap:round;stroke-miterlimit:4;stroke-dasharray:none;stroke-opacity:1"
           inkscape:connector-curvature="0" />
        <path
           sodipodi:nodetypes="ccc"
           id="path5115"
           d="m 206.07332,437.10904 c -20.8393,1.77467 -43.271,-22.75774 -68.6841,-49.44825 34.41583,-34.67207 67.36569,5.22371 68.6841,49.44825 z"
           style="fill:url(#radialGradient2939);fill-rule:evenodd;stroke:none;stroke-width:0.81757635px;stroke-linecap:butt;stroke-linejoin:miter;stroke-opacity:1"
           inkscape:connector-curvature="0" />
        <path
           id="path5004"
           d="m 180.00895,413.25201 c -10.02556,10.26977 -20.40625,16.41401 -23.17119,13.71483 -2.76493,-2.6992 3.12774,-13.22472 13.15329,-23.49449 10.02556,-10.26977 20.40625,-16.41401 23.17119,-13.71483 2.76493,2.6992 -3.12774,13.22472 -13.15329,23.49449 z"
           style="fill:#ffffff;fill-opacity:0.62745098;stroke:none;stroke-width:4;stroke-linecap:round;stroke-miterlimit:4;stroke-opacity:1;filter:url(#filter3730)"
           inkscape:connector-curvature="0"
           transform="matrix(-0.6684311,0,0,1,299.95343,0)" />
        <path
           style="fill:#000000;fill-rule:evenodd;stroke:none;stroke-width:0.21177338px;stroke-linecap:butt;stroke-linejoin:miter;stroke-opacity:1"
           d="m 149.01039,485.80324 c -8.99336,3.46602 -24.74529,14.03244 -23.43721,-8.74747 1.67085,-9.97509 1.23648,-17.05152 6.53868,-18.65473 5.09847,-1.78332 10.62308,-0.25862 23.16903,6.17467 5.65376,3.699 9.13879,16.26699 3.61361,18.62009 z"
           id="path5016-5"
           sodipodi:nodetypes="cccccc"
           inkscape:connector-curvature="0" />
      </g>
    </g>
  </g>
</svg>
