<?xml version="1.0" encoding="UTF-8" standalone="no"?>
<!-- Created with Inkscape (http://www.inkscape.org/) -->

<svg
   xmlns:dc="http://purl.org/dc/elements/1.1/"
   xmlns:cc="http://creativecommons.org/ns#"
   xmlns:rdf="http://www.w3.org/1999/02/22-rdf-syntax-ns#"
   xmlns:svg="http://www.w3.org/2000/svg"
   xmlns="http://www.w3.org/2000/svg"
   xmlns:sodipodi="http://sodipodi.sourceforge.net/DTD/sodipodi-0.dtd"
   xmlns:inkscape="http://www.inkscape.org/namespaces/inkscape"
   width="254.23973"
   height="330.69244"
   id="svg4636"
   version="1.1"
   inkscape:version="0.92.3 (2405546, 2018-03-11)"
   sodipodi:docname="head.svg">
  <defs
     id="defs4638">
    <inkscape:path-effect
       effect="spiro"
       id="path-effect4149-3-6-5"
       is_visible="true" />
    <inkscape:path-effect
       effect="spiro"
       id="path-effect4124-4-2-7"
       is_visible="true" />
    <inkscape:path-effect
       effect="spiro"
       id="path-effect3988-6"
       is_visible="true" />
    <inkscape:path-effect
       effect="spiro"
       id="path-effect3984-1"
       is_visible="true" />
    <inkscape:path-effect
       effect="spiro"
       id="path-effect3980-8"
       is_visible="true" />
    <inkscape:path-effect
       effect="spiro"
       id="path-effect4149-3-9"
       is_visible="true" />
    <inkscape:path-effect
       effect="spiro"
       id="path-effect4149-2"
       is_visible="true" />
    <inkscape:path-effect
       effect="spiro"
       id="path-effect4124-4-7"
       is_visible="true" />
    <inkscape:path-effect
       effect="spiro"
       id="path-effect4124-9"
       is_visible="true" />
    <inkscape:path-effect
       effect="spiro"
       id="path-effect4120-5"
       is_visible="true" />
    <inkscape:path-effect
       effect="spiro"
       id="path-effect4194-4"
       is_visible="true" />
    <inkscape:path-effect
       effect="spiro"
       id="path-effect4178-3"
       is_visible="true" />
    <inkscape:path-effect
       effect="spiro"
       id="path-effect3992-1"
       is_visible="true" />
    <inkscape:path-effect
       effect="spiro"
       id="path-effect3996-2"
       is_visible="true" />
    <inkscape:path-effect
       effect="spiro"
       id="path-effect4100-3"
       is_visible="true" />
    <inkscape:path-effect
       effect="spiro"
       id="path-effect4000-3"
       is_visible="true" />
    <inkscape:path-effect
       effect="spiro"
       id="path-effect4112-4"
       is_visible="true" />
    <inkscape:path-effect
       effect="spiro"
       id="path-effect4104-1"
       is_visible="true" />
    <inkscape:path-effect
       effect="spiro"
       id="path-effect4071-1"
       is_visible="true" />
    <inkscape:path-effect
       effect="spiro"
       id="path-effect4116-3"
       is_visible="true" />
    <inkscape:path-effect
       effect="spiro"
       id="path-effect4046-6-8"
       is_visible="true" />
    <inkscape:path-effect
       effect="spiro"
       id="path-effect4046-7"
       is_visible="true" />
    <inkscape:path-effect
       effect="spiro"
       id="path-effect3988-6-4"
       is_visible="true" />
    <inkscape:path-effect
       effect="spiro"
       id="path-effect3984-1-9"
       is_visible="true" />
    <inkscape:path-effect
       effect="spiro"
       id="path-effect3980-8-6"
       is_visible="true" />
    <inkscape:path-effect
       effect="spiro"
       id="path-effect3992-1-3"
       is_visible="true" />
    <inkscape:path-effect
       effect="spiro"
       id="path-effect3996-2-7"
       is_visible="true" />
    <inkscape:path-effect
       effect="spiro"
       id="path-effect4149-3-6-5-8"
       is_visible="true" />
    <inkscape:path-effect
       effect="spiro"
       id="path-effect4124-4-2-7-8"
       is_visible="true" />
    <inkscape:path-effect
       effect="spiro"
       id="path-effect4149-3-9-2"
       is_visible="true" />
    <inkscape:path-effect
       effect="spiro"
       id="path-effect4149-2-9"
       is_visible="true" />
    <inkscape:path-effect
       effect="spiro"
       id="path-effect4124-4-7-1"
       is_visible="true" />
    <inkscape:path-effect
       effect="spiro"
       id="path-effect4124-9-3"
       is_visible="true" />
    <inkscape:path-effect
       effect="spiro"
       id="path-effect4120-5-5"
       is_visible="true" />
    <inkscape:path-effect
       effect="spiro"
       id="path-effect4194-4-9"
       is_visible="true" />
    <inkscape:path-effect
       effect="spiro"
       id="path-effect4178-3-8"
       is_visible="true" />
    <inkscape:path-effect
       effect="spiro"
       id="path-effect4104-1-4"
       is_visible="true" />
    <inkscape:path-effect
       effect="spiro"
       id="path-effect4071-1-0"
       is_visible="true" />
    <inkscape:path-effect
       effect="spiro"
       id="path-effect4116-3-7"
       is_visible="true" />
    <inkscape:path-effect
       effect="spiro"
       id="path-effect4046-6-8-6"
       is_visible="true" />
    <inkscape:path-effect
       effect="spiro"
       id="path-effect4100-3-3"
       is_visible="true" />
    <inkscape:path-effect
       effect="spiro"
       id="path-effect4000-3-6"
       is_visible="true" />
    <inkscape:path-effect
       effect="spiro"
       id="path-effect4112-4-1"
       is_visible="true" />
    <inkscape:path-effect
       effect="spiro"
       id="path-effect4046-7-5"
       is_visible="true" />
  </defs>
  <sodipodi:namedview
     id="base"
     pagecolor="#ffffff"
     bordercolor="#666666"
     borderopacity="1.0"
     inkscape:pageopacity="0.0"
     inkscape:pageshadow="2"
     inkscape:zoom="0.5"
     inkscape:cx="734.40316"
     inkscape:cy="271.42894"
     inkscape:current-layer="layer8"
     inkscape:document-units="px"
     showgrid="false"
     inkscape:window-width="1280"
     inkscape:window-height="737"
     inkscape:window-x="-8"
     inkscape:window-y="-8"
     inkscape:window-maximized="1"
     inkscape:pagecheckerboard="true"
     showborder="true"
     borderlayer="false"
     fit-margin-top="0"
     fit-margin-left="0"
     fit-margin-right="0"
     fit-margin-bottom="0" />
  <metadata
     id="metadata4641">
    <rdf:RDF>
      <cc:Work
         rdf:about="">
        <dc:format>image/svg+xml</dc:format>
        <dc:type
           rdf:resource="http://purl.org/dc/dcmitype/StillImage" />
        <dc:title></dc:title>
      </cc:Work>
    </rdf:RDF>
  </metadata>
  <g
     inkscape:groupmode="layer"
     id="layer3"
     inkscape:label="Rear Arm"
     transform="translate(-93.046909,-307.6344)" />
  <g
     inkscape:groupmode="layer"
     id="layer5"
     inkscape:label="Rear Leg"
     transform="translate(-93.046909,-307.6344)" />
  <g
     inkscape:groupmode="layer"
     id="layer4"
     inkscape:label="Front Leg"
     transform="translate(-93.046909,-307.6344)" />
  <g
     inkscape:groupmode="layer"
     id="layer7"
     inkscape:label="Torso"
     transform="translate(-93.046909,-307.6344)" />
  <g
     inkscape:groupmode="layer"
     id="layer8"
     inkscape:label="Head"
     transform="translate(-93.046909,-307.6344)">
    <path
       style="fill:#9e9e9e;fill-opacity:1;stroke:#000000;stroke-width:10;stroke-linecap:butt;stroke-linejoin:miter;stroke-miterlimit:4;stroke-dasharray:none;stroke-opacity:1"
       d="m 101.4076,406.56194 c 4.13581,-21.05185 28.15937,-33.36355 48.74327,-43.29092 20.64587,-9.95726 44.09714,-15.11855 65.669,-14.68386 30.087,0.6063 63.09445,11.63838 89.03307,30.3478 14.28185,10.30142 32.69289,20.93061 34.7491,37.4279 8.60298,69.02268 -6.52906,205.97683 -6.52906,205.97683 l -53.29503,10.95018 -160.85314,-11.67362 c 0,0 -30.763537,-147.62887 -17.51721,-215.05431 z"
       id="path2985-2"
       inkscape:connector-curvature="0"
       sodipodi:nodetypes="ssssscccs" />
    <path
       style="fill:#000000;stroke:#000000;stroke-width:1.10715914px;stroke-linecap:butt;stroke-linejoin:miter;stroke-opacity:1"
       d="m 258.37749,417.73276 46.35066,1.90717 -1.09329,49.94654 37.77572,1.55434 -2.46431,47.259 -36.34715,-1.49557 -1.59343,107.18661 -21.12398,4.23974 -26.61868,-1.97618 2.98543,-111.35735 -59.91774,-2.46541 1.03574,-47.31777 59.91775,2.46541 z"
       id="path2987-4"
       inkscape:connector-curvature="0"
       sodipodi:nodetypes="cccccccccccccc" />
    <path
       style="fill:#676767;fill-opacity:1;stroke:none"
       d="m 223.58134,353.45606 c 0,0 -48.09455,26.22442 -63.13902,47.9524 -12.06408,17.42353 -15.48485,39.90277 -18.17742,60.92351 -3.3681,26.29459 -0.40302,53.16339 2.79573,79.47912 3.39479,27.92848 16.77457,78.6499 16.77457,78.6499 l -38.85039,-3.8913 c 0,0 -12.85897,-73.25465 -16.88412,-110.73593 -2.70138,-25.1546 -2.97223,-75.1896 -2.97223,-75.1896 0,0 -0.68235,-20.28085 5.02036,-29.87089 10.106,-16.99491 28.97991,-25.86395 46.90311,-34.21361 16.37212,-7.62709 35.06579,-13.54169 53.12723,-13.48459 6.53783,0.0207 15.40218,0.38099 15.40218,0.38099 z"
       id="path3923-6"
       inkscape:connector-curvature="0"
       sodipodi:nodetypes="csssccscsssc" />
    <path
       style="fill:#ff0000;stroke:#000000;stroke-width:1px;stroke-linecap:butt;stroke-linejoin:miter;stroke-opacity:1"
       d="m 258.36638,365.10144 c 2.54658,-4.4145 3.80758,-9.5607 3.59035,-14.65243 -0.21722,-5.09172 -1.91195,-10.11183 -4.82526,-14.29339 -2.91332,-4.18156 -7.03542,-7.5105 -11.73656,-9.47826 -4.70115,-1.96775 -9.96553,-2.5677 -14.98888,-1.70818 -4.78732,0.81913 -9.24679,2.90398 -13.73877,4.75102 -4.49198,1.84703 -9.2086,3.49686 -14.06379,3.36809 -5.89311,-0.1563 -11.65223,-3.10161 -15.22851,-7.78812 -3.57629,-4.68651 -4.89694,-11.01881 -3.49213,-16.74417 -3.92098,1.92833 -7.18632,5.16149 -9.15339,9.06318 -1.96707,3.90168 -2.62461,8.44959 -1.84323,12.74865 0.78138,4.29907 2.99723,8.32471 6.21145,11.28467 3.21421,2.95995 7.40842,4.83729 11.75718,5.26254 4.00559,0.39169 8.02388,-0.41409 11.94934,-1.30226 3.92547,-0.88818 7.87979,-1.869 11.90432,-1.83291 6.36924,0.0571 12.67166,2.79882 17.0556,7.41959 4.38395,4.62077 6.79058,11.05858 6.51284,17.42202 3.00645,1.07131 6.263,1.43353 9.43137,1.04902 3.88939,-0.47201 7.63445,-2.0775 10.65807,-4.56906 z"
       id="path3978-0"
       inkscape:path-effect="#path-effect3980-8-6"
       inkscape:original-d="m 258.36638,365.10144 c 0,0 -13.99298,-34.8141 -27.96035,-40.13226 -9.0227,-3.43545 -18.63025,11.13246 -27.80256,8.11911 -9.77257,-3.21054 -18.72064,-24.53229 -18.72064,-24.53229 0,0 -4.07043,31.50659 6.97201,38.35904 8.91072,5.5296 14.14638,-7.10329 23.85366,-3.13517 10.77729,4.40552 23.56844,24.84161 23.56844,24.84161 0,0 6.45499,2.1199 9.43137,1.04902 2.92108,-1.05098 10.65807,-4.56906 10.65807,-4.56906 z"
       inkscape:connector-curvature="0"
       sodipodi:nodetypes="csscsscsc" />
    <path
       style="fill:#880000;fill-opacity:1;stroke:#000000;stroke-width:0.30000001;stroke-linecap:butt;stroke-linejoin:miter;stroke-miterlimit:4;stroke-dasharray:none;stroke-opacity:1"
       d="m 253.03156,367.88651 c 2.28484,-4.18861 3.48928,-8.96078 3.46577,-13.73198 -0.0235,-4.7712 -1.27491,-9.53127 -3.60091,-13.69716 -2.32019,-4.15547 -5.71775,-7.72097 -9.81943,-10.13498 -6.33713,-3.72967 -14.31266,-4.54833 -21.27534,-2.18385 3.93464,-1.95373 8.32303,-2.9864 12.71603,-2.99231 3.54399,-0.005 7.09009,0.65552 10.38559,1.95918 5.03273,1.99089 9.47687,5.52746 12.36348,10.10562 2.12264,3.36651 3.38312,7.2254 4.05248,11.14853 0.4749,2.78336 0.66024,5.6413 0.21849,8.43011 -0.44175,2.78882 -1.53886,5.51436 -3.40562,7.63282 -1.37324,1.55839 -3.14563,2.76211 -5.10054,3.46402 z"
       id="path3982-6"
       inkscape:path-effect="#path-effect3984-1-9"
       inkscape:original-d="m 253.03156,367.88651 c 0,0 3.31777,-18.96304 -0.13514,-27.42914 -1.77641,-4.35556 -5.58565,-8.08517 -9.81943,-10.13498 -6.37564,-3.08681 -21.27534,-2.18385 -21.27534,-2.18385 0,0 8.31526,-2.76635 12.71603,-2.99231 3.63931,-0.18686 7.07251,0.44163 10.38559,1.95918 4.79935,2.19832 9.42999,5.71688 12.36348,10.10562 2.78964,4.1735 3.94095,6.12978 4.05248,11.14853 0.10935,4.92022 -2.10326,11.25185 -3.18713,16.06293 -0.43042,1.91054 -5.10054,3.46402 -5.10054,3.46402 z"
       inkscape:connector-curvature="0"
       sodipodi:nodetypes="csscsssssc" />
    <path
       style="fill:#880000;fill-opacity:1;stroke:#000000;stroke-width:0.30000001;stroke-linecap:butt;stroke-linejoin:miter;stroke-miterlimit:4;stroke-dasharray:none;stroke-opacity:1"
       d="m 174.38564,319.64214 c -0.61822,3.62679 -0.26633,7.41436 1.00943,10.86519 1.29453,3.5016 3.52549,6.63472 6.32323,9.1065 4.72806,4.17721 11.1117,6.42631 17.414,6.13536 -3.18376,1.03597 -6.63229,1.24646 -9.91841,0.60539 -3.28612,-0.64107 -6.40267,-2.1323 -8.9636,-4.28897 -3.30294,-2.78155 -5.65319,-6.66703 -6.61419,-10.87689 -0.87045,-3.81318 -0.60659,-7.87793 0.74954,-11.54658 z"
       id="path3986-6"
       inkscape:path-effect="#path-effect3988-6-4"
       inkscape:original-d="m 174.38564,319.64214 c 0,0 -0.11683,8.51938 1.00943,10.86519 1.59949,3.33143 3.68585,6.51787 6.32323,9.1065 3.06007,3.00349 17.414,6.13536 17.414,6.13536 0,0 -15.39389,-0.92552 -18.88201,-3.68358 -3.32957,-2.63269 -5.47134,-6.78899 -6.61419,-10.87689 -0.77069,-2.7567 0.74954,-11.54658 0.74954,-11.54658 z"
       inkscape:connector-curvature="0"
       sodipodi:nodetypes="csscssc" />
  </g>
  <g
     inkscape:groupmode="layer"
     id="layer6"
     inkscape:label="Spear"
     transform="translate(-93.046909,-307.6344)" />
  <g
     inkscape:groupmode="layer"
     id="layer2"
     inkscape:label="Front Arm"
     transform="translate(-93.046909,-307.6344)" />
</svg>
