<?xml version="1.0" encoding="UTF-8" standalone="no"?>
<!-- Created with Inkscape (http://www.inkscape.org/) -->

<svg
   xmlns:dc="http://purl.org/dc/elements/1.1/"
   xmlns:cc="http://creativecommons.org/ns#"
   xmlns:rdf="http://www.w3.org/1999/02/22-rdf-syntax-ns#"
   xmlns:svg="http://www.w3.org/2000/svg"
   xmlns="http://www.w3.org/2000/svg"
   xmlns:sodipodi="http://sodipodi.sourceforge.net/DTD/sodipodi-0.dtd"
   xmlns:inkscape="http://www.inkscape.org/namespaces/inkscape"
   width="69.50193"
   height="91.277542"
   id="svg2"
   version="1.1"
   inkscape:version="0.92.3 (2405546, 2018-03-11)"
   sodipodi:docname="OrcBody.svg">
  <defs
     id="defs4">
    <clipPath
       id="clipPath3687"
       clipPathUnits="userSpaceOnUse">
      <path
         id="path3689"
         d="m 228.4458,269.4206 c 2.8602,7.4673 6.3266,9.4564 14.4703,8.0946 7.6362,-1.2716 13.2466,-8.5796 12.9379,-16.3587 -0.14,-3.3438 -2.905,-8.3994 -8.9331,-13.4164 -0.2917,-7.1427 -5.4573,-11.9838 -8.7367,-11.2989 -4.9232,-1.1007 -9.4073,1.7082 -12.3451,4.8124 -2.9348,3.1008 -0.1727,20.8732 2.6067,28.167"
         inkscape:connector-curvature="0" />
    </clipPath>
    <clipPath
       id="clipPath3673"
       clipPathUnits="userSpaceOnUse">
      <path
         id="path3675"
         d="m 192.7446,602.3965 c -0.764,-5.5919 0.4878,-10.7186 2.88,-15.7952 -0.1474,-1.5426 0.4252,-4.7611 1.9967,-5.8561 l -1.7039,-3.649 c -0.152,-3.7928 0.2707,-7.3925 0.9442,-11.1232 l 2.3941,-1.2798 0.8008,-1.9151 4.0661,-0.2906 1.6721,-1.334 5.8793,1.334 -1.8972,4.1536 1.2064,3.9201 1.7371,2.1682 1.0585,-3.5232 c 1.4471,1.1047 3.3295,4.9207 3.0055,6.7947 -0.3316,1.8915 -3.9724,4.4971 -5.4632,5.6701 1.0191,0.8206 1.4772,3.3772 1.0888,5.0476 -1.8612,7.4081 2.6269,11.943 1.6297,17.248 -0.997,5.3051 -3.1309,11.5654 -9.7583,10.9656 -6.6274,-0.5999 -12.0402,-6.74 -11.5367,-12.5357"
         inkscape:connector-curvature="0" />
    </clipPath>
    <clipPath
       id="clipPath3659"
       clipPathUnits="userSpaceOnUse">
      <path
         id="path3661"
         d="m 221.5942,234.9323 c -0.6852,-5.6024 0.6386,-10.711 3.1016,-15.7535 -0.1255,-1.5443 0.4921,-4.7546 2.079,-5.8272 l -1.6526,-3.6726 c -0.0987,-3.7944 0.3744,-7.3882 1.1004,-11.109 l 2.412,-1.2461 0.8274,-1.9034 4.0697,-0.2333 1.6909,-1.3108 5.86,1.4168 -1.9556,4.1264 1.1515,3.9365 1.7064,2.1926 1.1078,-3.5082 c 1.4315,1.1248 3.2601,4.9672 2.9098,6.8363 -0.3583,1.8868 -4.0354,4.4408 -5.5426,5.5931 1.0077,0.8345 1.4301,3.3973 1.0182,5.0621 -1.9653,7.3811 2.4588,11.9786 1.3873,17.2692 -1.0715,5.2906 -3.2933,11.5203 -9.9117,10.8275 -6.6183,-0.6928 -11.944,-6.9083 -11.3595,-12.6964"
         inkscape:connector-curvature="0" />
    </clipPath>
    <clipPath
       id="clipPath3617"
       clipPathUnits="userSpaceOnUse">
      <path
         id="path3619"
         d="m 324.8087,323.1113 -0.6327,-6.7118 c -0.4062,-1.9647 -1.1729,-3.7398 -2.1713,-5.0358 -1.116,-1.4468 -2.5529,-2.3116 -3.9818,-2.1294 -1.4514,0.1866 -2.7936,1.7371 -4.1349,2.6388 l -0.021,1.9193 z"
         inkscape:connector-curvature="0" />
    </clipPath>
    <linearGradient
       id="linearGradient3605"
       spreadMethod="pad"
       gradientTransform="matrix(-13.71235,-13.99658,13.95669,-13.67327,319.6981,329.0635)"
       gradientUnits="userSpaceOnUse"
       y2="0"
       x2="0.75"
       y1="0"
       x1="0.25">
      <stop
         id="stop3607"
         offset="0"
         style="stop-opacity:1;stop-color:#ff0000" />
      <stop
         id="stop3609"
         offset="1"
         style="stop-opacity:1;stop-color:#ff8f00" />
    </linearGradient>
    <clipPath
       id="clipPath3587"
       clipPathUnits="userSpaceOnUse">
      <path
         id="path3589"
         d="m 284.8391,322.6544 1.0207,-6.7119 c 0.6554,-1.9647 1.8927,-3.7397 3.5037,-5.0357 1.8002,-1.4468 4.1187,-2.3117 6.4238,-2.1294 2.3417,0.1865 4.5071,1.7371 6.6717,2.6388 l 0.0337,1.9193 z"
         inkscape:connector-curvature="0" />
    </clipPath>
    <linearGradient
       id="linearGradient3575"
       spreadMethod="pad"
       gradientTransform="matrix(20.84252,-13.18608,12.61428,19.9387,276.1591,311.3952)"
       gradientUnits="userSpaceOnUse"
       y2="0"
       x2="0.75999999"
       y1="0"
       x1="0.23999999">
      <stop
         id="stop3577"
         offset="0"
         style="stop-opacity:1;stop-color:#ff0000" />
      <stop
         id="stop3579"
         offset="1"
         style="stop-opacity:1;stop-color:#ff8f00" />
    </linearGradient>
    <clipPath
       id="clipPath3387"
       clipPathUnits="userSpaceOnUse">
      <path
         id="path3389"
         d="m 440.9045,749.7147 -0.6327,-6.849 c -0.4062,-2.0523 -1.173,-3.9938 -2.1714,-5.506 -1.116,-1.6886 -2.5528,-2.8645 -3.9818,-2.9914 -1.4513,-0.1282 -2.7935,1.1315 -4.1349,1.743 l -0.021,1.9148 z"
         inkscape:connector-curvature="0" />
    </clipPath>
    <linearGradient
       id="linearGradient3375"
       spreadMethod="pad"
       gradientTransform="matrix(-13.46866,-16.66479,15.96636,-12.90419,434.6671,755.5354)"
       gradientUnits="userSpaceOnUse"
       y2="0"
       x2="0.75"
       y1="0"
       x1="0.25">
      <stop
         id="stop3377"
         offset="0"
         style="stop-opacity:1;stop-color:#ff0000" />
      <stop
         id="stop3379"
         offset="1"
         style="stop-opacity:1;stop-color:#ff8f00" />
    </linearGradient>
    <clipPath
       id="clipPath3357"
       clipPathUnits="userSpaceOnUse">
      <path
         id="path3359"
         d="m 400.9348,749.0265 1.0208,-6.8375 c 0.6554,-2.0452 1.8927,-3.9727 3.5036,-5.4671 1.8003,-1.6685 4.1188,-2.8188 6.4239,-2.9203 2.3417,-0.102 4.5071,1.1821 6.6716,1.8173 l 0.0337,1.9151 z"
         inkscape:connector-curvature="0" />
    </clipPath>
    <linearGradient
       id="linearGradient3345"
       spreadMethod="pad"
       gradientTransform="matrix(20.76404,-15.69337,15.5216,20.53677,390.8401,737.7304)"
       gradientUnits="userSpaceOnUse"
       y2="0"
       x2="0.75999999"
       y1="0"
       x1="0.23999999">
      <stop
         id="stop3347"
         offset="0"
         style="stop-opacity:1;stop-color:#ff0000" />
      <stop
         id="stop3349"
         offset="1"
         style="stop-opacity:1;stop-color:#ff8f00" />
    </linearGradient>
    <clipPath
       id="clipPath3269"
       clipPathUnits="userSpaceOnUse">
      <path
         id="path3271"
         d="m 304.7734,749.1118 -0.6326,-6.7119 c -0.4062,-1.9647 -1.173,-3.7397 -2.1714,-5.0357 -1.116,-1.4468 -2.5529,-2.3117 -3.9818,-2.1294 -1.4513,0.1865 -2.7936,1.7371 -4.1349,2.6388 l -0.021,1.9193 z"
         inkscape:connector-curvature="0" />
    </clipPath>
    <linearGradient
       id="linearGradient3257"
       spreadMethod="pad"
       gradientTransform="matrix(-13.71275,-13.99698,13.95689,-13.67347,299.6631,755.064)"
       gradientUnits="userSpaceOnUse"
       y2="0"
       x2="0.75"
       y1="0"
       x1="0.25">
      <stop
         id="stop3259"
         offset="0"
         style="stop-opacity:1;stop-color:#ff0000" />
      <stop
         id="stop3261"
         offset="1"
         style="stop-opacity:1;stop-color:#ff8f00" />
    </linearGradient>
    <clipPath
       id="clipPath3239"
       clipPathUnits="userSpaceOnUse">
      <path
         id="path3241"
         d="m 264.8038,748.6549 1.0208,-6.7119 c 0.6553,-1.9647 1.8927,-3.7398 3.5036,-5.0358 1.8003,-1.4468 4.1187,-2.3116 6.4239,-2.1293 2.3417,0.1865 4.507,1.737 6.6716,2.6387 l 0.0337,1.9194 z"
         inkscape:connector-curvature="0" />
    </clipPath>
    <linearGradient
       id="linearGradient3227"
       spreadMethod="pad"
       gradientTransform="matrix(20.84252,-13.18608,12.61458,19.93918,256.1236,737.3951)"
       gradientUnits="userSpaceOnUse"
       y2="0"
       x2="0.75999999"
       y1="0"
       x1="0.23999999">
      <stop
         id="stop3229"
         offset="0"
         style="stop-opacity:1;stop-color:#ff0000" />
      <stop
         id="stop3231"
         offset="1"
         style="stop-opacity:1;stop-color:#ff8f00" />
    </linearGradient>
    <clipPath
       id="clipPath3181"
       clipPathUnits="userSpaceOnUse">
      <path
         id="path3183"
         d="m 243.6919,230.9295 c 2.1147,7.7119 5.3697,10.031 13.6078,9.474 7.7241,-0.5171 14.0235,-7.24 14.4788,-15.012 0.1882,-3.3415 -2.0676,-8.6434 -7.5754,-14.2274 0.4099,-7.1368 -4.2562,-12.4608 -7.5872,-12.1008 -4.7914,-1.5778 -9.5292,0.7778 -12.7573,3.5796 -3.2244,2.798 -2.2175,20.7555 -0.1667,28.2866"
         inkscape:connector-curvature="0" />
    </clipPath>
    <clipPath
       id="clipPath3169"
       clipPathUnits="userSpaceOnUse">
      <path
         id="path3171"
         d="m 236.8942,571.898 c 0.4504,7.9838 3.1467,10.9338 11.3184,12.1164 7.6609,1.1143 15.23,-4.1386 17.3047,-11.6425 0.8847,-3.2275 -0.2095,-8.8846 -4.4238,-15.4992 1.8973,-6.8925 -1.5488,-13.0763 -4.8812,-13.4227 -4.354,-2.5472 -9.4805,-1.2376 -13.2242,0.8249 -3.7398,2.06 -6.5203,19.8295 -6.0939,27.6231"
         inkscape:connector-curvature="0" />
    </clipPath>
    <clipPath
       id="clipPath3153"
       clipPathUnits="userSpaceOnUse">
      <path
         id="path3155"
         d="m 190.6464,649.6197 c 0.4507,7.9838 3.147,10.9338 11.3187,12.1167 7.6606,1.114 15.2297,-4.1389 17.3047,-11.6424 0.8847,-3.2279 -0.2095,-8.885 -4.4238,-15.4996 1.897,-6.8922 -1.5491,-13.0762 -4.8812,-13.4226 -4.3543,-2.5472 -9.4808,-1.2376 -13.2245,0.8249 -3.7395,2.0599 -6.5203,19.8294 -6.0939,27.623"
         inkscape:connector-curvature="0" />
    </clipPath>
    <clipPath
       id="clipPath3141"
       clipPathUnits="userSpaceOnUse">
      <path
         id="path3143"
         d="m 291.7111,229.5108 c -4.0822,6.876 -7.8355,8.2496 -15.6314,5.5298 -7.3114,-2.5452 -11.6039,-10.6974 -9.9833,-18.3121 0.7036,-3.2717 4.284,-7.7865 11.0744,-11.7113 1.4958,-6.9906 7.4058,-10.8876 10.5225,-9.6577 5.038,-0.2517 8.9824,3.2749 11.3525,6.8315 2.3677,3.5527 -3.3616,20.6017 -7.3347,27.3198"
         inkscape:connector-curvature="0" />
    </clipPath>
    <clipPath
       id="clipPath3129"
       clipPathUnits="userSpaceOnUse">
      <path
         id="path3131"
         d="m 305.3682,571.898 c -0.4505,7.9838 -3.1468,10.9338 -11.3185,12.1164 -7.6609,1.1143 -15.23,-4.1386 -17.3047,-11.6425 -0.8847,-3.2275 0.2092,-8.8846 4.4238,-15.4992 -1.8972,-6.8925 1.5488,-13.0763 4.8812,-13.4227 4.3541,-2.5472 9.4805,-1.2376 13.2242,0.8249 3.7395,2.06 6.5203,19.8295 6.094,27.6231"
         inkscape:connector-curvature="0" />
    </clipPath>
    <clipPath
       id="clipPath3113"
       clipPathUnits="userSpaceOnUse">
      <path
         id="path3115"
         d="m 283.7477,264.7199 c 0.4808,7.9821 3.1887,10.9216 11.365,12.0728 7.6652,1.0848 15.2135,-4.1976 17.2593,-11.7091 0.8725,-3.2312 -0.2441,-8.8838 -4.4836,-15.4826 1.8703,-6.8992 -1.5993,-13.0702 -4.9334,-13.4033 -4.3636,-2.5308 -9.4847,-1.201 -13.2208,0.8756 -3.7315,2.075 -6.4434,19.8547 -5.9865,27.6466"
         inkscape:connector-curvature="0" />
    </clipPath>
    <clipPath
       id="clipPath3097"
       clipPathUnits="userSpaceOnUse">
      <path
         id="path3099"
         d="m 317.6121,649.6197 c 0.4505,7.9838 3.1468,10.9338 11.3185,12.1167 7.6609,1.114 15.23,-4.1389 17.3046,-11.6424 0.8847,-3.2279 -0.2094,-8.885 -4.4237,-15.4996 1.8972,-6.8922 -1.5489,-13.0762 -4.8813,-13.4226 -4.354,-2.5472 -9.4804,-1.2376 -13.2242,0.8249 -3.7397,2.0599 -6.5202,19.8294 -6.0939,27.623"
         inkscape:connector-curvature="0" />
    </clipPath>
    <clipPath
       id="clipPath3037"
       clipPathUnits="userSpaceOnUse">
      <path
         id="path3039"
         d="m 307.3893,243.688 c 2.7215,-4.9445 3.395,-10.179 2.9865,-15.7757 0.6917,-1.3867 1.3133,-4.5961 0.2401,-6.1823 l 2.901,-2.7933 c 1.5044,-3.4852 2.4029,-6.9965 3.1147,-10.7201 l -1.7747,-2.0545 -0.0593,-2.0747 -3.6904,-1.732 -1.0812,-1.8456 -5.9663,-0.8671 0.2783,4.5581 -2.5338,3.225 -2.4001,1.3994 0.2778,-3.6683 c -1.7473,0.5108 -4.8751,3.3959 -5.2458,5.2614 -0.37,1.8845 2.0919,5.6239 3.0619,7.2544 -1.2458,0.3994 -2.592,2.6209 -2.8295,4.3195 -0.9241,7.5821 -6.7416,10.2018 -7.717,15.5111 -0.9752,5.309 -1.2323,11.918 5.1684,13.7393 6.4003,1.8207 13.6573,-1.965 15.2694,-7.5546"
         inkscape:connector-curvature="0" />
    </clipPath>
    <linearGradient
       id="linearGradient3025"
       spreadMethod="pad"
       gradientTransform="matrix(-252.21448,-101.11512,59.65879,-148.8087,279.7554,357.5852)"
       gradientUnits="userSpaceOnUse"
       y2="0"
       x2="0.50999999"
       y1="0"
       x1="0.49000001">
      <stop
         id="stop3027"
         offset="0"
         style="stop-opacity:1;stop-color:#4a6012" />
      <stop
         id="stop3029"
         offset="1"
         style="stop-opacity:1;stop-color:#ffffff" />
    </linearGradient>
    <clipPath
       id="clipPath3009"
       clipPathUnits="userSpaceOnUse">
      <path
         id="path3011"
         d="m 345.1062,602.2213 c 0.6854,-5.6021 -0.6386,-10.7104 -3.1014,-15.7532 0.1256,-1.5444 -0.4921,-4.7546 -2.0789,-5.8272 l 1.6526,-3.6726 c 0.0984,-3.7944 -0.3745,-7.3882 -1.1004,-11.109 l -2.412,-1.2461 -0.8277,-1.9034 -4.0695,-0.2336 -1.6908,-1.3102 -5.8601,1.4165 1.9554,4.1267 -1.1512,3.9362 -1.7067,2.1926 -1.1075,-3.5079 c -1.4315,1.1248 -3.2604,4.9668 -2.9101,6.836 0.3583,1.8868 4.0354,4.4408 5.5426,5.593 -1.0074,0.8346 -1.4298,3.3974 -1.0179,5.0622 1.965,7.3811 -2.4591,11.9789 -1.3873,17.2692 1.0715,5.2906 3.2933,11.5203 9.9116,10.8275 6.6181,-0.6928 11.9441,-6.9083 11.3593,-12.6967"
         inkscape:connector-curvature="0" />
    </clipPath>
  </defs>
  <sodipodi:namedview
     id="base"
     pagecolor="#ffffff"
     bordercolor="#666666"
     borderopacity="1.0"
     inkscape:pageopacity="0.0"
     inkscape:pageshadow="2"
     inkscape:zoom="5.33"
     inkscape:cx="60.05112"
     inkscape:cy="50.888704"
     inkscape:document-units="px"
     inkscape:current-layer="g2993"
     showgrid="false"
     inkscape:window-width="1280"
     inkscape:window-height="737"
     inkscape:window-x="-8"
     inkscape:window-y="-8"
     inkscape:window-maximized="1"
     inkscape:pagecheckerboard="true"
     inkscape:snap-global="false"
     fit-margin-top="0"
     fit-margin-left="0"
     fit-margin-right="0"
     fit-margin-bottom="0" />
  <metadata
     id="metadata7">
    <rdf:RDF>
      <cc:Work
         rdf:about="">
        <dc:format>image/svg+xml</dc:format>
        <dc:type
           rdf:resource="http://purl.org/dc/dcmitype/StillImage" />
        <dc:title></dc:title>
      </cc:Work>
    </rdf:RDF>
  </metadata>
  <g
     inkscape:label="Layer 1"
     inkscape:groupmode="layer"
     id="layer1"
     transform="translate(-273.88621,-296.39063)">
    <g
       transform="matrix(1.25,0,0,-1.25,-15.975944,1119.6963)"
       inkscape:label="Orc_1"
       id="g2993">
      <path
         id="path3415"
         style="fill:#4c2b14;fill-opacity:1;fill-rule:nonzero;stroke:none;stroke-width:0.86036706"
         d="m 249.2651,640.5194 -1.0783,3.2312 -3.3705,3.274 -6.82722,2.5963 c 0.41482,-0.7821 0.82691,-1.5679 1.23397,-2.3554 0.35634,-0.6891 0.70966,-1.3779 1.06341,-2.0667 l -2.8339,-0.434 -3.17182,-2.0608 1.91765,-0.7619 1.61822,-1.1313 -3.08788,-1.3754 -2.13713,-3.0917 1.9235,0.1159 1.2464,-0.2237 -1.61548,-2.1653 -1.85657,-1.8961 1.39896,-0.9788 1.64257,-0.7056 -2.1363,-2.1742 -1.30496,-0.5833 1.20066,-2.3672 2.17487,-0.7373 -1.73969,-3.7412 3.62943,0.9264 -0.8164,-3.1318 0.36382,-2.4944 1.83622,2.1792 2.32721,1.4321 2.84419,-0.6182 3.81264,3.1013 z"
         inkscape:connector-curvature="0" />
      <path
         id="path3417"
         style="fill:#4a6112;fill-opacity:1;fill-rule:nonzero;stroke:none;stroke-width:0.86036706"
         d="m 264.17384,653.30604 c 2.24996,-4.11948 4.92055,-8.7287 4.66872,-12.4172 l -13.74925,-3.25454 -6.14384,5.92081 c 1.7989,7.07246 6.47256,10.72051 7.46624,14.67786 6.53484,0.8045 2.81031,0.14971 5.64715,0.32636"
         inkscape:connector-curvature="0"
         sodipodi:nodetypes="cccccc" />
      <path
         id="path3419"
         style="fill:#784521;fill-opacity:1;fill-rule:nonzero;stroke:none;stroke-width:0.86036706"
         d="m 280.99549,639.059 c -0.21089,1.2418 -0.37123,2.4922 -0.65384,3.7165 -0.28203,1.2217 -0.6916,2.4233 -1.353,3.4466 -0.91042,1.4063 -2.26592,2.4092 -3.72337,3.0098 -1.97412,0.8164 -4.17438,0.9304 -6.20906,0.3269 l -5.03867,-2.1147 c -1.89493,-0.7971 -3.78008,-1.6299 -5.69498,-2.3612 -2.53833,-0.9666 -5.22936,-1.7127 -7.88724,-1.3011 -1.09406,0.1666 -2.15748,0.5295 -3.2129,0.8926 -1.04498,0.3625 -2.12876,0.7313 -3.21209,0.5695 -0.86029,-0.1242 -1.67676,-0.595 -2.26681,-1.3011 -0.87769,-0.8105 -1.58231,-1.8508 -2.04267,-3.0099 -0.52608,-1.3209 -0.72979,-2.7748 -0.80345,-4.2154 -0.0761,-1.4428 -0.0281,-2.8882 -0.0736,-4.3307 -0.0995,-3.1014 -0.62572,-6.2535 0,-9.2781 0.47293,-2.2901 1.61755,-4.4045 3.2123,-5.9409 0.78561,-5.1791 -3.02118,-6.2829 -0.33703,-9.7126 0.87733,-1.1211 -0.1821,-2.8001 -1.24136,-5.5148 -2.15763,-5.5327 -8.06542,-6.6138 -5.86892,-13.6329 1.79069,-0.0236 3.58663,0.3373 5.25748,1.0598 1.14211,0.4901 0.44008,0.7507 1.42962,1.5557 l -0.50884,-4.4419 c 1.27786,0.3821 7.40698,2.4097 7.98947,5.3269 0.32814,-0.9247 0.45509,-1.9392 0.36338,-2.9311 -0.0634,-0.7029 -0.23896,-1.3949 -0.51136,-2.0324 l 3.79754,3.0926 c 1.47779,-0.7316 2.31374,-2.556 1.97108,-4.3146 2.76159,1.3317 5.09347,3.6686 6.57275,6.5905 0.002,-7.6816 4.82519,-3.1875 5.50384,-6.3087 1.5399,3.0381 -1.93112,3.7839 0.19364,6.4734 0.80826,-1.2699 1.43442,-4.2352 2.75152,-4.7534 1.83221,1.1387 3.8925,4.8297 4.91521,6.8678 1.5074,-2.4063 3.88814,-4.0122 6.50115,-4.394 l -0.51135,2.6853 1.6052,-2.5231 c 0.0684,1.2327 -0.056,2.4771 -0.36405,3.662 -0.28455,1.0945 -0.7298,2.1459 -1.3889,3.0133 -0.49536,0.6519 -1.10116,1.188 -1.69099,1.7376 -0.58818,0.553 -1.16749,1.1305 -1.59534,1.8425 -2.81947,4.2171 -3.01185,4.7137 -0.59781,8.9079 0.0604,2.109 -1.71385,6.6813 -1.22538,8.7222 0.14183,0.6038 0.31245,1.2019 0.51113,1.7881 0.60491,0.2721 1.19288,0.5987 1.75228,0.9785 0.56191,0.3821 1.10183,0.8249 1.53405,1.3827 0.76754,0.9978 1.13418,2.2941 1.6046,3.5014 0.48367,1.2387 1.09636,2.4287 1.38868,3.7412 0.25744,1.1647 0.25471,2.3867 0.14537,3.5798 -0.18046,2.0073 -0.64858,3.9632 -0.98724,5.9415"
         inkscape:connector-curvature="0" />
      <path
         id="path3421"
         style="fill:#000000;fill-opacity:0.35;fill-rule:nonzero;stroke:none;stroke-width:0.86036706"
         d="m 244.55649,645.1248 c 0,0 -2.66247,-3.3074 -3.1508,-6.7402 -0.29313,-2.0721 -0.20645,-4.9433 -0.11451,-6.6013 0.19068,-3.4419 -0.13746,-6.9222 0.16263,-7.5348 0.67916,-1.3779 1.81601,-3.0869 3.03976,-3.875 2.06783,-1.3291 3.26264,-0.4932 5.65115,-0.5187 2.16769,-0.0224 4.03707,-0.7112 6.18848,-0.4136 0,0 4.84326,-0.6806 7.16019,-0.7571 3.49537,-0.1185 10.42875,1.3124 10.42875,1.3124 0,0 -2.9479,-1.1678 -4.53778,-1.9528 -1.73465,-0.8591 -3.54044,-1.4482 -5.43795,-1.5253 -2.73198,-0.1077 -5.44818,-0.4989 -8.18015,-0.6517 -3.30654,-0.1842 -6.65432,-0.8535 -9.93273,-0.3259 -0.1322,0.0195 -0.26189,0.045 -0.39387,0.0703 0,-0.0332 0.2388,-5.4814 0.10407,-8.4524 -0.22074,-4.8421 -0.95971,-8.4642 -2.19249,-13.0215 -0.7044,-2.6167 -1.20591,4.9864 -1.97153,2.3933 -0.62742,-2.1334 -1.51118,-6.253 -3.35999,-7.5716 -0.28269,-0.2002 -0.67901,-0.3518 -1.10686,-0.4666 -0.76858,-0.1327 -1.54664,-0.1948 -2.3241,-0.1848 -1.89138,5.4958 3.30046,8.1725 5.51834,12.6887 1.51681,3.0889 2.56638,5.2135 1.59195,6.459 -2.59807,3.3197 0.88531,4.4606 0.39868,9.2274 0.003,0.0907 0.002,0.1791 -0.006,0.2639 0,0 0.0612,-0.0392 0.16277,-0.1046 -0.0634,0.0459 -0.12835,0.0986 -0.1949,0.1561 -0.007,0.0565 -0.0151,0.1126 -0.0237,0.1698 -1.59476,1.5364 -2.73937,3.6508 -3.21231,5.9409 -0.0221,0.1063 -0.0422,0.2123 -0.0615,0.3186 l 0.087,8.3441 c 0,0 -0.12775,6.2617 0.92049,9.0677 0.49358,1.3238 4.78663,4.2857 4.78663,4.2857 z m 35.36507,-0.8674 c -0.14915,0.432 -0.32229,0.8518 -0.52563,1.2529 l -1.0481,1.5574 c -0.065,0.074 -0.13132,0.1465 -0.1989,0.2174 l -1.90062,1.4695 c -0.31933,0.1805 -0.64859,0.3399 -0.98303,0.4773 -0.057,0.0236 -0.11436,0.0468 -0.17188,0.0692 l -3.2622,0.4187 c 0,0 -2.21788,-1.6719 -2.84611,-2.931 -1.24367,-2.4855 -1.34086,-5.5361 -1.45981,-8.379 -0.10682,-2.5058 0.13723,-5.0485 0.65384,-7.4888 0.56443,-2.6586 1.28372,-5.3654 2.62975,-7.6476 0.73002,-1.2328 1.63776,-2.4939 2.85138,-3.0957 0.27676,-0.1355 0.69411,-0.1863 1.09872,-0.201 -0.0938,-0.1162 -0.1727,-0.2154 -0.28225,-0.3541 -0.38648,-0.4932 -0.61839,-1.267 -0.83721,-1.6608 -0.76066,-1.381 -0.98916,-3.0673 -1.23841,-4.6664 -0.41755,-2.6671 -0.52629,4.8824 -0.41216,2.1751 0.0968,-2.3066 0.53912,-4.5831 0.92833,-6.8508 0.37115,-2.166 0.79649,-4.3254 1.3433,-6.4429 0.3049,-1.1908 0.43518,-2.5086 1.08606,-3.5124 0.64608,-0.9975 1.83644,-1.3887 2.63278,-2.2419 0.64083,-0.6917 1.14921,-1.5219 1.70129,-2.3049 0.32059,-0.4504 0.93061,-1.3802 0.93061,-1.3802 l 0.90583,-1.8615 0.0745,-0.1165 0.0525,2.1507 -0.62047,2.4755 -1.78921,2.5667 c -0.25264,0.245 -0.51238,0.4817 -0.76925,0.7209 -0.29668,0.2792 -0.59107,0.5641 -0.86473,0.8697 l -0.75874,0.7347 -0.13761,0.4867 c -2.6598,3.9892 -2.79785,4.5491 -0.43208,8.6593 0.0605,2.109 -1.71385,6.6813 -1.22537,8.7222 l 0.009,0.0377 -0.95031,2.463 0.51617,-4.4708 c 0,0 0.27744,2.6161 0.46308,3.7922 0.24029,0.003 0.45621,0.0159 0.60855,0.0281 0.17181,0.0799 0.34199,0.1644 0.51068,0.2528 l 2.78505,2.2904 1.46003,3.6652 0.70041,1.2745 c 0.0495,0.1199 0.0978,0.2398 0.14538,0.36 l 0.72691,2.9746 c 0.0275,0.3603 0.0356,0.7237 0.0297,1.0863 l -0.43245,3.6615 -0.8771,4.4762 z"
         inkscape:connector-curvature="0" />
      <path
         id="path3423"
         style="fill:#4c2b14;fill-opacity:1;fill-rule:nonzero;stroke:none;stroke-width:0.86036706"
         d="m 270.05102,649.3802 c 0.51638,1.1477 1.30488,2.1396 2.26341,2.8511 1.63035,1.2104 3.74919,1.5621 5.62383,0.9354 -0.88487,-0.2293 -1.68639,-0.8218 -2.22543,-1.6359 -0.37892,-0.5751 -0.62572,-1.2583 -0.7124,-1.9641 1.15765,0.4484 2.38303,0.6718 3.6093,0.6551 1.33559,-0.0176 2.66586,-0.3206 3.90176,-0.8875 -0.6278,-0.269 -1.14418,-0.8448 -1.38594,-1.5449 -0.1932,-0.5638 -0.20875,-1.2016 -0.0409,-1.7768 l 4.69803,-1.2614 -2.34795,-1.7779 c 1.6767,-0.5978 3.07796,-2.0883 3.69065,-3.9257 0.37708,-1.1276 0.46561,-2.3754 0.25205,-3.5541 -0.73778,0.6857 -1.68388,1.0854 -2.6424,1.1223 -0.756,0.0286 -1.51644,-0.1675 -2.18265,-0.5616 0.26442,-1.2611 0.65889,-2.4879 1.17526,-3.6479 0.61018,-1.3719 1.38846,-2.6501 2.30709,-3.7871 -0.95135,0.0848 -1.90277,0.1786 -2.85138,0.2807 -0.79885,0.0881 -1.59719,0.1814 -2.39375,0.2812 0.35878,-1.188 0.54451,-2.4412 0.54702,-3.6939 0,-0.9272 -0.0995,-1.8569 -0.29497,-2.7581 -0.56259,0.2466 -1.08866,0.5953 -1.55153,1.029 -0.42008,0.3884 -0.78872,0.8476 -1.09154,1.355 -0.49603,-0.811 -0.86719,-1.715 -1.09111,-2.6646 -0.2593,-1.1112 -0.31786,-2.2788 -0.16826,-3.4129 -0.82609,0.0652 -1.62976,0.4309 -2.26577,1.029 -0.44547,0.4192 -0.80633,0.9499 -1.04787,1.5423 -0.3867,-0.3095 -0.72979,-0.6919 -1.00716,-1.1231 -0.38166,-0.5947 -0.644,-1.2892 -0.7554,-2.0089 -0.29565,0.2066 -0.53734,0.5128 -0.68449,0.8671 -0.14769,0.3538 -0.20098,0.7537 -0.15501,1.1418 0.0661,0.5335 0.3277,1.0324 0.71447,1.355 -0.57938,-0.2041 -1.20066,-0.2662 -1.80558,-0.1865 -0.57241,0.079 -1.1344,0.286 -1.63583,0.6094 0.0614,0.7452 0.38167,1.4624 0.88228,1.9644 0.34139,0.3424 0.76592,0.5862 1.21642,0.6999 l -2.97898,2.3842 c 0.29039,0.6369 0.69226,1.2127 1.17526,1.6838 0.42282,0.4133 0.90582,0.7452 1.42473,0.983 l -3.14614,1.4004 2.93717,2.4324 -2.68578,2.1965 0.92321,1.029 -1.09065,1.3099 1.72141,0.9351 c -0.2642,0.3884 -0.57494,0.7339 -0.92323,1.0293 -0.4428,0.3705 -0.9409,0.6574 -1.47032,0.8419 0.29232,0.3138 0.63623,0.5695 1.00738,0.7478 0.30787,0.1474 0.6335,0.2409 0.9669,0.2809 l -2.93798,1.4964 c 0.41689,0.4425 0.9207,0.779 1.46773,0.9811 0.53926,0.1978 1.11672,0.2605 1.67862,0.1871 -0.34576,0.7307 -0.87244,1.3518 -1.51051,1.777 -0.35169,0.2324 -0.73527,0.4079 -1.13248,0.5131 0.45783,0.6349 1.03276,1.1616 1.67884,1.5448 0.72269,0.4252 1.53132,0.6693 2.35053,0.7005"
         inkscape:connector-curvature="0" />
      <path
         id="path3425"
         style="fill:#000000;fill-opacity:0.5;fill-rule:evenodd;stroke:none;stroke-width:0.86036706"
         d="m 275.08711,605.3528 c -11.34863,-2.8758 -23.35926,-6.5192 -33.51856,1.1049 -0.38418,-0.8541 -0.67732,-1.8099 -0.86282,-2.8134 -0.18573,-1.0074 -0.26441,-2.0645 -0.23377,-3.113 11.20133,-8.4807 23.51538,-4.4141 35.23561,-1.4527 0.12947,1.0556 0.14501,2.1492 0.041,3.2099 -0.10408,1.0726 -0.33074,2.1172 -0.6614,3.0643"
         inkscape:connector-curvature="0" />
      <path
         id="path3427"
         style="fill:#a87530;fill-opacity:1;fill-rule:nonzero;stroke:none;stroke-width:0.86036706"
         d="m 275.08711,606.9895 c -11.34863,-2.8761 -23.35926,-6.5191 -33.51856,1.1046 -0.38418,-0.854 -0.67732,-1.8096 -0.86282,-2.8133 -0.18573,-1.0072 -0.26441,-2.0642 -0.23377,-3.1131 11.20133,-8.4809 23.51538,-4.4138 35.23561,-1.4527 0.12947,1.0556 0.14501,2.1492 0.041,3.2099 -0.10408,1.073 -0.33074,2.1175 -0.6614,3.0646"
         inkscape:connector-curvature="0" />
      <path
         id="path3429"
         style="fill:#000000;fill-opacity:0.5;fill-rule:evenodd;stroke:none;stroke-width:0.86036706"
         d="m 254.14093,605.0078 c -3.12925,0 -5.66691,-2.4656 -5.66691,-5.5055 0,-3.0401 2.53766,-5.5054 5.66691,-5.5054 3.12896,0 5.66662,2.4653 5.66662,5.5054 0,3.0399 -2.53766,5.5055 -5.66662,5.5055"
         inkscape:connector-curvature="0" />
      <path
         id="path3431"
         style="fill:#b3b3b3;fill-opacity:1;fill-rule:evenodd;stroke:none;stroke-width:0.86036706"
         d="m 254.14093,604.9573 c -2.63552,0 -4.77279,-2.0764 -4.77279,-4.6366 0,-2.5605 2.13727,-4.6369 4.77279,-4.6369 2.63523,0 4.77257,2.0764 4.77257,4.6369 0,2.5602 -2.13734,4.6366 -4.77257,4.6366"
         inkscape:connector-curvature="0" />
      <path
         id="path3433"
         style="fill:#ffffff;fill-opacity:1;fill-rule:evenodd;stroke:none;stroke-width:0.86036706"
         d="m 254.14093,604.8252 c -1.21057,0 -2.19213,-0.9538 -2.19213,-2.1296 0,-1.1759 0.98156,-2.1294 2.19213,-2.1294 1.21028,0 2.19182,0.9535 2.19182,2.1294 0,1.1758 -0.98154,2.1296 -2.19182,2.1296"
         inkscape:connector-curvature="0" />
      <path
         id="path3435"
         style="fill:#916640;fill-opacity:1;fill-rule:evenodd;stroke:none;stroke-width:0.86036706"
         d="m 258.62792,636.0086 c -3.68695,-0.6545 -5.79239,-5.2444 -5.44677,-7.6643 0.34575,-2.4191 1.75057,1.7521 5.43751,2.4066 3.68687,0.6545 7.65837,-0.3586 7.3123,2.0608 -0.34553,2.4196 -3.61595,3.8514 -7.30304,3.1969"
         inkscape:connector-curvature="0" />
      <path
         id="path3437"
         style="fill:#4c2b14;fill-opacity:1;fill-rule:evenodd;stroke:none;stroke-width:0.86036706"
         d="m 258.62792,611.4773 c -3.68695,0.4096 -5.79239,3.2851 -5.44677,4.8007 0.34575,1.5154 1.75057,-1.0975 5.43751,-1.5074 3.68687,-0.4102 7.65837,0.2248 7.3123,-1.2912 -0.34553,-1.5154 -3.61595,-2.4123 -7.30304,-2.0021"
         inkscape:connector-curvature="0" />
      <path
         id="path3439"
         style="fill:#4c2b14;fill-opacity:1;fill-rule:evenodd;stroke:none;stroke-width:0.86036706"
         d="m 258.62792,606.3928 c -3.68695,0.4099 -5.79239,3.2851 -5.44677,4.8007 0.34575,1.5157 1.75057,-1.0972 5.43751,-1.5074 3.68687,-0.4099 7.65837,0.225 7.3123,-1.2909 -0.34553,-1.5157 -3.61595,-2.4126 -7.30304,-2.0024"
         inkscape:connector-curvature="0" />
      <path
         id="path3441"
         style="fill:#916640;fill-opacity:1;fill-rule:evenodd;stroke:none;stroke-width:0.86036706"
         d="m 246.3625,636.0086 c 2.5635,-0.6545 4.02745,-5.2444 3.78725,-7.6643 -0.2405,-2.4191 -1.21723,1.7521 -3.78073,2.4066 -2.56372,0.6545 -5.32486,-0.3586 -5.08436,2.0608 0.24021,2.4196 2.5142,3.8514 5.07784,3.1969"
         inkscape:connector-curvature="0" />
      <path
         id="path3443"
         style="fill:#4c2b14;fill-opacity:1;fill-rule:evenodd;stroke:none;stroke-width:0.86036706"
         d="m 246.70457,611.4773 c 2.3335,0.4096 3.66628,3.2851 3.44725,4.8007 -0.21866,1.5154 -1.10768,-1.0975 -3.44141,-1.5074 -2.33373,-0.4102 -4.84726,0.2248 -4.62844,-1.2912 0.21866,-1.5154 2.28886,-2.4123 4.6226,-2.0021"
         inkscape:connector-curvature="0" />
      <path
         id="path3445"
         style="fill:#4c2b14;fill-opacity:1;fill-rule:evenodd;stroke:none;stroke-width:0.86036706"
         d="m 246.3625,606.3928 c 2.5635,0.4099 4.02768,3.2851 3.78725,4.8007 -0.2405,1.5157 -1.21723,-1.0972 -3.78073,-1.5074 -2.56372,-0.4099 -5.32486,0.225 -5.08436,-1.2909 0.24021,-1.5157 2.5142,-2.4126 5.07784,-2.0024"
         inkscape:connector-curvature="0" />
    </g>
  </g>
</svg>
