<?xml version="1.0" encoding="UTF-8" standalone="no"?>
<!-- Created with Inkscape (http://www.inkscape.org/) -->

<svg
   xmlns:dc="http://purl.org/dc/elements/1.1/"
   xmlns:cc="http://creativecommons.org/ns#"
   xmlns:rdf="http://www.w3.org/1999/02/22-rdf-syntax-ns#"
   xmlns:svg="http://www.w3.org/2000/svg"
   xmlns="http://www.w3.org/2000/svg"
   xmlns:sodipodi="http://sodipodi.sourceforge.net/DTD/sodipodi-0.dtd"
   xmlns:inkscape="http://www.inkscape.org/namespaces/inkscape"
   width="36.315384"
   height="110.01509"
   id="svg2"
   version="1.1"
   inkscape:version="0.92.3 (2405546, 2018-03-11)"
   sodipodi:docname="OrcLeftFoot.svg">
  <defs
     id="defs4">
    <clipPath
       id="clipPath3687"
       clipPathUnits="userSpaceOnUse">
      <path
         id="path3689"
         d="m 228.4458,269.4206 c 2.8602,7.4673 6.3266,9.4564 14.4703,8.0946 7.6362,-1.2716 13.2466,-8.5796 12.9379,-16.3587 -0.14,-3.3438 -2.905,-8.3994 -8.9331,-13.4164 -0.2917,-7.1427 -5.4573,-11.9838 -8.7367,-11.2989 -4.9232,-1.1007 -9.4073,1.7082 -12.3451,4.8124 -2.9348,3.1008 -0.1727,20.8732 2.6067,28.167"
         inkscape:connector-curvature="0" />
    </clipPath>
    <clipPath
       id="clipPath3673"
       clipPathUnits="userSpaceOnUse">
      <path
         id="path3675"
         d="m 192.7446,602.3965 c -0.764,-5.5919 0.4878,-10.7186 2.88,-15.7952 -0.1474,-1.5426 0.4252,-4.7611 1.9967,-5.8561 l -1.7039,-3.649 c -0.152,-3.7928 0.2707,-7.3925 0.9442,-11.1232 l 2.3941,-1.2798 0.8008,-1.9151 4.0661,-0.2906 1.6721,-1.334 5.8793,1.334 -1.8972,4.1536 1.2064,3.9201 1.7371,2.1682 1.0585,-3.5232 c 1.4471,1.1047 3.3295,4.9207 3.0055,6.7947 -0.3316,1.8915 -3.9724,4.4971 -5.4632,5.6701 1.0191,0.8206 1.4772,3.3772 1.0888,5.0476 -1.8612,7.4081 2.6269,11.943 1.6297,17.248 -0.997,5.3051 -3.1309,11.5654 -9.7583,10.9656 -6.6274,-0.5999 -12.0402,-6.74 -11.5367,-12.5357"
         inkscape:connector-curvature="0" />
    </clipPath>
    <clipPath
       id="clipPath3659"
       clipPathUnits="userSpaceOnUse">
      <path
         id="path3661"
         d="m 221.5942,234.9323 c -0.6852,-5.6024 0.6386,-10.711 3.1016,-15.7535 -0.1255,-1.5443 0.4921,-4.7546 2.079,-5.8272 l -1.6526,-3.6726 c -0.0987,-3.7944 0.3744,-7.3882 1.1004,-11.109 l 2.412,-1.2461 0.8274,-1.9034 4.0697,-0.2333 1.6909,-1.3108 5.86,1.4168 -1.9556,4.1264 1.1515,3.9365 1.7064,2.1926 1.1078,-3.5082 c 1.4315,1.1248 3.2601,4.9672 2.9098,6.8363 -0.3583,1.8868 -4.0354,4.4408 -5.5426,5.5931 1.0077,0.8345 1.4301,3.3973 1.0182,5.0621 -1.9653,7.3811 2.4588,11.9786 1.3873,17.2692 -1.0715,5.2906 -3.2933,11.5203 -9.9117,10.8275 -6.6183,-0.6928 -11.944,-6.9083 -11.3595,-12.6964"
         inkscape:connector-curvature="0" />
    </clipPath>
    <clipPath
       id="clipPath3617"
       clipPathUnits="userSpaceOnUse">
      <path
         id="path3619"
         d="m 324.8087,323.1113 -0.6327,-6.7118 c -0.4062,-1.9647 -1.1729,-3.7398 -2.1713,-5.0358 -1.116,-1.4468 -2.5529,-2.3116 -3.9818,-2.1294 -1.4514,0.1866 -2.7936,1.7371 -4.1349,2.6388 l -0.021,1.9193 z"
         inkscape:connector-curvature="0" />
    </clipPath>
    <linearGradient
       id="linearGradient3605"
       spreadMethod="pad"
       gradientTransform="matrix(-13.71235,-13.99658,13.95669,-13.67327,319.6981,329.0635)"
       gradientUnits="userSpaceOnUse"
       y2="0"
       x2="0.75"
       y1="0"
       x1="0.25">
      <stop
         id="stop3607"
         offset="0"
         style="stop-opacity:1;stop-color:#ff0000" />
      <stop
         id="stop3609"
         offset="1"
         style="stop-opacity:1;stop-color:#ff8f00" />
    </linearGradient>
    <clipPath
       id="clipPath3587"
       clipPathUnits="userSpaceOnUse">
      <path
         id="path3589"
         d="m 284.8391,322.6544 1.0207,-6.7119 c 0.6554,-1.9647 1.8927,-3.7397 3.5037,-5.0357 1.8002,-1.4468 4.1187,-2.3117 6.4238,-2.1294 2.3417,0.1865 4.5071,1.7371 6.6717,2.6388 l 0.0337,1.9193 z"
         inkscape:connector-curvature="0" />
    </clipPath>
    <linearGradient
       id="linearGradient3575"
       spreadMethod="pad"
       gradientTransform="matrix(20.84252,-13.18608,12.61428,19.9387,276.1591,311.3952)"
       gradientUnits="userSpaceOnUse"
       y2="0"
       x2="0.75999999"
       y1="0"
       x1="0.23999999">
      <stop
         id="stop3577"
         offset="0"
         style="stop-opacity:1;stop-color:#ff0000" />
      <stop
         id="stop3579"
         offset="1"
         style="stop-opacity:1;stop-color:#ff8f00" />
    </linearGradient>
    <clipPath
       id="clipPath3387"
       clipPathUnits="userSpaceOnUse">
      <path
         id="path3389"
         d="m 440.9045,749.7147 -0.6327,-6.849 c -0.4062,-2.0523 -1.173,-3.9938 -2.1714,-5.506 -1.116,-1.6886 -2.5528,-2.8645 -3.9818,-2.9914 -1.4513,-0.1282 -2.7935,1.1315 -4.1349,1.743 l -0.021,1.9148 z"
         inkscape:connector-curvature="0" />
    </clipPath>
    <linearGradient
       id="linearGradient3375"
       spreadMethod="pad"
       gradientTransform="matrix(-13.46866,-16.66479,15.96636,-12.90419,434.6671,755.5354)"
       gradientUnits="userSpaceOnUse"
       y2="0"
       x2="0.75"
       y1="0"
       x1="0.25">
      <stop
         id="stop3377"
         offset="0"
         style="stop-opacity:1;stop-color:#ff0000" />
      <stop
         id="stop3379"
         offset="1"
         style="stop-opacity:1;stop-color:#ff8f00" />
    </linearGradient>
    <clipPath
       id="clipPath3357"
       clipPathUnits="userSpaceOnUse">
      <path
         id="path3359"
         d="m 400.9348,749.0265 1.0208,-6.8375 c 0.6554,-2.0452 1.8927,-3.9727 3.5036,-5.4671 1.8003,-1.6685 4.1188,-2.8188 6.4239,-2.9203 2.3417,-0.102 4.5071,1.1821 6.6716,1.8173 l 0.0337,1.9151 z"
         inkscape:connector-curvature="0" />
    </clipPath>
    <linearGradient
       id="linearGradient3345"
       spreadMethod="pad"
       gradientTransform="matrix(20.76404,-15.69337,15.5216,20.53677,390.8401,737.7304)"
       gradientUnits="userSpaceOnUse"
       y2="0"
       x2="0.75999999"
       y1="0"
       x1="0.23999999">
      <stop
         id="stop3347"
         offset="0"
         style="stop-opacity:1;stop-color:#ff0000" />
      <stop
         id="stop3349"
         offset="1"
         style="stop-opacity:1;stop-color:#ff8f00" />
    </linearGradient>
    <clipPath
       id="clipPath3269"
       clipPathUnits="userSpaceOnUse">
      <path
         id="path3271"
         d="m 304.7734,749.1118 -0.6326,-6.7119 c -0.4062,-1.9647 -1.173,-3.7397 -2.1714,-5.0357 -1.116,-1.4468 -2.5529,-2.3117 -3.9818,-2.1294 -1.4513,0.1865 -2.7936,1.7371 -4.1349,2.6388 l -0.021,1.9193 z"
         inkscape:connector-curvature="0" />
    </clipPath>
    <linearGradient
       id="linearGradient3257"
       spreadMethod="pad"
       gradientTransform="matrix(-13.71275,-13.99698,13.95689,-13.67347,299.6631,755.064)"
       gradientUnits="userSpaceOnUse"
       y2="0"
       x2="0.75"
       y1="0"
       x1="0.25">
      <stop
         id="stop3259"
         offset="0"
         style="stop-opacity:1;stop-color:#ff0000" />
      <stop
         id="stop3261"
         offset="1"
         style="stop-opacity:1;stop-color:#ff8f00" />
    </linearGradient>
    <clipPath
       id="clipPath3239"
       clipPathUnits="userSpaceOnUse">
      <path
         id="path3241"
         d="m 264.8038,748.6549 1.0208,-6.7119 c 0.6553,-1.9647 1.8927,-3.7398 3.5036,-5.0358 1.8003,-1.4468 4.1187,-2.3116 6.4239,-2.1293 2.3417,0.1865 4.507,1.737 6.6716,2.6387 l 0.0337,1.9194 z"
         inkscape:connector-curvature="0" />
    </clipPath>
    <linearGradient
       id="linearGradient3227"
       spreadMethod="pad"
       gradientTransform="matrix(20.84252,-13.18608,12.61458,19.93918,256.1236,737.3951)"
       gradientUnits="userSpaceOnUse"
       y2="0"
       x2="0.75999999"
       y1="0"
       x1="0.23999999">
      <stop
         id="stop3229"
         offset="0"
         style="stop-opacity:1;stop-color:#ff0000" />
      <stop
         id="stop3231"
         offset="1"
         style="stop-opacity:1;stop-color:#ff8f00" />
    </linearGradient>
    <clipPath
       id="clipPath3181"
       clipPathUnits="userSpaceOnUse">
      <path
         id="path3183"
         d="m 243.6919,230.9295 c 2.1147,7.7119 5.3697,10.031 13.6078,9.474 7.7241,-0.5171 14.0235,-7.24 14.4788,-15.012 0.1882,-3.3415 -2.0676,-8.6434 -7.5754,-14.2274 0.4099,-7.1368 -4.2562,-12.4608 -7.5872,-12.1008 -4.7914,-1.5778 -9.5292,0.7778 -12.7573,3.5796 -3.2244,2.798 -2.2175,20.7555 -0.1667,28.2866"
         inkscape:connector-curvature="0" />
    </clipPath>
    <clipPath
       id="clipPath3169"
       clipPathUnits="userSpaceOnUse">
      <path
         id="path3171"
         d="m 236.8942,571.898 c 0.4504,7.9838 3.1467,10.9338 11.3184,12.1164 7.6609,1.1143 15.23,-4.1386 17.3047,-11.6425 0.8847,-3.2275 -0.2095,-8.8846 -4.4238,-15.4992 1.8973,-6.8925 -1.5488,-13.0763 -4.8812,-13.4227 -4.354,-2.5472 -9.4805,-1.2376 -13.2242,0.8249 -3.7398,2.06 -6.5203,19.8295 -6.0939,27.6231"
         inkscape:connector-curvature="0" />
    </clipPath>
    <clipPath
       id="clipPath3153"
       clipPathUnits="userSpaceOnUse">
      <path
         id="path3155"
         d="m 190.6464,649.6197 c 0.4507,7.9838 3.147,10.9338 11.3187,12.1167 7.6606,1.114 15.2297,-4.1389 17.3047,-11.6424 0.8847,-3.2279 -0.2095,-8.885 -4.4238,-15.4996 1.897,-6.8922 -1.5491,-13.0762 -4.8812,-13.4226 -4.3543,-2.5472 -9.4808,-1.2376 -13.2245,0.8249 -3.7395,2.0599 -6.5203,19.8294 -6.0939,27.623"
         inkscape:connector-curvature="0" />
    </clipPath>
    <clipPath
       id="clipPath3141"
       clipPathUnits="userSpaceOnUse">
      <path
         id="path3143"
         d="m 291.7111,229.5108 c -4.0822,6.876 -7.8355,8.2496 -15.6314,5.5298 -7.3114,-2.5452 -11.6039,-10.6974 -9.9833,-18.3121 0.7036,-3.2717 4.284,-7.7865 11.0744,-11.7113 1.4958,-6.9906 7.4058,-10.8876 10.5225,-9.6577 5.038,-0.2517 8.9824,3.2749 11.3525,6.8315 2.3677,3.5527 -3.3616,20.6017 -7.3347,27.3198"
         inkscape:connector-curvature="0" />
    </clipPath>
    <clipPath
       id="clipPath3129"
       clipPathUnits="userSpaceOnUse">
      <path
         id="path3131"
         d="m 305.3682,571.898 c -0.4505,7.9838 -3.1468,10.9338 -11.3185,12.1164 -7.6609,1.1143 -15.23,-4.1386 -17.3047,-11.6425 -0.8847,-3.2275 0.2092,-8.8846 4.4238,-15.4992 -1.8972,-6.8925 1.5488,-13.0763 4.8812,-13.4227 4.3541,-2.5472 9.4805,-1.2376 13.2242,0.8249 3.7395,2.06 6.5203,19.8295 6.094,27.6231"
         inkscape:connector-curvature="0" />
    </clipPath>
    <clipPath
       id="clipPath3113"
       clipPathUnits="userSpaceOnUse">
      <path
         id="path3115"
         d="m 283.7477,264.7199 c 0.4808,7.9821 3.1887,10.9216 11.365,12.0728 7.6652,1.0848 15.2135,-4.1976 17.2593,-11.7091 0.8725,-3.2312 -0.2441,-8.8838 -4.4836,-15.4826 1.8703,-6.8992 -1.5993,-13.0702 -4.9334,-13.4033 -4.3636,-2.5308 -9.4847,-1.201 -13.2208,0.8756 -3.7315,2.075 -6.4434,19.8547 -5.9865,27.6466"
         inkscape:connector-curvature="0" />
    </clipPath>
    <clipPath
       id="clipPath3097"
       clipPathUnits="userSpaceOnUse">
      <path
         id="path3099"
         d="m 317.6121,649.6197 c 0.4505,7.9838 3.1468,10.9338 11.3185,12.1167 7.6609,1.114 15.23,-4.1389 17.3046,-11.6424 0.8847,-3.2279 -0.2094,-8.885 -4.4237,-15.4996 1.8972,-6.8922 -1.5489,-13.0762 -4.8813,-13.4226 -4.354,-2.5472 -9.4804,-1.2376 -13.2242,0.8249 -3.7397,2.0599 -6.5202,19.8294 -6.0939,27.623"
         inkscape:connector-curvature="0" />
    </clipPath>
    <clipPath
       id="clipPath3037"
       clipPathUnits="userSpaceOnUse">
      <path
         id="path3039"
         d="m 307.3893,243.688 c 2.7215,-4.9445 3.395,-10.179 2.9865,-15.7757 0.6917,-1.3867 1.3133,-4.5961 0.2401,-6.1823 l 2.901,-2.7933 c 1.5044,-3.4852 2.4029,-6.9965 3.1147,-10.7201 l -1.7747,-2.0545 -0.0593,-2.0747 -3.6904,-1.732 -1.0812,-1.8456 -5.9663,-0.8671 0.2783,4.5581 -2.5338,3.225 -2.4001,1.3994 0.2778,-3.6683 c -1.7473,0.5108 -4.8751,3.3959 -5.2458,5.2614 -0.37,1.8845 2.0919,5.6239 3.0619,7.2544 -1.2458,0.3994 -2.592,2.6209 -2.8295,4.3195 -0.9241,7.5821 -6.7416,10.2018 -7.717,15.5111 -0.9752,5.309 -1.2323,11.918 5.1684,13.7393 6.4003,1.8207 13.6573,-1.965 15.2694,-7.5546"
         inkscape:connector-curvature="0" />
    </clipPath>
    <linearGradient
       id="linearGradient3025"
       spreadMethod="pad"
       gradientTransform="matrix(-252.21448,-101.11512,59.65879,-148.8087,279.7554,357.5852)"
       gradientUnits="userSpaceOnUse"
       y2="0"
       x2="0.50999999"
       y1="0"
       x1="0.49000001">
      <stop
         id="stop3027"
         offset="0"
         style="stop-opacity:1;stop-color:#4a6012" />
      <stop
         id="stop3029"
         offset="1"
         style="stop-opacity:1;stop-color:#ffffff" />
    </linearGradient>
    <clipPath
       id="clipPath3009"
       clipPathUnits="userSpaceOnUse">
      <path
         id="path3011"
         d="m 345.1062,602.2213 c 0.6854,-5.6021 -0.6386,-10.7104 -3.1014,-15.7532 0.1256,-1.5444 -0.4921,-4.7546 -2.0789,-5.8272 l 1.6526,-3.6726 c 0.0984,-3.7944 -0.3745,-7.3882 -1.1004,-11.109 l -2.412,-1.2461 -0.8277,-1.9034 -4.0695,-0.2336 -1.6908,-1.3102 -5.8601,1.4165 1.9554,4.1267 -1.1512,3.9362 -1.7067,2.1926 -1.1075,-3.5079 c -1.4315,1.1248 -3.2604,4.9668 -2.9101,6.836 0.3583,1.8868 4.0354,4.4408 5.5426,5.593 -1.0074,0.8346 -1.4298,3.3974 -1.0179,5.0622 1.965,7.3811 -2.4591,11.9789 -1.3873,17.2692 1.0715,5.2906 3.2933,11.5203 9.9116,10.8275 6.6181,-0.6928 11.9441,-6.9083 11.3593,-12.6967"
         inkscape:connector-curvature="0" />
    </clipPath>
  </defs>
  <sodipodi:namedview
     id="base"
     pagecolor="#ffffff"
     bordercolor="#666666"
     borderopacity="1.0"
     inkscape:pageopacity="0.0"
     inkscape:pageshadow="2"
     inkscape:zoom="1.0074671"
     inkscape:cx="-119.8501"
     inkscape:cy="-21.091266"
     inkscape:document-units="px"
     inkscape:current-layer="g2993"
     showgrid="false"
     inkscape:window-width="1280"
     inkscape:window-height="737"
     inkscape:window-x="-8"
     inkscape:window-y="-8"
     inkscape:window-maximized="1"
     inkscape:pagecheckerboard="true"
     inkscape:snap-global="false"
     fit-margin-top="0"
     fit-margin-left="0"
     fit-margin-right="0"
     fit-margin-bottom="0" />
  <metadata
     id="metadata7">
    <rdf:RDF>
      <cc:Work
         rdf:about="">
        <dc:format>image/svg+xml</dc:format>
        <dc:type
           rdf:resource="http://purl.org/dc/dcmitype/StillImage" />
        <dc:title />
      </cc:Work>
    </rdf:RDF>
  </metadata>
  <g
     inkscape:label="Layer 1"
     inkscape:groupmode="layer"
     id="layer1"
     transform="translate(-279.96153,-389.49188)">
    <g
       transform="matrix(1.25,0,0,-1.25,-15.975944,1119.6963)"
       inkscape:label="Orc_1"
       id="g2993">
      <path
         id="path2999"
         style="fill:#2e190d;fill-opacity:1;fill-rule:nonzero;stroke:none"
         d="m 237.0698,531.26052 c 9.0745,2.7876 19.6016,2.361 28.0582,-0.2194 l 0.5743,-1.9432 c -1.4667,-5.3053 -4.714,-8.3242 -3.7035,-14.5136 -5.8,-4.3558 -13.354,-1.5874 -19.4272,1.2815 -0.5188,5.8929 -5.0208,10.4363 -5.5018,15.3947"
         inkscape:connector-curvature="0" />
      <path
         id="path3047"
         style="fill:#5c7814;fill-opacity:1;fill-rule:nonzero;stroke:none"
         d="m 260.6679,525.94472 c -3.6907,-3.5754 -12.0359,-2.9486 -16.9038,-3.4387 -5.6767,8.223 -5.4771,23.138 6.5996,23.6854 15.5605,1.5979 11.3185,-14.4703 10.3042,-20.2467"
         inkscape:connector-curvature="0" />
      <path
         id="path3055"
         style="fill:#2e190d;fill-opacity:1;fill-rule:nonzero;stroke:none"
         d="m 252.2561,511.83242 c 2.2388,0.18 9.5723,-0.5003 11.6575,-1.3791 1.5443,-0.6548 2.3222,-9.8087 1.6399,-11.762 -1.1764,-3.3492 -16.5155,-2.6371 -19.2396,-2.0169 -1.6084,0.366 -4.6273,0.8986 -6.1251,1.6308 -0.8246,3.1005 -1.0409,8.49 1.0542,12.3035 z"
         inkscape:connector-curvature="0" />
      <path
         id="path3063"
         style="fill:#633b1c;fill-opacity:1;fill-rule:nonzero;stroke:none"
         d="m 252.2561,517.19532 c 2.2388,0.1984 9.5723,-0.5885 11.6575,-1.588 1.5443,-0.7444 2.3222,-11.1036 1.6399,-13.3121 -1.1764,-3.7873 -16.5155,-2.9452 -19.2396,-2.2371 -1.6084,0.4178 -4.6273,1.0273 -6.1251,1.8595 -0.8246,3.5102 -1.0409,9.6086 1.0542,13.9187 z"
         inkscape:connector-curvature="0" />
      <path
         id="path3071"
         style="fill:#633b1c;fill-opacity:1;fill-rule:nonzero;stroke:none"
         d="m 237.0698,531.26052 c 9.1687,-4.5122 19.6407,-5.747 28.0582,-0.2194 l 0.5743,-1.9432 c -1.4667,-5.3053 -4.714,-8.3242 -3.7035,-14.5136 -5.8,-4.3558 -13.354,-1.5874 -19.4272,1.2815 -0.5188,5.8929 -5.0208,10.4363 -5.5018,15.3947"
         inkscape:connector-curvature="0" />
      <path
         id="path3079"
         style="fill:#8f5429;fill-opacity:1;fill-rule:nonzero;stroke:none"
         d="m 237.0698,531.25992 c 9.1687,-4.5122 19.6407,-5.7464 28.0582,-0.2188 l 0.5743,-1.9432 c -1.4667,-5.3053 -0.7674,-2.9364 -1.7955,-6.2626 -5.7997,-4.3557 -20.1966,-3.5838 -26.2701,-0.7151 -0.5184,5.8932 -0.0859,4.1822 -0.5669,9.1397"
         inkscape:connector-curvature="0" />
      <path
         id="path3087"
         style="fill:#8f5429;fill-opacity:1;fill-rule:nonzero;stroke:none"
         d="m 243.9095,508.75372 c -1.8961,1.2713 -2.3292,3.3236 0.1554,4.5283 3.776,1.8312 12.3664,1.3669 16.5412,0.1177 3.5672,-1.0599 3.9136,-3.3398 -0.2755,-4.271 -1.3218,-0.294 -2.8672,-0.3368 -4.3333,-0.4754 -1.2699,-0.1196 -2.5067,-0.3157 -3.6213,-0.5998 -3.6354,-0.921 -6.0848,-0.898 -8.4665,0.7002"
         inkscape:connector-curvature="0" />
      <path
         id="path3163"
         style="fill:#5c7814;fill-opacity:1;fill-rule:nonzero;stroke:none"
         d="m 265.65807,571.898 c -0.4504,7.9838 -3.1467,10.9338 -11.3184,12.1164 -7.6609,1.1143 -15.23,-4.1386 -17.3047,-11.6425 -0.8847,-3.2275 0.2095,-8.8846 4.4238,-15.4992 -1.8973,-6.8925 1.5488,-13.0763 4.8812,-13.4227 4.354,-2.5472 9.4805,-1.2376 13.2242,0.8249 3.7398,2.06 6.5203,19.8295 6.0939,27.6231"
         inkscape:connector-curvature="0" />
      <g
         id="g3165"
         transform="matrix(-1,0,0,1,502.55227,0)">
        <g
           clip-path="url(#clipPath3169)"
           id="g3167">
          <path
             id="path3173"
             style="fill:#73941c;fill-opacity:1;fill-rule:nonzero;stroke:none"
             d="m 260.8968,557.4234 c -0.3878,-1.3379 -0.8529,-2.7657 -1.2988,-4.2035 -1.2688,-4.0932 -2.3808,-8.2672 -4.8481,-8.4909 -3.6627,-0.1142 -7.166,-0.2888 -9.7914,0.533 -2.1586,0.6754 -3.7251,7.1104 -4.303,12.5155 4.4917,-0.2937 9.125,-0.4493 13.8648,-0.4493 2.1486,0 4.2746,0.0334 6.3765,0.0952"
             inkscape:connector-curvature="0" />
        </g>
      </g>
      <path
         id="path3499"
         style="fill:#73941c;fill-opacity:1;fill-rule:nonzero;stroke:none"
         d="m 244.3032,541.62622 c 0.2214,-0.722 0.4576,-1.4655 0.6872,-2.2127 0.9921,-3.2247 1.8609,-6.5126 3.7896,-6.6886 2.8627,-0.0905 5.6007,-0.2279 7.653,0.4195 1.5131,0.4771 2.6546,4.6049 3.1994,8.5232 -4.9478,2.8449 -9.9558,3.4387 -15.3292,-0.0414"
         inkscape:connector-curvature="0" />
    </g>
  </g>
</svg>
