<?xml version="1.0" encoding="UTF-8" standalone="no"?>
<!-- Created with Inkscape (http://www.inkscape.org/) -->

<svg
   xmlns:dc="http://purl.org/dc/elements/1.1/"
   xmlns:cc="http://creativecommons.org/ns#"
   xmlns:rdf="http://www.w3.org/1999/02/22-rdf-syntax-ns#"
   xmlns:svg="http://www.w3.org/2000/svg"
   xmlns="http://www.w3.org/2000/svg"
   xmlns:sodipodi="http://sodipodi.sourceforge.net/DTD/sodipodi-0.dtd"
   xmlns:inkscape="http://www.inkscape.org/namespaces/inkscape"
   width="61.117546"
   height="103.93618"
   id="svg2"
   version="1.1"
   inkscape:version="0.92.3 (2405546, 2018-03-11)"
   sodipodi:docname="OrcRightFoot.svg">
  <defs
     id="defs4">
    <clipPath
       id="clipPath3687"
       clipPathUnits="userSpaceOnUse">
      <path
         id="path3689"
         d="m 228.4458,269.4206 c 2.8602,7.4673 6.3266,9.4564 14.4703,8.0946 7.6362,-1.2716 13.2466,-8.5796 12.9379,-16.3587 -0.14,-3.3438 -2.905,-8.3994 -8.9331,-13.4164 -0.2917,-7.1427 -5.4573,-11.9838 -8.7367,-11.2989 -4.9232,-1.1007 -9.4073,1.7082 -12.3451,4.8124 -2.9348,3.1008 -0.1727,20.8732 2.6067,28.167"
         inkscape:connector-curvature="0" />
    </clipPath>
    <clipPath
       id="clipPath3673"
       clipPathUnits="userSpaceOnUse">
      <path
         id="path3675"
         d="m 192.7446,602.3965 c -0.764,-5.5919 0.4878,-10.7186 2.88,-15.7952 -0.1474,-1.5426 0.4252,-4.7611 1.9967,-5.8561 l -1.7039,-3.649 c -0.152,-3.7928 0.2707,-7.3925 0.9442,-11.1232 l 2.3941,-1.2798 0.8008,-1.9151 4.0661,-0.2906 1.6721,-1.334 5.8793,1.334 -1.8972,4.1536 1.2064,3.9201 1.7371,2.1682 1.0585,-3.5232 c 1.4471,1.1047 3.3295,4.9207 3.0055,6.7947 -0.3316,1.8915 -3.9724,4.4971 -5.4632,5.6701 1.0191,0.8206 1.4772,3.3772 1.0888,5.0476 -1.8612,7.4081 2.6269,11.943 1.6297,17.248 -0.997,5.3051 -3.1309,11.5654 -9.7583,10.9656 -6.6274,-0.5999 -12.0402,-6.74 -11.5367,-12.5357"
         inkscape:connector-curvature="0" />
    </clipPath>
    <clipPath
       id="clipPath3659"
       clipPathUnits="userSpaceOnUse">
      <path
         id="path3661"
         d="m 221.5942,234.9323 c -0.6852,-5.6024 0.6386,-10.711 3.1016,-15.7535 -0.1255,-1.5443 0.4921,-4.7546 2.079,-5.8272 l -1.6526,-3.6726 c -0.0987,-3.7944 0.3744,-7.3882 1.1004,-11.109 l 2.412,-1.2461 0.8274,-1.9034 4.0697,-0.2333 1.6909,-1.3108 5.86,1.4168 -1.9556,4.1264 1.1515,3.9365 1.7064,2.1926 1.1078,-3.5082 c 1.4315,1.1248 3.2601,4.9672 2.9098,6.8363 -0.3583,1.8868 -4.0354,4.4408 -5.5426,5.5931 1.0077,0.8345 1.4301,3.3973 1.0182,5.0621 -1.9653,7.3811 2.4588,11.9786 1.3873,17.2692 -1.0715,5.2906 -3.2933,11.5203 -9.9117,10.8275 -6.6183,-0.6928 -11.944,-6.9083 -11.3595,-12.6964"
         inkscape:connector-curvature="0" />
    </clipPath>
    <clipPath
       id="clipPath3617"
       clipPathUnits="userSpaceOnUse">
      <path
         id="path3619"
         d="m 324.8087,323.1113 -0.6327,-6.7118 c -0.4062,-1.9647 -1.1729,-3.7398 -2.1713,-5.0358 -1.116,-1.4468 -2.5529,-2.3116 -3.9818,-2.1294 -1.4514,0.1866 -2.7936,1.7371 -4.1349,2.6388 l -0.021,1.9193 z"
         inkscape:connector-curvature="0" />
    </clipPath>
    <linearGradient
       id="linearGradient3605"
       spreadMethod="pad"
       gradientTransform="matrix(-13.71235,-13.99658,13.95669,-13.67327,319.6981,329.0635)"
       gradientUnits="userSpaceOnUse"
       y2="0"
       x2="0.75"
       y1="0"
       x1="0.25">
      <stop
         id="stop3607"
         offset="0"
         style="stop-opacity:1;stop-color:#ff0000" />
      <stop
         id="stop3609"
         offset="1"
         style="stop-opacity:1;stop-color:#ff8f00" />
    </linearGradient>
    <clipPath
       id="clipPath3587"
       clipPathUnits="userSpaceOnUse">
      <path
         id="path3589"
         d="m 284.8391,322.6544 1.0207,-6.7119 c 0.6554,-1.9647 1.8927,-3.7397 3.5037,-5.0357 1.8002,-1.4468 4.1187,-2.3117 6.4238,-2.1294 2.3417,0.1865 4.5071,1.7371 6.6717,2.6388 l 0.0337,1.9193 z"
         inkscape:connector-curvature="0" />
    </clipPath>
    <linearGradient
       id="linearGradient3575"
       spreadMethod="pad"
       gradientTransform="matrix(20.84252,-13.18608,12.61428,19.9387,276.1591,311.3952)"
       gradientUnits="userSpaceOnUse"
       y2="0"
       x2="0.75999999"
       y1="0"
       x1="0.23999999">
      <stop
         id="stop3577"
         offset="0"
         style="stop-opacity:1;stop-color:#ff0000" />
      <stop
         id="stop3579"
         offset="1"
         style="stop-opacity:1;stop-color:#ff8f00" />
    </linearGradient>
    <clipPath
       id="clipPath3387"
       clipPathUnits="userSpaceOnUse">
      <path
         id="path3389"
         d="m 440.9045,749.7147 -0.6327,-6.849 c -0.4062,-2.0523 -1.173,-3.9938 -2.1714,-5.506 -1.116,-1.6886 -2.5528,-2.8645 -3.9818,-2.9914 -1.4513,-0.1282 -2.7935,1.1315 -4.1349,1.743 l -0.021,1.9148 z"
         inkscape:connector-curvature="0" />
    </clipPath>
    <linearGradient
       id="linearGradient3375"
       spreadMethod="pad"
       gradientTransform="matrix(-13.46866,-16.66479,15.96636,-12.90419,434.6671,755.5354)"
       gradientUnits="userSpaceOnUse"
       y2="0"
       x2="0.75"
       y1="0"
       x1="0.25">
      <stop
         id="stop3377"
         offset="0"
         style="stop-opacity:1;stop-color:#ff0000" />
      <stop
         id="stop3379"
         offset="1"
         style="stop-opacity:1;stop-color:#ff8f00" />
    </linearGradient>
    <clipPath
       id="clipPath3357"
       clipPathUnits="userSpaceOnUse">
      <path
         id="path3359"
         d="m 400.9348,749.0265 1.0208,-6.8375 c 0.6554,-2.0452 1.8927,-3.9727 3.5036,-5.4671 1.8003,-1.6685 4.1188,-2.8188 6.4239,-2.9203 2.3417,-0.102 4.5071,1.1821 6.6716,1.8173 l 0.0337,1.9151 z"
         inkscape:connector-curvature="0" />
    </clipPath>
    <linearGradient
       id="linearGradient3345"
       spreadMethod="pad"
       gradientTransform="matrix(20.76404,-15.69337,15.5216,20.53677,390.8401,737.7304)"
       gradientUnits="userSpaceOnUse"
       y2="0"
       x2="0.75999999"
       y1="0"
       x1="0.23999999">
      <stop
         id="stop3347"
         offset="0"
         style="stop-opacity:1;stop-color:#ff0000" />
      <stop
         id="stop3349"
         offset="1"
         style="stop-opacity:1;stop-color:#ff8f00" />
    </linearGradient>
    <clipPath
       id="clipPath3269"
       clipPathUnits="userSpaceOnUse">
      <path
         id="path3271"
         d="m 304.7734,749.1118 -0.6326,-6.7119 c -0.4062,-1.9647 -1.173,-3.7397 -2.1714,-5.0357 -1.116,-1.4468 -2.5529,-2.3117 -3.9818,-2.1294 -1.4513,0.1865 -2.7936,1.7371 -4.1349,2.6388 l -0.021,1.9193 z"
         inkscape:connector-curvature="0" />
    </clipPath>
    <linearGradient
       id="linearGradient3257"
       spreadMethod="pad"
       gradientTransform="matrix(-13.71275,-13.99698,13.95689,-13.67347,299.6631,755.064)"
       gradientUnits="userSpaceOnUse"
       y2="0"
       x2="0.75"
       y1="0"
       x1="0.25">
      <stop
         id="stop3259"
         offset="0"
         style="stop-opacity:1;stop-color:#ff0000" />
      <stop
         id="stop3261"
         offset="1"
         style="stop-opacity:1;stop-color:#ff8f00" />
    </linearGradient>
    <clipPath
       id="clipPath3239"
       clipPathUnits="userSpaceOnUse">
      <path
         id="path3241"
         d="m 264.8038,748.6549 1.0208,-6.7119 c 0.6553,-1.9647 1.8927,-3.7398 3.5036,-5.0358 1.8003,-1.4468 4.1187,-2.3116 6.4239,-2.1293 2.3417,0.1865 4.507,1.737 6.6716,2.6387 l 0.0337,1.9194 z"
         inkscape:connector-curvature="0" />
    </clipPath>
    <linearGradient
       id="linearGradient3227"
       spreadMethod="pad"
       gradientTransform="matrix(20.84252,-13.18608,12.61458,19.93918,256.1236,737.3951)"
       gradientUnits="userSpaceOnUse"
       y2="0"
       x2="0.75999999"
       y1="0"
       x1="0.23999999">
      <stop
         id="stop3229"
         offset="0"
         style="stop-opacity:1;stop-color:#ff0000" />
      <stop
         id="stop3231"
         offset="1"
         style="stop-opacity:1;stop-color:#ff8f00" />
    </linearGradient>
    <clipPath
       id="clipPath3181"
       clipPathUnits="userSpaceOnUse">
      <path
         id="path3183"
         d="m 243.6919,230.9295 c 2.1147,7.7119 5.3697,10.031 13.6078,9.474 7.7241,-0.5171 14.0235,-7.24 14.4788,-15.012 0.1882,-3.3415 -2.0676,-8.6434 -7.5754,-14.2274 0.4099,-7.1368 -4.2562,-12.4608 -7.5872,-12.1008 -4.7914,-1.5778 -9.5292,0.7778 -12.7573,3.5796 -3.2244,2.798 -2.2175,20.7555 -0.1667,28.2866"
         inkscape:connector-curvature="0" />
    </clipPath>
    <clipPath
       id="clipPath3169"
       clipPathUnits="userSpaceOnUse">
      <path
         id="path3171"
         d="m 236.8942,571.898 c 0.4504,7.9838 3.1467,10.9338 11.3184,12.1164 7.6609,1.1143 15.23,-4.1386 17.3047,-11.6425 0.8847,-3.2275 -0.2095,-8.8846 -4.4238,-15.4992 1.8973,-6.8925 -1.5488,-13.0763 -4.8812,-13.4227 -4.354,-2.5472 -9.4805,-1.2376 -13.2242,0.8249 -3.7398,2.06 -6.5203,19.8295 -6.0939,27.6231"
         inkscape:connector-curvature="0" />
    </clipPath>
    <clipPath
       id="clipPath3153"
       clipPathUnits="userSpaceOnUse">
      <path
         id="path3155"
         d="m 190.6464,649.6197 c 0.4507,7.9838 3.147,10.9338 11.3187,12.1167 7.6606,1.114 15.2297,-4.1389 17.3047,-11.6424 0.8847,-3.2279 -0.2095,-8.885 -4.4238,-15.4996 1.897,-6.8922 -1.5491,-13.0762 -4.8812,-13.4226 -4.3543,-2.5472 -9.4808,-1.2376 -13.2245,0.8249 -3.7395,2.0599 -6.5203,19.8294 -6.0939,27.623"
         inkscape:connector-curvature="0" />
    </clipPath>
    <clipPath
       id="clipPath3141"
       clipPathUnits="userSpaceOnUse">
      <path
         id="path3143"
         d="m 291.7111,229.5108 c -4.0822,6.876 -7.8355,8.2496 -15.6314,5.5298 -7.3114,-2.5452 -11.6039,-10.6974 -9.9833,-18.3121 0.7036,-3.2717 4.284,-7.7865 11.0744,-11.7113 1.4958,-6.9906 7.4058,-10.8876 10.5225,-9.6577 5.038,-0.2517 8.9824,3.2749 11.3525,6.8315 2.3677,3.5527 -3.3616,20.6017 -7.3347,27.3198"
         inkscape:connector-curvature="0" />
    </clipPath>
    <clipPath
       id="clipPath3129"
       clipPathUnits="userSpaceOnUse">
      <path
         id="path3131"
         d="m 305.3682,571.898 c -0.4505,7.9838 -3.1468,10.9338 -11.3185,12.1164 -7.6609,1.1143 -15.23,-4.1386 -17.3047,-11.6425 -0.8847,-3.2275 0.2092,-8.8846 4.4238,-15.4992 -1.8972,-6.8925 1.5488,-13.0763 4.8812,-13.4227 4.3541,-2.5472 9.4805,-1.2376 13.2242,0.8249 3.7395,2.06 6.5203,19.8295 6.094,27.6231"
         inkscape:connector-curvature="0" />
    </clipPath>
    <clipPath
       id="clipPath3113"
       clipPathUnits="userSpaceOnUse">
      <path
         id="path3115"
         d="m 283.7477,264.7199 c 0.4808,7.9821 3.1887,10.9216 11.365,12.0728 7.6652,1.0848 15.2135,-4.1976 17.2593,-11.7091 0.8725,-3.2312 -0.2441,-8.8838 -4.4836,-15.4826 1.8703,-6.8992 -1.5993,-13.0702 -4.9334,-13.4033 -4.3636,-2.5308 -9.4847,-1.201 -13.2208,0.8756 -3.7315,2.075 -6.4434,19.8547 -5.9865,27.6466"
         inkscape:connector-curvature="0" />
    </clipPath>
    <clipPath
       id="clipPath3097"
       clipPathUnits="userSpaceOnUse">
      <path
         id="path3099"
         d="m 317.6121,649.6197 c 0.4505,7.9838 3.1468,10.9338 11.3185,12.1167 7.6609,1.114 15.23,-4.1389 17.3046,-11.6424 0.8847,-3.2279 -0.2094,-8.885 -4.4237,-15.4996 1.8972,-6.8922 -1.5489,-13.0762 -4.8813,-13.4226 -4.354,-2.5472 -9.4804,-1.2376 -13.2242,0.8249 -3.7397,2.0599 -6.5202,19.8294 -6.0939,27.623"
         inkscape:connector-curvature="0" />
    </clipPath>
    <clipPath
       id="clipPath3037"
       clipPathUnits="userSpaceOnUse">
      <path
         id="path3039"
         d="m 307.3893,243.688 c 2.7215,-4.9445 3.395,-10.179 2.9865,-15.7757 0.6917,-1.3867 1.3133,-4.5961 0.2401,-6.1823 l 2.901,-2.7933 c 1.5044,-3.4852 2.4029,-6.9965 3.1147,-10.7201 l -1.7747,-2.0545 -0.0593,-2.0747 -3.6904,-1.732 -1.0812,-1.8456 -5.9663,-0.8671 0.2783,4.5581 -2.5338,3.225 -2.4001,1.3994 0.2778,-3.6683 c -1.7473,0.5108 -4.8751,3.3959 -5.2458,5.2614 -0.37,1.8845 2.0919,5.6239 3.0619,7.2544 -1.2458,0.3994 -2.592,2.6209 -2.8295,4.3195 -0.9241,7.5821 -6.7416,10.2018 -7.717,15.5111 -0.9752,5.309 -1.2323,11.918 5.1684,13.7393 6.4003,1.8207 13.6573,-1.965 15.2694,-7.5546"
         inkscape:connector-curvature="0" />
    </clipPath>
    <linearGradient
       id="linearGradient3025"
       spreadMethod="pad"
       gradientTransform="matrix(-252.21448,-101.11512,59.65879,-148.8087,279.7554,357.5852)"
       gradientUnits="userSpaceOnUse"
       y2="0"
       x2="0.50999999"
       y1="0"
       x1="0.49000001">
      <stop
         id="stop3027"
         offset="0"
         style="stop-opacity:1;stop-color:#4a6012" />
      <stop
         id="stop3029"
         offset="1"
         style="stop-opacity:1;stop-color:#ffffff" />
    </linearGradient>
    <clipPath
       id="clipPath3009"
       clipPathUnits="userSpaceOnUse">
      <path
         id="path3011"
         d="m 345.1062,602.2213 c 0.6854,-5.6021 -0.6386,-10.7104 -3.1014,-15.7532 0.1256,-1.5444 -0.4921,-4.7546 -2.0789,-5.8272 l 1.6526,-3.6726 c 0.0984,-3.7944 -0.3745,-7.3882 -1.1004,-11.109 l -2.412,-1.2461 -0.8277,-1.9034 -4.0695,-0.2336 -1.6908,-1.3102 -5.8601,1.4165 1.9554,4.1267 -1.1512,3.9362 -1.7067,2.1926 -1.1075,-3.5079 c -1.4315,1.1248 -3.2604,4.9668 -2.9101,6.836 0.3583,1.8868 4.0354,4.4408 5.5426,5.593 -1.0074,0.8346 -1.4298,3.3974 -1.0179,5.0622 1.965,7.3811 -2.4591,11.9789 -1.3873,17.2692 1.0715,5.2906 3.2933,11.5203 9.9116,10.8275 6.6181,-0.6928 11.9441,-6.9083 11.3593,-12.6967"
         inkscape:connector-curvature="0" />
    </clipPath>
  </defs>
  <sodipodi:namedview
     id="base"
     pagecolor="#ffffff"
     bordercolor="#666666"
     borderopacity="1.0"
     inkscape:pageopacity="0.0"
     inkscape:pageshadow="2"
     inkscape:zoom="4.3299648"
     inkscape:cx="-19.313163"
     inkscape:cy="53.297139"
     inkscape:document-units="px"
     inkscape:current-layer="g2993"
     showgrid="false"
     inkscape:window-width="1280"
     inkscape:window-height="737"
     inkscape:window-x="-8"
     inkscape:window-y="-8"
     inkscape:window-maximized="1"
     inkscape:pagecheckerboard="true"
     inkscape:snap-global="false"
     fit-margin-top="0"
     fit-margin-left="0"
     fit-margin-right="0"
     fit-margin-bottom="0" />
  <metadata
     id="metadata7">
    <rdf:RDF>
      <cc:Work
         rdf:about="">
        <dc:format>image/svg+xml</dc:format>
        <dc:type
           rdf:resource="http://purl.org/dc/dcmitype/StillImage" />
        <dc:title></dc:title>
      </cc:Work>
    </rdf:RDF>
  </metadata>
  <g
     inkscape:label="Layer 1"
     inkscape:groupmode="layer"
     id="layer1"
     transform="translate(-329.59903,-390.1972)">
    <g
       transform="matrix(1.25,0,0,-1.25,-15.975944,1119.6963)"
       inkscape:label="Orc_1"
       id="g2993">
      <path
         id="path2995"
         style="fill:#24120a;fill-opacity:1;fill-rule:nonzero;stroke:none"
         d="m 313.2836,532.64184 c -8.824,3.6731 -19.3097,4.2735 -27.8864,2.518 l -0.703,-1.887 c 1.0944,-5.4485 4.1142,-8.784 2.6878,-14.8748 5.4635,-4.9216 13.1564,-2.8902 19.3853,-0.6137 0.9175,5.8424 5.6999,9.9464 6.5163,14.8575"
         inkscape:connector-curvature="0" />
      <path
         id="path3043"
         style="fill:#4a6112;fill-opacity:1;fill-rule:nonzero;stroke:none"
         d="m 289.9218,528.32694 c 3.6907,-3.5754 12.0359,-2.9486 16.9039,-3.4387 5.6766,8.223 5.4771,23.138 -6.5997,23.6854 -15.5605,1.5979 -11.3184,-14.4703 -10.3042,-20.2467"
         inkscape:connector-curvature="0" />
      <path
         id="path3051"
         style="fill:#24120a;fill-opacity:1;fill-rule:nonzero;stroke:none"
         d="m 293.0754,514.35154 c -2.746,0.1236 -11.7414,-0.5933 -14.2991,-1.4031 -1.8939,-0.6033 -2.8483,-8.7075 -2.0109,-10.4233 1.4425,-2.9421 20.2569,-2.0707 23.5984,-1.4789 1.9729,0.3487 5.6758,0.8669 7.5127,1.5378 1.0114,2.7545 1.277,7.5218 -1.2929,10.8596 z"
         inkscape:connector-curvature="0" />
      <path
         id="path3059"
         style="fill:#522e17;fill-opacity:1;fill-rule:nonzero;stroke:none"
         d="m 293.0754,519.09194 c -2.746,0.1403 -11.7414,-0.6715 -14.2991,-1.5877 -1.8939,-0.6823 -2.8483,-9.8521 -2.0109,-11.7938 1.4425,-3.329 20.2569,-2.3423 23.5984,-1.6733 1.9729,0.3946 5.6758,0.9813 7.5127,1.7404 1.0114,3.1162 1.277,8.5105 -1.2929,12.2874 z"
         inkscape:connector-curvature="0" />
      <path
         id="path3067"
         style="fill:#522e17;fill-opacity:1;fill-rule:nonzero;stroke:none"
         d="m 313.2836,532.64184 c -9.4159,-3.6176 -19.9024,-3.8305 -27.8864,2.518 l -0.703,-1.887 c 1.0944,-5.4485 4.1142,-8.784 2.6878,-14.8748 5.4635,-4.9216 13.1564,-2.8902 19.3853,-0.6137 0.9175,5.8424 5.6999,9.9464 6.5163,14.8575"
         inkscape:connector-curvature="0" />
      <path
         id="path3075"
         style="fill:#73401f;fill-opacity:1;fill-rule:nonzero;stroke:none"
         d="m 313.2836,532.64184 c -9.4159,-3.6176 -19.9024,-3.8305 -27.8864,2.518 l -0.703,-1.887 c 1.0944,-5.4485 0.5615,-3.011 1.3558,-6.4375 5.4635,-4.9215 19.8173,-5.5542 26.0461,-3.278 0.9176,5.8428 0.3711,4.1734 1.1875,9.0845"
         inkscape:connector-curvature="0" />
      <path
         id="path3083"
         style="fill:#73401f;fill-opacity:1;fill-rule:nonzero;stroke:none"
         d="m 280.5649,512.06054 c -1.3685,1.124 -1.6806,2.9384 0.1123,4.0031 2.7249,1.6186 8.9243,1.2082 11.937,0.1041 2.5744,-0.9372 2.8244,-2.9523 -0.1987,-3.7755 -0.9536,-0.2599 -2.0693,-0.2976 -3.1269,-0.4204 -0.9165,-0.1057 -1.8091,-0.2789 -2.6136,-0.5301 -2.6234,-0.8141 -4.3911,-0.7937 -6.1101,0.6188"
         inkscape:connector-curvature="0" />
      <path
         id="path3123"
         style="fill:#4a6112;fill-opacity:1;fill-rule:nonzero;stroke:none"
         d="m 301.06355,578.22809 c 5.13784,6.12754 9.0633,6.878 16.31852,2.93628 6.80505,-3.69083 9.72693,-12.4285 6.89957,-19.68238 -1.22219,-3.1154 -5.48345,-6.99369 -12.81808,-9.77201 -2.60377,-6.65779 -9.06479,-9.55081 -11.94216,-7.83452 -5.01279,0.56418 -8.3368,4.68074 -10.10243,8.57326 -1.76377,3.888 6.63994,19.78975 11.64458,25.77937"
         inkscape:connector-curvature="0"
         inkscape:transform-center-x="0.14272254"
         inkscape:transform-center-y="0.2846681" />
      <g
         id="g3125"
         transform="matrix(-0.82859618,0.55984674,0.55984674,0.82859618,233.64964,-66.889577)">
        <g
           clip-path="url(#clipPath3129)"
           id="g3127">
          <path
             id="path3133"
             style="fill:#5c7814;fill-opacity:1;fill-rule:nonzero;stroke:none"
             d="m 283.0694,557.7245 c 0.2832,-0.9238 0.5857,-1.8751 0.8796,-2.8307 1.2688,-4.1255 2.3808,-8.3327 4.8481,-8.5581 3.6626,-0.1151 7.1657,-0.2911 9.7914,0.5369 1.9361,0.6109 3.3962,5.8918 4.0935,10.9049 -7.3873,-2.1756 -13.9362,-2.1915 -19.6126,-0.053"
             inkscape:connector-curvature="0" />
        </g>
      </g>
      <path
         id="path3479"
         style="fill:#5c7814;fill-opacity:1;fill-rule:nonzero;stroke:none"
         d="m 306.2865,544.00844 c -0.2211,-0.722 -0.4578,-1.4655 -0.6874,-2.2127 -0.9915,-3.2241 -1.8609,-6.5129 -3.7893,-6.6886 -2.8628,-0.0905 -5.6007,-0.2279 -7.6527,0.4195 -1.5135,0.4773 -2.6547,4.6052 -3.1998,8.5232 4.9479,2.8451 9.9561,3.439 15.3292,-0.0414"
         inkscape:connector-curvature="0" />
    </g>
  </g>
</svg>
