<?xml version="1.0" encoding="UTF-8" standalone="no"?>
<!-- Created with Inkscape (http://www.inkscape.org/) -->

<svg
   xmlns:dc="http://purl.org/dc/elements/1.1/"
   xmlns:cc="http://creativecommons.org/ns#"
   xmlns:rdf="http://www.w3.org/1999/02/22-rdf-syntax-ns#"
   xmlns:svg="http://www.w3.org/2000/svg"
   xmlns="http://www.w3.org/2000/svg"
   xmlns:xlink="http://www.w3.org/1999/xlink"
   xmlns:sodipodi="http://sodipodi.sourceforge.net/DTD/sodipodi-0.dtd"
   xmlns:inkscape="http://www.inkscape.org/namespaces/inkscape"
   width="114.84565"
   height="238.29585"
   id="svg2"
   version="1.1"
   inkscape:version="0.92.3 (2405546, 2018-03-11)"
   sodipodi:docname="OrcleftHand.svg">
  <defs
     id="defs4">
    <clipPath
       id="clipPath3687"
       clipPathUnits="userSpaceOnUse">
      <path
         id="path3689"
         d="m 228.4458,269.4206 c 2.8602,7.4673 6.3266,9.4564 14.4703,8.0946 7.6362,-1.2716 13.2466,-8.5796 12.9379,-16.3587 -0.14,-3.3438 -2.905,-8.3994 -8.9331,-13.4164 -0.2917,-7.1427 -5.4573,-11.9838 -8.7367,-11.2989 -4.9232,-1.1007 -9.4073,1.7082 -12.3451,4.8124 -2.9348,3.1008 -0.1727,20.8732 2.6067,28.167"
         inkscape:connector-curvature="0" />
    </clipPath>
    <clipPath
       id="clipPath3673"
       clipPathUnits="userSpaceOnUse">
      <path
         id="path3675"
         d="m 192.7446,602.3965 c -0.764,-5.5919 0.4878,-10.7186 2.88,-15.7952 -0.1474,-1.5426 0.4252,-4.7611 1.9967,-5.8561 l -1.7039,-3.649 c -0.152,-3.7928 0.2707,-7.3925 0.9442,-11.1232 l 2.3941,-1.2798 0.8008,-1.9151 4.0661,-0.2906 1.6721,-1.334 5.8793,1.334 -1.8972,4.1536 1.2064,3.9201 1.7371,2.1682 1.0585,-3.5232 c 1.4471,1.1047 3.3295,4.9207 3.0055,6.7947 -0.3316,1.8915 -3.9724,4.4971 -5.4632,5.6701 1.0191,0.8206 1.4772,3.3772 1.0888,5.0476 -1.8612,7.4081 2.6269,11.943 1.6297,17.248 -0.997,5.3051 -3.1309,11.5654 -9.7583,10.9656 -6.6274,-0.5999 -12.0402,-6.74 -11.5367,-12.5357"
         inkscape:connector-curvature="0" />
    </clipPath>
    <clipPath
       id="clipPath3659"
       clipPathUnits="userSpaceOnUse">
      <path
         id="path3661"
         d="m 221.5942,234.9323 c -0.6852,-5.6024 0.6386,-10.711 3.1016,-15.7535 -0.1255,-1.5443 0.4921,-4.7546 2.079,-5.8272 l -1.6526,-3.6726 c -0.0987,-3.7944 0.3744,-7.3882 1.1004,-11.109 l 2.412,-1.2461 0.8274,-1.9034 4.0697,-0.2333 1.6909,-1.3108 5.86,1.4168 -1.9556,4.1264 1.1515,3.9365 1.7064,2.1926 1.1078,-3.5082 c 1.4315,1.1248 3.2601,4.9672 2.9098,6.8363 -0.3583,1.8868 -4.0354,4.4408 -5.5426,5.5931 1.0077,0.8345 1.4301,3.3973 1.0182,5.0621 -1.9653,7.3811 2.4588,11.9786 1.3873,17.2692 -1.0715,5.2906 -3.2933,11.5203 -9.9117,10.8275 -6.6183,-0.6928 -11.944,-6.9083 -11.3595,-12.6964"
         inkscape:connector-curvature="0" />
    </clipPath>
    <clipPath
       id="clipPath3617"
       clipPathUnits="userSpaceOnUse">
      <path
         id="path3619"
         d="m 324.8087,323.1113 -0.6327,-6.7118 c -0.4062,-1.9647 -1.1729,-3.7398 -2.1713,-5.0358 -1.116,-1.4468 -2.5529,-2.3116 -3.9818,-2.1294 -1.4514,0.1866 -2.7936,1.7371 -4.1349,2.6388 l -0.021,1.9193 z"
         inkscape:connector-curvature="0" />
    </clipPath>
    <linearGradient
       id="linearGradient3605"
       spreadMethod="pad"
       gradientTransform="matrix(-13.71235,-13.99658,13.95669,-13.67327,319.6981,329.0635)"
       gradientUnits="userSpaceOnUse"
       y2="0"
       x2="0.75"
       y1="0"
       x1="0.25">
      <stop
         id="stop3607"
         offset="0"
         style="stop-opacity:1;stop-color:#ff0000" />
      <stop
         id="stop3609"
         offset="1"
         style="stop-opacity:1;stop-color:#ff8f00" />
    </linearGradient>
    <clipPath
       id="clipPath3587"
       clipPathUnits="userSpaceOnUse">
      <path
         id="path3589"
         d="m 284.8391,322.6544 1.0207,-6.7119 c 0.6554,-1.9647 1.8927,-3.7397 3.5037,-5.0357 1.8002,-1.4468 4.1187,-2.3117 6.4238,-2.1294 2.3417,0.1865 4.5071,1.7371 6.6717,2.6388 l 0.0337,1.9193 z"
         inkscape:connector-curvature="0" />
    </clipPath>
    <linearGradient
       id="linearGradient3575"
       spreadMethod="pad"
       gradientTransform="matrix(20.84252,-13.18608,12.61428,19.9387,276.1591,311.3952)"
       gradientUnits="userSpaceOnUse"
       y2="0"
       x2="0.75999999"
       y1="0"
       x1="0.23999999">
      <stop
         id="stop3577"
         offset="0"
         style="stop-opacity:1;stop-color:#ff0000" />
      <stop
         id="stop3579"
         offset="1"
         style="stop-opacity:1;stop-color:#ff8f00" />
    </linearGradient>
    <clipPath
       id="clipPath3387"
       clipPathUnits="userSpaceOnUse">
      <path
         id="path3389"
         d="m 440.9045,749.7147 -0.6327,-6.849 c -0.4062,-2.0523 -1.173,-3.9938 -2.1714,-5.506 -1.116,-1.6886 -2.5528,-2.8645 -3.9818,-2.9914 -1.4513,-0.1282 -2.7935,1.1315 -4.1349,1.743 l -0.021,1.9148 z"
         inkscape:connector-curvature="0" />
    </clipPath>
    <linearGradient
       id="linearGradient3375"
       spreadMethod="pad"
       gradientTransform="matrix(-13.46866,-16.66479,15.96636,-12.90419,434.6671,755.5354)"
       gradientUnits="userSpaceOnUse"
       y2="0"
       x2="0.75"
       y1="0"
       x1="0.25">
      <stop
         id="stop3377"
         offset="0"
         style="stop-opacity:1;stop-color:#ff0000" />
      <stop
         id="stop3379"
         offset="1"
         style="stop-opacity:1;stop-color:#ff8f00" />
    </linearGradient>
    <clipPath
       id="clipPath3357"
       clipPathUnits="userSpaceOnUse">
      <path
         id="path3359"
         d="m 400.9348,749.0265 1.0208,-6.8375 c 0.6554,-2.0452 1.8927,-3.9727 3.5036,-5.4671 1.8003,-1.6685 4.1188,-2.8188 6.4239,-2.9203 2.3417,-0.102 4.5071,1.1821 6.6716,1.8173 l 0.0337,1.9151 z"
         inkscape:connector-curvature="0" />
    </clipPath>
    <linearGradient
       id="linearGradient3345"
       spreadMethod="pad"
       gradientTransform="matrix(20.76404,-15.69337,15.5216,20.53677,390.8401,737.7304)"
       gradientUnits="userSpaceOnUse"
       y2="0"
       x2="0.75999999"
       y1="0"
       x1="0.23999999">
      <stop
         id="stop3347"
         offset="0"
         style="stop-opacity:1;stop-color:#ff0000" />
      <stop
         id="stop3349"
         offset="1"
         style="stop-opacity:1;stop-color:#ff8f00" />
    </linearGradient>
    <clipPath
       id="clipPath3269"
       clipPathUnits="userSpaceOnUse">
      <path
         id="path3271"
         d="m 304.7734,749.1118 -0.6326,-6.7119 c -0.4062,-1.9647 -1.173,-3.7397 -2.1714,-5.0357 -1.116,-1.4468 -2.5529,-2.3117 -3.9818,-2.1294 -1.4513,0.1865 -2.7936,1.7371 -4.1349,2.6388 l -0.021,1.9193 z"
         inkscape:connector-curvature="0" />
    </clipPath>
    <linearGradient
       id="linearGradient3257"
       spreadMethod="pad"
       gradientTransform="matrix(-13.71275,-13.99698,13.95689,-13.67347,299.6631,755.064)"
       gradientUnits="userSpaceOnUse"
       y2="0"
       x2="0.75"
       y1="0"
       x1="0.25">
      <stop
         id="stop3259"
         offset="0"
         style="stop-opacity:1;stop-color:#ff0000" />
      <stop
         id="stop3261"
         offset="1"
         style="stop-opacity:1;stop-color:#ff8f00" />
    </linearGradient>
    <clipPath
       id="clipPath3239"
       clipPathUnits="userSpaceOnUse">
      <path
         id="path3241"
         d="m 264.8038,748.6549 1.0208,-6.7119 c 0.6553,-1.9647 1.8927,-3.7398 3.5036,-5.0358 1.8003,-1.4468 4.1187,-2.3116 6.4239,-2.1293 2.3417,0.1865 4.507,1.737 6.6716,2.6387 l 0.0337,1.9194 z"
         inkscape:connector-curvature="0" />
    </clipPath>
    <linearGradient
       id="linearGradient3227"
       spreadMethod="pad"
       gradientTransform="matrix(20.84252,-13.18608,12.61458,19.93918,256.1236,737.3951)"
       gradientUnits="userSpaceOnUse"
       y2="0"
       x2="0.75999999"
       y1="0"
       x1="0.23999999">
      <stop
         id="stop3229"
         offset="0"
         style="stop-opacity:1;stop-color:#ff0000" />
      <stop
         id="stop3231"
         offset="1"
         style="stop-opacity:1;stop-color:#ff8f00" />
    </linearGradient>
    <clipPath
       id="clipPath3181"
       clipPathUnits="userSpaceOnUse">
      <path
         id="path3183"
         d="m 243.6919,230.9295 c 2.1147,7.7119 5.3697,10.031 13.6078,9.474 7.7241,-0.5171 14.0235,-7.24 14.4788,-15.012 0.1882,-3.3415 -2.0676,-8.6434 -7.5754,-14.2274 0.4099,-7.1368 -4.2562,-12.4608 -7.5872,-12.1008 -4.7914,-1.5778 -9.5292,0.7778 -12.7573,3.5796 -3.2244,2.798 -2.2175,20.7555 -0.1667,28.2866"
         inkscape:connector-curvature="0" />
    </clipPath>
    <clipPath
       id="clipPath3169"
       clipPathUnits="userSpaceOnUse">
      <path
         id="path3171"
         d="m 236.8942,571.898 c 0.4504,7.9838 3.1467,10.9338 11.3184,12.1164 7.6609,1.1143 15.23,-4.1386 17.3047,-11.6425 0.8847,-3.2275 -0.2095,-8.8846 -4.4238,-15.4992 1.8973,-6.8925 -1.5488,-13.0763 -4.8812,-13.4227 -4.354,-2.5472 -9.4805,-1.2376 -13.2242,0.8249 -3.7398,2.06 -6.5203,19.8295 -6.0939,27.6231"
         inkscape:connector-curvature="0" />
    </clipPath>
    <clipPath
       id="clipPath3153"
       clipPathUnits="userSpaceOnUse">
      <path
         id="path3155"
         d="m 190.6464,649.6197 c 0.4507,7.9838 3.147,10.9338 11.3187,12.1167 7.6606,1.114 15.2297,-4.1389 17.3047,-11.6424 0.8847,-3.2279 -0.2095,-8.885 -4.4238,-15.4996 1.897,-6.8922 -1.5491,-13.0762 -4.8812,-13.4226 -4.3543,-2.5472 -9.4808,-1.2376 -13.2245,0.8249 -3.7395,2.0599 -6.5203,19.8294 -6.0939,27.623"
         inkscape:connector-curvature="0" />
    </clipPath>
    <clipPath
       id="clipPath3141"
       clipPathUnits="userSpaceOnUse">
      <path
         id="path3143"
         d="m 291.7111,229.5108 c -4.0822,6.876 -7.8355,8.2496 -15.6314,5.5298 -7.3114,-2.5452 -11.6039,-10.6974 -9.9833,-18.3121 0.7036,-3.2717 4.284,-7.7865 11.0744,-11.7113 1.4958,-6.9906 7.4058,-10.8876 10.5225,-9.6577 5.038,-0.2517 8.9824,3.2749 11.3525,6.8315 2.3677,3.5527 -3.3616,20.6017 -7.3347,27.3198"
         inkscape:connector-curvature="0" />
    </clipPath>
    <clipPath
       id="clipPath3129"
       clipPathUnits="userSpaceOnUse">
      <path
         id="path3131"
         d="m 305.3682,571.898 c -0.4505,7.9838 -3.1468,10.9338 -11.3185,12.1164 -7.6609,1.1143 -15.23,-4.1386 -17.3047,-11.6425 -0.8847,-3.2275 0.2092,-8.8846 4.4238,-15.4992 -1.8972,-6.8925 1.5488,-13.0763 4.8812,-13.4227 4.3541,-2.5472 9.4805,-1.2376 13.2242,0.8249 3.7395,2.06 6.5203,19.8295 6.094,27.6231"
         inkscape:connector-curvature="0" />
    </clipPath>
    <clipPath
       id="clipPath3113"
       clipPathUnits="userSpaceOnUse">
      <path
         id="path3115"
         d="m 283.7477,264.7199 c 0.4808,7.9821 3.1887,10.9216 11.365,12.0728 7.6652,1.0848 15.2135,-4.1976 17.2593,-11.7091 0.8725,-3.2312 -0.2441,-8.8838 -4.4836,-15.4826 1.8703,-6.8992 -1.5993,-13.0702 -4.9334,-13.4033 -4.3636,-2.5308 -9.4847,-1.201 -13.2208,0.8756 -3.7315,2.075 -6.4434,19.8547 -5.9865,27.6466"
         inkscape:connector-curvature="0" />
    </clipPath>
    <clipPath
       id="clipPath3097"
       clipPathUnits="userSpaceOnUse">
      <path
         id="path3099"
         d="m 317.6121,649.6197 c 0.4505,7.9838 3.1468,10.9338 11.3185,12.1167 7.6609,1.114 15.23,-4.1389 17.3046,-11.6424 0.8847,-3.2279 -0.2094,-8.885 -4.4237,-15.4996 1.8972,-6.8922 -1.5489,-13.0762 -4.8813,-13.4226 -4.354,-2.5472 -9.4804,-1.2376 -13.2242,0.8249 -3.7397,2.0599 -6.5202,19.8294 -6.0939,27.623"
         inkscape:connector-curvature="0" />
    </clipPath>
    <clipPath
       id="clipPath3037"
       clipPathUnits="userSpaceOnUse">
      <path
         id="path3039"
         d="m 307.3893,243.688 c 2.7215,-4.9445 3.395,-10.179 2.9865,-15.7757 0.6917,-1.3867 1.3133,-4.5961 0.2401,-6.1823 l 2.901,-2.7933 c 1.5044,-3.4852 2.4029,-6.9965 3.1147,-10.7201 l -1.7747,-2.0545 -0.0593,-2.0747 -3.6904,-1.732 -1.0812,-1.8456 -5.9663,-0.8671 0.2783,4.5581 -2.5338,3.225 -2.4001,1.3994 0.2778,-3.6683 c -1.7473,0.5108 -4.8751,3.3959 -5.2458,5.2614 -0.37,1.8845 2.0919,5.6239 3.0619,7.2544 -1.2458,0.3994 -2.592,2.6209 -2.8295,4.3195 -0.9241,7.5821 -6.7416,10.2018 -7.717,15.5111 -0.9752,5.309 -1.2323,11.918 5.1684,13.7393 6.4003,1.8207 13.6573,-1.965 15.2694,-7.5546"
         inkscape:connector-curvature="0" />
    </clipPath>
    <linearGradient
       id="linearGradient3025"
       spreadMethod="pad"
       gradientTransform="matrix(-252.21448,-101.11512,59.65879,-148.8087,279.7554,357.5852)"
       gradientUnits="userSpaceOnUse"
       y2="0"
       x2="0.50999999"
       y1="0"
       x1="0.49000001">
      <stop
         id="stop3027"
         offset="0"
         style="stop-opacity:1;stop-color:#4a6012" />
      <stop
         id="stop3029"
         offset="1"
         style="stop-opacity:1;stop-color:#ffffff" />
    </linearGradient>
    <clipPath
       id="clipPath3009"
       clipPathUnits="userSpaceOnUse">
      <path
         id="path3011"
         d="m 345.1062,602.2213 c 0.6854,-5.6021 -0.6386,-10.7104 -3.1014,-15.7532 0.1256,-1.5444 -0.4921,-4.7546 -2.0789,-5.8272 l 1.6526,-3.6726 c 0.0984,-3.7944 -0.3745,-7.3882 -1.1004,-11.109 l -2.412,-1.2461 -0.8277,-1.9034 -4.0695,-0.2336 -1.6908,-1.3102 -5.8601,1.4165 1.9554,4.1267 -1.1512,3.9362 -1.7067,2.1926 -1.1075,-3.5079 c -1.4315,1.1248 -3.2604,4.9668 -2.9101,6.836 0.3583,1.8868 4.0354,4.4408 5.5426,5.593 -1.0074,0.8346 -1.4298,3.3974 -1.0179,5.0622 1.965,7.3811 -2.4591,11.9789 -1.3873,17.2692 1.0715,5.2906 3.2933,11.5203 9.9116,10.8275 6.6181,-0.6928 11.9441,-6.9083 11.3593,-12.6967"
         inkscape:connector-curvature="0" />
    </clipPath>
    <radialGradient
       inkscape:collect="always"
       xlink:href="#linearGradient3001"
       id="radialGradient3017"
       gradientUnits="userSpaceOnUse"
       gradientTransform="matrix(0.91922844,0.39372463,-0.39150597,0.91404855,603.73671,767.9535)"
       cx="340.40735"
       cy="473.24377"
       fx="340.40735"
       fy="473.24377"
       r="176.97231" />
    <linearGradient
       inkscape:collect="always"
       id="linearGradient3001">
      <stop
         style="stop-color:#ff7f2a;stop-opacity:1;"
         offset="0"
         id="stop3003" />
      <stop
         style="stop-color:#ff7f2a;stop-opacity:0;"
         offset="1"
         id="stop3005" />
    </linearGradient>
    <radialGradient
       inkscape:collect="always"
       xlink:href="#linearGradient2991"
       id="radialGradient3019"
       gradientUnits="userSpaceOnUse"
       gradientTransform="matrix(0.88350262,6.7359153,-4.491094,0.58908477,2305.9702,32.900466)"
       cx="138.18024"
       cy="425.59222"
       fx="138.18024"
       fy="425.59222"
       r="44.754181" />
    <linearGradient
       inkscape:collect="always"
       id="linearGradient2991">
      <stop
         style="stop-color:#cccccc;stop-opacity:1;"
         offset="0"
         id="stop2993" />
      <stop
         style="stop-color:#cccccc;stop-opacity:0;"
         offset="1"
         id="stop2995" />
    </linearGradient>
  </defs>
  <sodipodi:namedview
     id="base"
     pagecolor="#ffffff"
     bordercolor="#666666"
     borderopacity="1.0"
     inkscape:pageopacity="0.0"
     inkscape:pageshadow="2"
     inkscape:zoom="1.88"
     inkscape:cx="26.8243"
     inkscape:cy="112.88238"
     inkscape:document-units="px"
     inkscape:current-layer="layer1"
     showgrid="false"
     inkscape:window-width="1280"
     inkscape:window-height="737"
     inkscape:window-x="-8"
     inkscape:window-y="-8"
     inkscape:window-maximized="1"
     inkscape:pagecheckerboard="true"
     inkscape:snap-global="false"
     fit-margin-top="0"
     fit-margin-left="0"
     fit-margin-right="0"
     fit-margin-bottom="0" />
  <metadata
     id="metadata7">
    <rdf:RDF>
      <cc:Work
         rdf:about="">
        <dc:format>image/svg+xml</dc:format>
        <dc:type
           rdf:resource="http://purl.org/dc/dcmitype/StillImage" />
        <dc:title></dc:title>
      </cc:Work>
    </rdf:RDF>
  </metadata>
  <g
     inkscape:label="Layer 1"
     inkscape:groupmode="layer"
     id="layer1"
     transform="translate(-176.11224,-246.77325)">
    <g
       id="g3011"
       transform="matrix(-0.00759552,0.64276172,-0.34471403,-0.01083265,674.20815,-83.765882)">
      <path
         style="fill:#a05a2c;stroke:#000000;stroke-width:1px;stroke-linecap:butt;stroke-linejoin:miter;stroke-opacity:1"
         d="m 558.10657,1288.6665 c 22.79759,-11.2203 244.02374,82.1309 347.85714,111.4285 3.16647,-15.0144 3.6602,-24.5726 -9.31734,-29.9399 -80.5721,-33.3231 -157.4103,-73.8377 -288.5398,-96.4886 -14.75347,-1.0037 -37.28086,-7.7476 -49.23149,-2.9745 -4.25459,13.897 -5.93649,3.918 -0.76851,17.9745 z"
         id="path3009"
         inkscape:connector-curvature="0"
         sodipodi:nodetypes="ccsccc" />
      <path
         sodipodi:nodetypes="ccssccc"
         inkscape:connector-curvature="0"
         id="path2987"
         d="m 558.10657,1288.6665 c 22.79759,-11.2203 244.02374,82.1309 347.85714,111.4285 2.2855,-10.8371 3.17858,-18.8317 -1.38126,-24.4596 -1.75764,-2.1693 -4.32548,-3.987 -7.93608,-5.4803 -80.57209,-33.3231 -157.4103,-73.8377 -288.5398,-96.4886 -14.75347,-1.0037 -37.28086,-7.7476 -49.23149,-2.9745 -4.25459,13.897 -5.93649,3.918 -0.76851,17.9745 z"
         style="fill:url(#radialGradient3017);stroke:#000000;stroke-width:1px;stroke-linecap:butt;stroke-linejoin:miter;stroke-opacity:1" />
      <path
         style="fill:#000000;fill-opacity:1;stroke:#000000;stroke-width:1px;stroke-linecap:butt;stroke-linejoin:miter;stroke-opacity:1"
         d="m 625.96371,1192.9522 c -37.54363,83.8154 -37.21202,96.5323 -56.42857,152.8571 -6.74963,26.6292 -1.11117,58.9364 -2.14286,86.4286 -10.48324,-20.9379 -25.36993,-24.3458 -29.28571,-71.4286 -5.96743,-69.3294 30.41855,-102.3773 54.28571,-173.5714 z"
         id="path2999"
         inkscape:connector-curvature="0"
         sodipodi:nodetypes="cccccc" />
      <path
         sodipodi:nodetypes="cccccc"
         inkscape:connector-curvature="0"
         id="path2989"
         d="m 625.96371,1192.9522 c -37.54363,83.8154 -37.21202,96.5323 -56.42857,152.8571 -6.74963,26.6292 -1.11117,58.9364 -2.14286,86.4286 -10.48324,-20.9379 -25.36993,-24.3458 -29.28571,-71.4286 -5.96743,-69.3294 30.41855,-102.3773 54.28571,-173.5714 z"
         style="fill:url(#radialGradient3019);fill-opacity:1;stroke:#000000;stroke-width:1px;stroke-linecap:butt;stroke-linejoin:miter;stroke-opacity:1" />
    </g>
    <path
       inkscape:connector-curvature="0"
       d="m 276.98782,475.22437 c 9.93928,-1.05994 13.45427,-4.60987 14.42209,-14.88548 0.91364,-9.63324 -6.11577,-18.75569 -15.61273,-20.87887 -4.08497,-0.90346 -11.07941,0.81494 -19.0749,6.48826 -8.7227,-1.93903 -16.22846,2.74841 -16.45339,6.92993 -2.90884,5.59477 -0.95458,11.91336 1.85352,16.45872 2.80459,4.54027 25.16207,6.90519 34.86541,5.88744"
       style="fill:#73941c;fill-opacity:1;fill-rule:nonzero;stroke:none;stroke-width:1.25"
       id="path3147" />
    <g
       id="g3149"
       transform="matrix(-0.06228404,-1.2484473,1.2484473,-0.06228404,-522.15391,753.69729)">
      <g
         id="g3151"
         clip-path="url(#clipPath3153)">
        <path
           inkscape:connector-curvature="0"
           d="m 196.1257,648.6945 c 0.3337,6.9049 2.3301,9.4564 8.3804,10.4794 5.6721,0.9635 11.2765,-3.5796 12.8126,-10.0695 0.6551,-2.7916 -0.7719,-8.1649 -2.0413,-13.6457 -1.269,-5.4805 -2.3808,-11.0693 -4.848,-11.3689 -3.663,-0.1528 -7.166,-0.3867 -9.7918,0.7134 -2.9755,1.247 -4.8276,17.1505 -4.5119,23.8913"
           style="fill:#73941c;fill-opacity:1;fill-rule:nonzero;stroke:none"
           id="path3157" />
        <path
           inkscape:connector-curvature="0"
           d="m 217.9417,651.2496 -29.2215,-15.0879 1.0315,-1.7938 1.524,-1.6421 30.8194,15.4142 -1.5242,2.0549 z"
           style="fill:#3d1f00;fill-opacity:1;fill-rule:nonzero;stroke:none"
           id="path3159" />
        <path
           inkscape:connector-curvature="0"
           d="m 188.9376,645.3561 32.7161,-13.7137 2.0143,2.1206 1.6288,1.4771 -34.4483,15.1087 -1.3425,-2.3054 z"
           style="fill:#3d1f00;fill-opacity:1;fill-rule:nonzero;stroke:none"
           id="path3161" />
      </g>
    </g>
    <path
       sodipodi:nodetypes="cccccccccccccccccccc"
       inkscape:connector-curvature="0"
       d="m 233.72187,472.76922 c -6.93361,1.3021 -13.41199,0.0586 -19.89885,-2.61174 -1.91668,0.2801 -5.97047,-0.2343 -7.4354,-2.12804 l -4.44945,2.35451 c -4.72565,0.42599 -9.24601,0.12248 -13.94554,-0.48599 l -1.74688,-2.9092 -2.44078,-0.88047 -0.61605,-5.05821 -1.76957,-2.00445 1.29924,-7.42308 5.30372,2.10985 4.81889,-1.75028 2.59869,-2.30373 c -2.75565,1.13049 -5.21324,4.49651 -8.84274,-0.92691 1.28903,-1.87544 6.111,-4.72588 8.47077,-4.4381 2.38209,0.29617 10.06496,4.7668 11.62224,6.55492 0.961,-1.3234 4.12425,-2.05455 6.23385,-1.67369 9.36454,1.8622 14.74659,-4.02341 21.43171,-3.10887 6.68524,0.91428 14.6338,3.18842 14.29776,11.49974 -0.33616,8.31132 -7.66462,15.45135 -14.93161,15.18374"
       style="fill:#5c7814;fill-opacity:1;fill-rule:nonzero;stroke:none;stroke-width:1.25"
       id="path3667" />
    <g
       clip-path="url(#clipPath3673)"
       id="g3671"
       transform="matrix(-0.06228404,-1.2484473,1.2484473,-0.06228404,-506.33355,750.92038)">
      <path
         id="path3677"
         style="fill:#73941c;fill-opacity:1;fill-rule:nonzero;stroke:none"
         d="m 196.526,602.3435 c -0.5502,-5.5953 0.2888,-10.7161 1.9134,-15.7819 -0.0601,-0.8569 0.0306,-2.2294 0.3075,-3.4673 3.3078,-0.567 6.7337,-0.584 9.9992,0.1885 0.3952,0.0944 0.7872,0.2009 1.1761,0.3183 0.1815,1.0256 0.2183,2.2255 0.0737,3.1513 -1.2489,7.3995 1.8607,11.9537 1.1977,17.2542 -0.6633,5.3005 -2.1053,11.5509 -6.6702,10.9222 -4.5655,-0.6288 -8.3186,-6.7921 -7.9974,-12.5853 z m 2.2252,-24.8182 -0.1517,-0.4668 c -0.121,-3.7931 0.1936,-4.5567 0.6412,-8.284 l 1.6427,-1.2694 0.5428,-1.9114 2.7981,-0.2724 1.1452,-1.3272 4.0536,1.3601 -1.2878,4.1448 0.8076,1.0908 1.8745,3.0419 2.4636,-3.5431 c 1.0012,1.1106 2.0917,4.7191 1.8771,6.5917 -0.1037,0.8901 -1.1993,1.7966 -2.4364,2.628 -1.4655,-0.7163 -3.0172,-1.2549 -4.6131,-1.5933 -2.9182,-0.6279 -5.9468,-0.5879 -8.9132,-0.2447 z"
         inkscape:connector-curvature="0" />
      <path
         id="path3679"
         style="fill:#3d1f00;fill-opacity:1;fill-rule:nonzero;stroke:none"
         d="m 190.5707,588.5566 2.4519,-3.4602 -1.9139,-3.0294 c 2.6453,-0.8379 5.3688,-1.4256 8.1266,-1.7524 2.9665,-0.3433 5.995,-0.3832 8.9133,0.2446 3.5271,0.7481 6.8386,2.4738 9.4796,4.936 l -1.9139,2.0687 0.9541,2.3074 c -2.3244,-1.7804 -5.0309,-3.0611 -7.8823,-3.7442 -3.3284,-0.7869 -6.8233,-0.7543 -10.1897,-0.1551 -2.7791,0.4944 -5.4856,1.3646 -8.0257,2.5846"
         inkscape:connector-curvature="0" />
    </g>
  </g>
</svg>
