<?xml version="1.0" encoding="UTF-8" standalone="no"?>
<!-- Created with Inkscape (http://www.inkscape.org/) -->

<svg
   xmlns:dc="http://purl.org/dc/elements/1.1/"
   xmlns:cc="http://creativecommons.org/ns#"
   xmlns:rdf="http://www.w3.org/1999/02/22-rdf-syntax-ns#"
   xmlns:svg="http://www.w3.org/2000/svg"
   xmlns="http://www.w3.org/2000/svg"
   xmlns:xlink="http://www.w3.org/1999/xlink"
   xmlns:sodipodi="http://sodipodi.sourceforge.net/DTD/sodipodi-0.dtd"
   xmlns:inkscape="http://www.inkscape.org/namespaces/inkscape"
   width="64.579308"
   height="32.094547"
   id="svg4411"
   version="1.1"
   inkscape:version="0.92.3 (2405546, 2018-03-11)"
   sodipodi:docname="leftHand.svg"
   inkscape:export-filename="C:\Users\Matt Holtzem\Dropbox\Game Sprites\mon2_ani\skeletonPieces.png"
   inkscape:export-xdpi="300.04581"
   inkscape:export-ydpi="300.04581">
  <defs
     id="defs4413">
    <color-profile
       name="sRGB-IEC61966-2.1"
       xlink:href="C:\Windows\system32\spool\drivers\color\sRGB Color Space Profile.icm"
       id="color-profile847" />
    <linearGradient
       id="linearGradient3946-8-9-3">
      <stop
         style="stop-color:#777777;stop-opacity:1;"
         offset="0"
         id="stop3948-6-2-8" />
      <stop
         style="stop-color:#ffffff;stop-opacity:1;"
         offset="1"
         id="stop3950-6-7-7" />
    </linearGradient>
  </defs>
  <sodipodi:namedview
     id="base"
     pagecolor="#ffffff"
     bordercolor="#666666"
     borderopacity="1"
     inkscape:pageopacity="0.0"
     inkscape:pageshadow="2"
     inkscape:zoom="2.9"
     inkscape:cx="-45.324144"
     inkscape:cy="-10.293664"
     inkscape:current-layer="layer1"
     inkscape:document-units="px"
     showgrid="false"
     inkscape:window-width="1280"
     inkscape:window-height="737"
     inkscape:window-x="-8"
     inkscape:window-y="-8"
     inkscape:window-maximized="1"
     inkscape:pagecheckerboard="true"
     fit-margin-top="0"
     fit-margin-left="0"
     fit-margin-right="0"
     fit-margin-bottom="0"
     showguides="true" />
  <metadata
     id="metadata4416">
    <rdf:RDF>
      <cc:Work
         rdf:about="">
        <dc:format>image/svg+xml</dc:format>
        <dc:type
           rdf:resource="http://purl.org/dc/dcmitype/StillImage" />
        <dc:title></dc:title>
      </cc:Work>
    </rdf:RDF>
  </metadata>
  <g
     id="layer1"
     inkscape:label="Layer 1"
     inkscape:groupmode="layer"
     transform="translate(-341.77446,-253.88859)"
     style="display:inline">
    <path
       style="display:inline;opacity:1;fill:#f2f2f2;fill-opacity:1;stroke:#000000;stroke-width:4.34194565px;stroke-linecap:butt;stroke-linejoin:miter;stroke-opacity:1"
       d="m 363.31471,256.05956 h -14.98682 l -4.16303,4.16303 -0.20789,14.77866 7.49341,8.53418 3.33041,0.20818 7.07716,-9.36678 39.72863,0.38058 2.51673,-9.3145 -2.49157,-9.02798 z"
       id="path4269-6-7"
       inkscape:connector-curvature="0"
       sodipodi:nodetypes="ccccccccccc" />
    <path
       style="opacity:0;fill:#ff0000;fill-opacity:1;stroke-width:0.34482759"
       d="M 7.814061,24.026142 4.6821736,20.49166 4.679015,13.925524 4.6758565,7.3593892 6.2094221,5.8543085 7.7429875,4.3492277 32.841224,4.5982229 c 13.804029,0.1369474 25.144984,0.2957437 25.202122,0.3528807 0.431814,0.4318135 1.814945,6.6688374 1.640666,7.3983394 -0.118366,0.49546 -0.53389,2.100197 -0.923387,3.56608 L 58.05245,18.580767 38.519325,18.361534 18.986201,18.142301 15.403709,22.851463 c -1.97037,2.590039 -3.779427,4.709162 -4.020126,4.709162 -0.240699,0 -1.8469841,-1.590517 -3.569522,-3.534483 z"
       id="path819"
       inkscape:connector-curvature="0"
       transform="translate(341.77446,253.88859)" />
    <path
       style="opacity:0;fill:#ff0000;fill-opacity:1;stroke-width:0.34482759"
       d="M 7.814061,24.026142 4.6821736,20.49166 4.679015,13.925524 4.6758565,7.3593892 6.2094221,5.8543085 7.7429875,4.3492277 32.841224,4.5982229 c 13.804029,0.1369474 25.144984,0.2957437 25.202122,0.3528807 0.431814,0.4318135 1.814945,6.6688374 1.640666,7.3983394 -0.118366,0.49546 -0.53389,2.100197 -0.923387,3.56608 L 58.05245,18.580767 38.519325,18.361534 18.986201,18.142301 15.403709,22.851463 c -1.97037,2.590039 -3.779427,4.709162 -4.020126,4.709162 -0.240699,0 -1.8469841,-1.590517 -3.569522,-3.534483 z"
       id="path821"
       inkscape:connector-curvature="0"
       transform="translate(341.77446,253.88859)" />
    <path
       style="opacity:0;fill:#ff0000;fill-opacity:1;stroke-width:0.34482759"
       d="M 7.814061,24.026142 4.6821736,20.49166 4.679015,13.925524 4.6758565,7.3593892 6.2094221,5.8543085 7.7429875,4.3492277 32.841224,4.5982229 c 13.804029,0.1369474 25.144984,0.2957437 25.202122,0.3528807 0.431814,0.4318135 1.814945,6.6688374 1.640666,7.3983394 -0.118366,0.49546 -0.53389,2.100197 -0.923387,3.56608 L 58.05245,18.580767 38.519325,18.361534 18.986201,18.142301 15.403709,22.851463 c -1.97037,2.590039 -3.779427,4.709162 -4.020126,4.709162 -0.240699,0 -1.8469841,-1.590517 -3.569522,-3.534483 z"
       id="path823"
       inkscape:connector-curvature="0"
       transform="translate(341.77446,253.88859)" />
    <path
       style="opacity:0;fill:#ff0000;fill-opacity:1;stroke-width:0.34482759"
       d="M 7.814061,24.026142 4.6821736,20.49166 4.679015,13.925524 4.6758565,7.3593892 6.2094221,5.8543085 7.7429875,4.3492277 32.841224,4.5982229 c 13.804029,0.1369474 25.144984,0.2957437 25.202122,0.3528807 0.431814,0.4318135 1.814945,6.6688374 1.640666,7.3983394 -0.118366,0.49546 -0.53389,2.100197 -0.923387,3.56608 L 58.05245,18.580767 38.519325,18.361534 18.986201,18.142301 15.403709,22.851463 c -1.97037,2.590039 -3.779427,4.709162 -4.020126,4.709162 -0.240699,0 -1.8469841,-1.590517 -3.569522,-3.534483 z"
       id="path825"
       inkscape:connector-curvature="0"
       transform="translate(341.77446,253.88859)" />
    <path
       style="opacity:0;fill:#ff0000;fill-opacity:1;stroke-width:0.34482759"
       d="M 7.814061,24.026142 4.6821736,20.49166 4.679015,13.925524 4.6758565,7.3593892 6.2094221,5.8543085 7.7429875,4.3492277 32.841224,4.5982229 c 13.804029,0.1369474 25.144984,0.2957437 25.202122,0.3528807 0.431814,0.4318135 1.814945,6.6688374 1.640666,7.3983394 -0.118366,0.49546 -0.53389,2.100197 -0.923387,3.56608 L 58.05245,18.580767 38.519325,18.361534 18.986201,18.142301 15.403709,22.851463 c -1.97037,2.590039 -3.779427,4.709162 -4.020126,4.709162 -0.240699,0 -1.8469841,-1.590517 -3.569522,-3.534483 z"
       id="path827"
       inkscape:connector-curvature="0"
       transform="translate(341.77446,253.88859)" />
    <path
       style="opacity:0;fill:#ff0000;fill-opacity:1;stroke-width:0.34482759"
       d="M 7.814061,24.026142 4.6821736,20.49166 4.679015,13.925524 4.6758565,7.3593892 6.2094221,5.8543085 7.7429875,4.3492277 32.841224,4.5982229 c 13.804029,0.1369474 25.144984,0.2957437 25.202122,0.3528807 0.431814,0.4318135 1.814945,6.6688374 1.640666,7.3983394 -0.118366,0.49546 -0.53389,2.100197 -0.923387,3.56608 L 58.05245,18.580767 38.519325,18.361534 18.986201,18.142301 15.403709,22.851463 c -1.97037,2.590039 -3.779427,4.709162 -4.020126,4.709162 -0.240699,0 -1.8469841,-1.590517 -3.569522,-3.534483 z"
       id="path829"
       inkscape:connector-curvature="0"
       transform="translate(341.77446,253.88859)" />
    <use
       id="use831"
       inkscape:spray-origin="#path829"
       xlink:href="#path829"
       x="0"
       y="0"
       width="100%"
       height="100%"
       transform="translate(96.090273,-34.623601)" />
    <use
       id="use833"
       inkscape:spray-origin="#path829"
       xlink:href="#path829"
       x="0"
       y="0"
       width="100%"
       height="100%"
       transform="translate(98.891649,-43.083185)" />
    <path
       style="opacity:0;fill:#ff0000;fill-opacity:1;stroke-width:0.34482759"
       d="M 7.814061,24.026142 4.6821736,20.49166 4.679015,13.925524 4.6758565,7.3593892 6.2094221,5.8543085 7.7429875,4.3492277 32.841224,4.5982229 c 13.804029,0.1369474 25.144984,0.2957437 25.202122,0.3528807 0.431814,0.4318135 1.814945,6.6688374 1.640666,7.3983394 -0.118366,0.49546 -0.53389,2.100197 -0.923387,3.56608 L 58.05245,18.580767 38.519325,18.361534 18.986201,18.142301 15.403709,22.851463 c -1.97037,2.590039 -3.779427,4.709162 -4.020126,4.709162 -0.240699,0 -1.8469841,-1.590517 -3.569522,-3.534483 z"
       id="path835"
       inkscape:connector-curvature="0"
       transform="translate(341.77446,253.88859)" />
    <path
       style="opacity:0;fill:#ff0000;fill-opacity:1;stroke-width:0.34482759"
       d="M 7.814061,24.026142 4.6821736,20.49166 4.679015,13.925524 4.6758565,7.3593892 6.2094221,5.8543085 7.7429875,4.3492277 32.841224,4.5982229 c 13.804029,0.1369474 25.144984,0.2957437 25.202122,0.3528807 0.431814,0.4318135 1.814945,6.6688374 1.640666,7.3983394 -0.118366,0.49546 -0.53389,2.100197 -0.923387,3.56608 L 58.05245,18.580767 38.519325,18.361534 18.986201,18.142301 15.403709,22.851463 c -1.97037,2.590039 -3.779427,4.709162 -4.020126,4.709162 -0.240699,0 -1.8469841,-1.590517 -3.569522,-3.534483 z"
       id="path837"
       inkscape:connector-curvature="0"
       transform="translate(341.77446,253.88859)" />
    <path
       style="opacity:0;fill:#ff0000;fill-opacity:1;stroke-width:0.34482759"
       d="M 10.970495,31.791168 8.8168586,31.665727 4.4837782,26.768349 0.15069763,21.87097 0.25810466,13.689353 0.36551166,5.5077362 2.9430884,2.9134911 5.5206651,0.31924583 H 30.390114 c 13.678198,0 26.269215,0.0993582 27.980042,0.22079607 l 3.11059,0.22079607 1.458324,5.41315403 1.458321,5.413154 -1.493231,5.607272 -1.493231,5.607273 -20.177879,-0.116256 -20.177883,-0.116256 -3.519714,4.650895 c -1.935843,2.557993 -3.720325,4.661165 -3.965517,4.673715 -0.245192,0.01255 -1.41494,-0.03363 -2.599441,-0.102621 z M 4.5687275,19.026142 c -0.086734,-0.331896 -0.1576976,-0.06034 -0.1576976,0.603449 0,0.663793 0.070964,0.935344 0.1576976,0.603448 0.086734,-0.331897 0.086734,-0.875 0,-1.206897 z M 58.38205,18.25028 c 0.09639,-0.357612 0.04975,-0.39155 -0.151125,-0.109969 -0.159793,0.224 -0.986262,0.473464 -1.836596,0.554366 l -1.546059,0.147093 1.697183,-0.03712 c 1.193959,-0.02612 1.738521,-0.190488 1.836597,-0.554365 z m -19.482056,0.08666 c -3.650862,-0.05585 -9.625,-0.05585 -13.275862,0 -3.650862,0.05585 -0.663793,0.101551 6.637931,0.101551 7.301725,0 10.288793,-0.0457 6.637931,-0.101551 z m 21.183831,-7.047866 c -0.110075,-0.27508 -0.191786,-0.193371 -0.208331,0.208334 -0.01497,0.363505 0.06652,0.567169 0.181111,0.452586 0.114583,-0.114583 0.126831,-0.411997 0.02721,-0.66092 z M 58.296546,4.8020045 C 58.160422,4.5817507 54.384715,4.4855269 47.84516,4.535651 L 37.606891,4.614126 47.951719,4.802005 c 5.689655,0.1033334 10.392779,0.2231924 10.451386,0.2663534 0.05861,0.043161 0.01066,-0.076698 -0.106559,-0.2663539 z M 27.009618,4.2107886 c -0.518155,-0.078681 -1.449189,-0.080265 -2.068965,-0.00352 -0.619776,0.076747 -0.195831,0.1411221 0.9421,0.1430576 1.137931,0.00193 1.64502,-0.060856 1.126865,-0.1395376 z"
       id="path839"
       inkscape:connector-curvature="0"
       transform="translate(341.77446,253.88859)" />
    <path
       style="opacity:0;fill:#ff0000;fill-opacity:1;stroke-width:0.34482759"
       d="M 7.814061,24.026142 4.6821736,20.49166 4.679015,13.925524 4.6758565,7.3593892 6.2094221,5.8543085 7.7429875,4.3492277 32.841224,4.5982229 c 13.804029,0.1369474 25.144984,0.2957437 25.202122,0.3528807 0.431814,0.4318135 1.814945,6.6688374 1.640666,7.3983394 -0.118366,0.49546 -0.53389,2.100197 -0.923387,3.56608 L 58.05245,18.580767 38.519325,18.361534 18.986201,18.142301 15.403709,22.851463 c -1.97037,2.590039 -3.779427,4.709162 -4.020126,4.709162 -0.240699,0 -1.8469841,-1.590517 -3.569522,-3.534483 z"
       id="path841"
       inkscape:connector-curvature="0"
       transform="translate(341.77446,253.88859)" />
    <path
       style="opacity:0;fill:#ff0000;fill-opacity:1;stroke-width:0.34482759"
       d="M 7.814061,24.026142 4.6821736,20.49166 4.679015,13.925524 4.6758565,7.3593892 6.2094221,5.8543085 7.7429875,4.3492277 32.841224,4.5982229 c 13.804029,0.1369474 25.144984,0.2957437 25.202122,0.3528807 0.431814,0.4318135 1.814945,6.6688374 1.640666,7.3983394 -0.118366,0.49546 -0.53389,2.100197 -0.923387,3.56608 L 58.05245,18.580767 38.519325,18.361534 18.986201,18.142301 15.403709,22.851463 c -1.97037,2.590039 -3.779427,4.709162 -4.020126,4.709162 -0.240699,0 -1.8469841,-1.590517 -3.569522,-3.534483 z"
       id="path843"
       inkscape:connector-curvature="0"
       transform="translate(341.77446,253.88859)" />
  </g>
</svg>
